<svg width="893" height="747" viewBox="0 0 893 747" fill="none" xmlns="http://www.w3.org/2000/svg">
<path d="M502.506 432.004C502.427 432.318 502.345 432.632 502.26 432.946C479.846 515.586 250.014 538.332 244.38 467.762L239.212 403.032C240.355 417.357 247.722 428.585 259.294 436.974C321.131 481.797 503.053 445.535 497.338 367.273L502.506 432.004Z" fill="#CEB4E2"/>
<path d="M549.431 504.736L545.961 510.633L554.534 508.005L549.431 504.736Z" fill="#CEB4E2"/>
<path d="M247.568 554.214L252.294 566.898L251.205 553.249L247.568 554.214Z" fill="#CEB4E2"/>
<path d="M500.546 468.989C495.602 473.883 491.001 478.513 487.299 482.285L505.089 477.204L571.17 458.329C567.738 454.971 562.826 450.595 557.952 446.254L557.057 445.456C555.998 444.513 554.916 443.566 553.881 442.671L542.798 453.424L531.155 440.086L524.158 446.33C518.351 451.654 511.725 458.011 505.357 464.25C504.685 464.908 504.017 465.565 503.352 466.218C502.407 467.148 501.471 468.073 500.546 468.989Z" fill="#DF85AB"/>
<path d="M685.314 425.71L700.515 421.352L661.146 409.573L655.395 419.413L646.377 410.914L616.394 443.512L614.525 445.945L685.314 425.71Z" fill="#8EBCDD"/>
<path d="M644.339 226.611C642.551 208.561 629.932 169.394 593.754 157.123C557.577 144.852 439.59 98.8406 385.119 77.3688C381.135 75.0539 371.659 72.2646 365.629 79.6264L609.806 179.241L611.27 179.842C616.071 183.084 626.442 196.936 629.514 226.412C632.586 255.887 634.759 284.341 635.462 294.884L636.937 310.505L637.382 315.221L643.01 374.82L644.495 390.555L646.377 410.914L655.395 419.413L661.146 409.573L655.462 353.733L652.394 318.669L651.065 303.481L644.339 226.611Z" fill="#CEB4E2"/>
<path fill-rule="evenodd" clip-rule="evenodd" d="M341.589 88.4127C349.048 77.5038 360.723 78.0098 365.629 79.6264L609.806 179.241C621.236 184.328 618.272 211.799 614.588 224.854L600.447 275.59L596.647 289.224L578.51 354.303L562.066 413.303L553.881 442.671L542.798 453.424L531.155 440.086C533.218 434.126 535.438 427.348 537.758 420.262L537.76 420.257C539.626 414.56 541.557 408.664 543.524 402.832C549.579 384.89 556.086 365.292 562.501 345.508C569.526 323.84 576.442 301.949 582.532 281.768C583.949 277.072 585.321 272.469 586.64 267.983C598.967 226.043 606.602 194.321 602.183 192.706C593.992 189.713 488.992 148.314 407.93 116.307C401.26 113.674 394.751 111.104 388.473 108.624C384.489 107.051 380.599 105.514 376.817 104.02L375.585 103.533L375.007 103.305L374.84 103.239L367.837 100.472L364.382 99.1071L357.716 96.4732L355.955 95.7773C355.284 95.5098 353.298 96.2067 350.729 101.134C348.405 105.592 314.338 202.342 292.853 263.358L292.851 263.363C290.589 269.789 288.466 275.819 286.534 281.303L280.47 289.952L274.87 281.146C297.777 210.364 334.853 98.2621 341.589 88.4127Z" fill="#CEB4E2"/>
<path d="M260.062 317.53L271.737 314.959L296.639 309.475L304.666 307.708L286.534 281.303L280.47 289.952L274.87 281.146L246.826 320.445L254.363 318.785L260.062 317.53Z" fill="#7DBAB2"/>
<path fill-rule="evenodd" clip-rule="evenodd" d="M367.837 100.472L364.382 99.1071L376.815 264.104L383.68 269.88L387.557 262.31L375.007 103.305L374.84 103.239L367.837 100.472Z" fill="#CEB4E2"/>
<path d="M401.988 286.275L417.123 282.942L387.557 262.31L383.68 269.88L376.815 264.104L356.109 296.379L367.697 293.827L401.988 286.275Z" fill="#EAC009"/>
<path d="M487.299 482.285L293.843 538.062L246.415 493.251L248.371 517.755L251.37 520.561L252.989 521.969L253.046 522.129L291.969 558.545L335.667 544.865L478.945 500.012L505.925 491.566L505.507 484.385L505.089 477.204L487.299 482.285Z" fill="#CEB4E2"/>
<path d="M438.201 512.831L384.904 529.752L379.606 561.63L426.341 547.303L438.201 512.831Z" fill="#CEB4E2"/>
<path d="M384.904 529.752L438.201 512.831L426.341 547.303L464.249 535.682L478.945 500.012L335.667 544.865L333.694 575.705L379.606 561.63L384.904 529.752Z" fill="#CEB4E2"/>
<path d="M502.26 432.946C479.846 515.586 250.014 538.332 244.38 467.762L246.415 493.251L293.843 538.062L487.299 482.285C491.001 478.513 495.602 473.883 500.546 468.989L502.461 439.068L502.26 432.946Z" fill="#CEB4E2"/>
<path d="M266.623 560.092L296.527 587.098L333.694 575.705L335.667 544.865L291.969 558.545L253.046 522.129L266.623 560.092Z" fill="#CEB4E2"/>
<path d="M251.37 520.561L248.388 517.966L250.595 545.617L266.623 560.092L253.046 522.129L251.37 520.561Z" fill="#CEB4E2"/>
<path d="M251.205 553.249L252.294 566.898L260.218 588.164L285.235 612.131L266.623 560.092L250.595 545.617L251.205 553.249Z" fill="#CEB4E2"/>
<path d="M263.534 597.061C269.445 604.555 277.261 610.709 286.468 615.577L285.235 612.131L260.218 588.164L263.534 597.061Z" fill="#CEB4E2"/>
<path d="M316.168 626.038L330.777 621.272L333.694 575.705L296.527 587.098L266.623 560.092L285.235 612.131L291.331 617.971C298.896 621.434 307.258 624.115 316.168 626.038Z" fill="#CEB4E2"/>
<path d="M252.96 575.24C253.68 578.26 254.623 581.148 255.774 583.906L260.218 588.164L252.294 566.898L252.96 575.24Z" fill="#CEB4E2"/>
<path d="M316.168 626.038C320.752 627.027 325.48 627.815 330.321 628.406L330.777 621.272L316.168 626.038Z" fill="#CEB4E2"/>
<path d="M330.321 628.406C342.481 629.891 355.345 630.132 368.38 629.181L371.925 607.848L330.777 621.272L330.321 628.406Z" fill="#CEB4E2"/>
<path d="M379.606 561.63L333.694 575.705L330.777 621.272L371.925 607.848L379.606 561.63Z" fill="#CEB4E2"/>
<path d="M368.38 629.181C378.813 628.419 389.356 626.894 399.735 624.634L409.756 595.506L371.925 607.848L368.38 629.181Z" fill="#CEB4E2"/>
<path d="M399.735 624.634C410.615 622.264 421.314 619.085 431.518 615.128L444.236 584.258L409.756 595.506L399.735 624.634Z" fill="#CEB4E2"/>
<path d="M426.341 547.303L379.606 561.63L371.925 607.848L409.756 595.506L426.341 547.303Z" fill="#CEB4E2"/>
<path d="M472.423 592.645L482.404 571.806L444.236 584.258L431.518 615.128C446.569 609.292 460.541 601.764 472.423 592.645Z" fill="#CEB4E2"/>
<path d="M505.805 522.943L464.249 535.682L444.236 584.258L482.404 571.806L505.805 522.943Z" fill="#CEB4E2"/>
<path d="M464.249 535.682L426.341 547.303L409.756 595.506L444.236 584.258L464.249 535.682Z" fill="#CEB4E2"/>
<path d="M507.52 519.362L505.925 491.566L478.945 500.012L464.249 535.682L505.805 522.943L507.52 519.362Z" fill="#CEB4E2"/>
<path d="M508.694 539.812L507.693 522.365L505.805 522.943L482.404 571.806L496.857 567.091C502.418 558.757 506.487 549.652 508.694 539.812Z" fill="#CEB4E2"/>
<path d="M472.423 592.645C482.156 585.176 490.486 576.64 496.857 567.091L482.404 571.806L472.423 592.645Z" fill="#CEB4E2"/>
<path d="M497.338 367.273C503.053 445.535 321.131 481.797 259.294 436.974C247.722 428.585 240.355 417.357 239.212 403.032C231.957 312.165 491.175 290.085 497.338 367.273Z" fill="#CEB4E2"/>
<path d="M502.506 432.004L497.338 367.273M502.506 432.004L504.391 465.198M502.506 432.004C502.427 432.318 502.345 432.632 502.26 432.946M244.38 467.762L239.212 403.032M244.38 467.762L246.415 493.251M244.38 467.762C250.014 538.332 479.846 515.586 502.26 432.946M497.338 367.273C491.175 290.085 231.957 312.165 239.212 403.032M497.338 367.273C503.053 445.535 321.131 481.797 259.294 436.974C247.722 428.585 240.355 417.357 239.212 403.032M513.815 261.648L557.631 251.999L586.64 267.983M513.815 261.648L472.094 270.836M513.815 261.648L512.798 277.545M500.546 468.989C495.602 473.883 491.001 478.513 487.299 482.285M500.546 468.989C501.471 468.073 502.407 467.148 503.352 466.218M500.546 468.989L502.461 439.068M472.094 270.836L433.612 279.311M472.094 270.836L472.871 286.179M433.612 279.311L435.206 294.323M433.612 279.311L417.123 282.942M401.988 286.275L404.003 301.071M401.988 286.275L417.123 282.942M401.988 286.275L367.697 293.827M367.697 293.827L369.92 308.441M367.697 293.827L356.109 296.379M327.882 302.595L356.109 296.379M327.882 302.595L330.651 316.932M327.882 302.595L304.666 307.708M296.639 309.475L271.737 314.959M296.639 309.475L299.398 323.691M296.639 309.475L304.666 307.708M260.062 317.53L271.737 314.959M260.062 317.53L260.393 319.059M260.062 317.53L254.363 318.785M215.484 327.347L164.809 338.507M215.484 327.347L219.43 340.983M215.484 327.347L246.826 320.445M164.809 338.507L77.3672 357.764L116.16 394.058M164.809 338.507L170.007 351.67M215.399 466.611L224.302 474.237M215.399 466.611L170.007 351.67M215.399 466.611L157.314 416.334M487.299 482.285L293.843 538.062L246.415 493.251M487.299 482.285L505.089 477.204M571.455 458.608C571.361 458.516 571.266 458.423 571.17 458.329M646.377 410.914L644.495 390.555M646.377 410.914L616.394 443.512M646.377 410.914L655.395 419.413L661.146 409.573M795.329 394.168L762.173 376.655M795.329 394.168C795.329 394.168 757.197 405.101 732.764 412.106M795.329 394.168L732.764 412.106M608.926 295.71L557.057 445.456M608.926 295.71L636.937 310.505M608.926 295.71L596.647 289.224M557.057 445.456C555.998 444.513 554.916 443.566 553.881 442.671M557.057 445.456L557.952 446.254M557.057 445.456C557.355 445.722 557.654 445.988 557.952 446.254M579.323 456L612.234 376.022M579.323 456L597.18 450.899M579.323 456L571.17 458.329M670.516 328.241L695.951 341.676M670.516 328.241L655.462 353.733M670.516 328.241L652.394 318.669M597.18 450.899L621.307 411.571L643.01 374.82M597.18 450.899L614.525 445.945M695.951 341.676L729.016 359.141M695.951 341.676L661.488 399.89M729.016 359.141L762.173 376.655M729.016 359.141L691.929 416.338M685.314 425.71C685.314 425.71 694.032 423.211 704.962 420.077M685.314 425.71L704.962 420.077M685.314 425.71L700.515 421.352M685.314 425.71L614.525 445.945M762.173 376.655C762.173 376.655 744.249 398.261 732.764 412.106M762.173 376.655L732.764 412.106M732.764 412.106C724.408 414.502 713.939 417.503 704.962 420.077M732.764 412.106L704.962 420.077M224.302 474.237L244.347 469.135M224.302 474.237L245.568 492.451M365.629 79.6264C371.659 72.2646 381.135 75.0539 385.119 77.3688C439.59 98.8406 557.577 144.852 593.754 157.123C629.932 169.394 642.551 208.561 644.339 226.611L651.065 303.481M365.629 79.6264C360.723 78.0098 349.048 77.5038 341.589 88.4127C334.853 98.2621 297.777 210.364 274.87 281.146M365.629 79.6264L609.806 179.241M635.462 294.884C634.759 284.341 632.586 255.887 629.514 226.412C626.442 196.936 616.071 183.084 611.27 179.842L609.806 179.241M635.462 294.884L636.937 310.505M635.462 294.884L600.447 275.59M507.395 491.106L507.449 491.05L509.2 490.541M507.395 491.106L509.2 490.541M507.395 491.106L505.925 491.566M651.065 303.481L816.159 394.448L725.811 422.731M651.065 303.481L652.394 318.669M651.065 303.481L655.462 353.733M637.382 315.221L643.01 374.82M637.382 315.221L636.937 310.505M637.382 315.221L613.676 372.536M652.394 318.669L655.462 353.733M655.462 353.733L661.146 409.573M643.01 374.82L644.495 390.555M643.01 374.82L636.937 310.505M661.488 399.89L661.146 409.573M661.488 399.89L691.929 416.338M512.798 277.545L556.603 268.072L582.532 281.768M512.798 277.545L472.871 286.179M512.798 277.545L502.461 439.068M472.871 286.179L435.206 294.323M472.871 286.179L475.202 336.116M435.206 294.323L404.003 301.071M435.206 294.323L438.252 323.02M404.003 301.071L369.92 308.441M404.003 301.071L406.617 320.261M170.007 351.67L100.079 366.791L157.314 416.334M170.007 351.67L219.43 340.983M219.43 340.983L263.096 331.541M219.43 340.983L236.405 399.633M263.096 331.541L299.398 323.691M263.096 331.541L260.393 319.059M263.096 331.541C263.096 331.541 264.808 339.448 267.637 352.509M524.158 446.342L524.158 446.33M157.007 416.401L157.314 416.334M700.515 421.352L691.929 416.338M700.515 421.352L661.146 409.573M700.515 421.352L704.962 420.077M553.881 442.671L562.066 413.303M553.881 442.671L542.798 453.424L531.155 440.086M609.806 179.241C621.236 184.328 618.272 211.799 614.588 224.854L600.447 275.59M609.806 179.241C609.684 179.187 609.932 179.29 609.806 179.241ZM531.155 440.086L524.158 446.33M531.155 440.086C533.218 434.126 535.438 427.348 537.758 420.262L537.76 420.257C539.626 414.56 541.557 408.664 543.524 402.832M355.955 95.7773C355.284 95.5098 353.298 96.2067 350.729 101.134C348.405 105.592 314.338 202.342 292.853 263.358L292.851 263.363C290.589 269.789 288.466 275.819 286.534 281.303M355.955 95.7773C356.538 96.0075 357.125 96.2395 357.716 96.4732M355.955 95.7773L357.716 96.4732M286.534 281.303L304.666 307.708M286.534 281.303L280.47 289.952L274.87 281.146M254.142 319.05L254.363 318.785M375.007 103.305L387.557 262.31M375.007 103.305L375.585 103.533M375.007 103.305L374.84 103.239M375.007 103.305C374.951 103.283 374.895 103.261 374.84 103.239M375.007 103.305C375.199 103.381 375.392 103.457 375.585 103.533M387.557 262.31L417.123 282.942M387.557 262.31L383.68 269.88L376.815 264.104M376.815 264.104L364.382 99.1071M376.815 264.104L356.109 296.379M364.382 99.1071L367.837 100.472M364.382 99.1071C365.52 99.5569 366.672 100.012 367.837 100.472M364.382 99.1071C362.104 98.2071 359.881 97.3285 357.716 96.4732M364.382 99.1071L357.716 96.4732M417.407 283.063L417.123 282.942M260.197 318.357L260.393 319.059M271.467 315.407C271.555 315.26 271.645 315.111 271.737 314.959M762.099 411.553C710.722 468.237 630.539 556.702 630.539 556.702M630.539 556.702L619.295 549.498M630.539 556.702L606.232 565.044M520.842 486.419L521.343 486.74M711.679 427.543L754.251 446.142L555.159 507.814L554.534 508.005M143.635 419.904L118.969 426.743L250.595 545.617M208.363 479.697L207.793 479.79M605.498 460.81L570.347 518.137M524.315 593.211L524.355 593.145M568.724 471.945L549.431 504.736M490.565 604.786L490.597 604.731M640.746 450.042L588.944 530.052M554.828 582.746L554.878 582.669M683.961 435.117L683.232 436.061M580.719 573.867L580.784 573.778M726.501 421.928L725.811 422.731M606.147 565.146L606.232 565.044M201.497 566.438L76.7918 357.95M201.497 566.438L116.16 394.058M201.497 566.438L226.888 588.689M201.497 566.438L206.58 565.089M201.497 566.438L210.362 574.207M461.901 614.616L461.922 614.573M335.672 544.789L335.667 544.865M226.888 588.689L210.362 574.207M226.888 588.689L247.084 606.389M226.888 588.689L217.109 562.295M210.362 574.207L206.58 565.089M596.647 289.224L600.447 275.59M596.647 289.224L578.51 354.303M725.811 422.731L683.232 436.061M725.811 422.731L619.295 549.498M683.232 436.061L630.22 452.656M683.232 436.061L605.447 540.625M582.532 281.768C583.949 277.072 585.321 272.469 586.64 267.983M582.532 281.768C576.442 301.949 569.526 323.84 562.501 345.508M586.64 267.983C598.967 226.043 606.602 194.321 602.183 192.706C593.992 189.713 488.992 148.314 407.93 116.307M369.92 308.441L330.651 316.932M369.92 308.441L371.788 320.726M330.651 316.932L299.398 323.691M330.651 316.932L332.499 326.501M299.398 323.691L301.723 335.674M254.363 318.785L246.826 320.445M253.046 522.129L291.969 558.545L335.667 544.865M253.046 522.129L252.989 521.969L251.37 520.561M253.046 522.129L251.37 520.561M253.046 522.129L266.623 560.092M251.37 520.561L248.371 517.755M251.37 520.561L248.388 517.966M207.793 479.79L147.977 423.826M207.793 479.79L155.975 488.296L229.723 558.948M207.793 479.79L248.371 517.755M147.977 423.826L147.578 422.864L116.009 393.753L116.16 394.058M147.977 423.826L116.16 394.058M147.977 423.826L206.58 565.089M157.314 416.334L236.405 399.633M524.158 446.33C518.351 451.654 511.725 458.011 505.357 464.25C504.685 464.908 504.017 465.565 503.352 466.218M524.158 446.33C517.739 452.215 510.319 459.363 503.352 466.218M478.945 500.012L335.667 544.865M478.945 500.012L505.925 491.566M478.945 500.012L464.249 535.682M335.667 544.865L333.694 575.705M521.343 486.74L509.2 490.541M521.343 486.74L630.22 452.656M521.343 486.74L521.638 486.929M509.2 490.541L521.638 486.929M630.22 452.656L708.482 498.052L596.181 534.689M644.495 390.555L613.31 373.422M562.066 413.303L578.51 354.303M562.066 413.303L608.509 439.53L616.394 443.512M543.524 402.832C549.579 384.89 556.086 365.292 562.501 345.508M543.524 402.832L531.509 396.047L501.301 403.735L502.26 432.946M562.501 345.508L540.041 333.168L487.45 344.596M578.51 354.303L613.31 373.422M612.234 376.022L613.31 373.422M612.234 376.022L611.337 372.504L613.676 372.536M613.31 373.422L613.676 372.536M236.405 399.633L244.347 469.135M244.347 469.135L245.568 492.451M245.568 492.451L246.415 493.251M503.352 466.218L502.461 439.068M376.817 104.02C380.599 105.514 384.489 107.051 388.473 108.624C394.751 111.104 401.26 113.674 407.93 116.307M376.817 104.02C386.559 107.868 397.028 112.003 407.93 116.307M376.817 104.02L375.585 103.533M376.817 104.02C376.405 103.857 375.995 103.695 375.585 103.533M614.525 445.945L616.394 443.512M614.525 445.945L571.17 458.329M571.17 458.329L505.089 477.204M571.17 458.329C567.738 454.971 562.826 450.595 557.952 446.254M274.87 281.146L246.826 320.445M299.662 652.467L314.252 665.254L328.271 660.442M299.662 652.467L276.671 632.318M299.662 652.467L286.468 615.577M276.671 632.318L247.084 606.389M276.671 632.318L263.534 597.061M247.084 606.389L229.957 559.173M367.837 100.472L374.84 103.239M367.837 100.472C364.341 99.0911 360.962 97.756 357.716 96.4732M367.837 100.472C370.123 101.375 372.459 102.298 374.84 103.239M375.585 103.533C375.336 103.435 375.088 103.337 374.84 103.239M551.201 549.362L516.517 560.678M551.201 549.362L524.355 593.145M551.201 549.362L570.347 518.137M551.201 549.362L583.201 538.923M516.517 560.678L490.597 604.731M516.517 560.678L496.857 567.091M516.517 560.678L545.961 510.633M490.597 604.731L524.355 593.145M490.597 604.731L461.922 614.573M524.355 593.145L554.878 582.669M507.693 522.365L508.694 539.812C506.487 549.652 502.418 558.757 496.857 567.091M507.693 522.365L545.961 510.633M507.693 522.365L507.52 519.362M507.693 522.365L505.805 522.943M496.857 567.091C490.486 576.64 482.156 585.176 472.423 592.645M496.857 567.091L482.404 571.806M545.961 510.633L549.431 504.736M545.961 510.633L554.534 508.005M522.721 487.623L507.52 519.362M522.721 487.623L549.431 504.736M522.721 487.623L523.282 486.452L521.638 486.929M522.721 487.623L521.638 486.929M507.52 519.362L505.925 491.566M507.52 519.362L505.805 522.943M549.431 504.736L554.534 508.005M570.347 518.137L554.534 508.005M570.347 518.137L588.944 530.052M472.423 592.645L461.922 614.573M472.423 592.645C460.541 601.764 446.569 609.292 431.518 615.128M472.423 592.645L482.404 571.806M461.922 614.573L426.777 626.634M554.878 582.669L583.201 538.923M554.878 582.669L580.784 573.778M583.201 538.923L588.944 530.052M583.201 538.923L596.181 534.689M588.944 530.052L596.181 534.689M596.181 534.689L605.447 540.625M580.784 573.778L605.447 540.625M580.784 573.778L606.232 565.044M605.447 540.625L619.295 549.498M606.232 565.044L619.295 549.498M505.925 491.566L505.507 484.385L505.089 477.204M431.518 615.128L426.777 626.634M431.518 615.128C421.314 619.085 410.615 622.264 399.735 624.634M431.518 615.128L444.236 584.258M426.777 626.634L426.764 626.667L395.326 637.449L395.334 637.426M426.777 626.634L395.334 637.426M399.735 624.634L395.334 637.426M399.735 624.634C389.356 626.894 378.813 628.419 368.38 629.181M399.735 624.634L409.756 595.506M395.334 637.426L365.296 647.735M368.38 629.181L365.296 647.735M368.38 629.181C355.345 630.132 342.481 629.891 330.321 628.406M368.38 629.181L371.925 607.848M365.296 647.735L365.294 647.748L328.27 660.446L328.271 660.442M365.296 647.735L328.271 660.442M330.321 628.406L328.271 660.442M330.321 628.406C325.48 627.815 320.752 627.027 316.168 626.038M330.321 628.406L330.777 621.272M291.331 617.971L303.922 630.033L316.168 626.038M291.331 617.971C289.671 617.21 288.049 616.413 286.468 615.577M291.331 617.971C298.896 621.434 307.258 624.115 316.168 626.038M291.331 617.971L285.235 612.131M286.468 615.577C277.261 610.709 269.445 604.555 263.534 597.061M286.468 615.577L285.235 612.131M316.168 626.038L330.777 621.272M263.534 597.061C260.378 593.06 257.765 588.678 255.774 583.906M263.534 597.061L260.218 588.164M251.205 553.249L252.294 566.898M251.205 553.249L247.568 554.214M251.205 553.249L250.595 545.617M255.774 583.906L229.957 559.173M255.774 583.906C254.623 581.148 253.68 578.26 252.96 575.24L252.294 566.898M255.774 583.906L260.218 588.164M229.957 559.173L229.723 558.948M229.957 559.173L229.862 558.911M229.723 558.948L217.109 562.295M229.723 558.948L229.862 558.911M217.109 562.295L175.355 449.598L198.338 472.003L229.862 558.911M217.109 562.295L206.58 565.089M252.294 566.898L247.568 554.214M252.294 566.898L260.218 588.164M247.568 554.214L229.862 558.911M247.568 554.214L227.191 499.526L248.388 517.966M260.218 588.164L285.235 612.131M246.415 493.251L248.371 517.755M248.371 517.755L248.388 517.966M379.606 561.63L384.904 529.752L438.201 512.831L426.341 547.303M379.606 561.63L426.341 547.303M379.606 561.63L333.694 575.705M379.606 561.63L371.925 607.848M426.341 547.303L464.249 535.682M426.341 547.303L409.756 595.506M464.249 535.682L444.236 584.258M464.249 535.682L505.805 522.943M333.694 575.705L296.527 587.098L266.623 560.092M333.694 575.705L330.777 621.272M502.26 432.946L502.461 439.068M266.623 560.092L250.595 545.617M266.623 560.092L285.235 612.131M248.388 517.966L250.595 545.617M330.777 621.272L371.925 607.848M371.925 607.848L409.756 595.506M409.756 595.506L444.236 584.258M444.236 584.258L482.404 571.806M482.404 571.806L505.805 522.943" stroke="#3B3166" stroke-width="2"/>
<path d="M497.425 366.503L502.453 432.511C481.539 515.92 250.122 537.829 244.466 466.992L239.299 402.262M497.425 366.503C504.21 459.411 246.553 493.129 239.299 402.262M497.425 366.503C491.262 289.314 232.044 311.394 239.299 402.262" stroke="#3B3166" stroke-width="2"/>
<path d="M441.396 326.637L421.628 334.737L422.064 318.807C421.566 316.37 418.266 315.35 415.422 315.007C414.399 314.884 413.434 314.848 412.681 314.866L402.22 327.317C395.232 325.563 391.356 327.739 390.292 329.046L385.108 338.183L375.556 331.241C366.074 329.4 361.115 333.743 359.821 336.144L365 347.522C358.488 347.171 355.873 351.936 355.38 354.362L364.055 372.566L355.902 380.458C355.374 382.6 358.15 385.743 359.603 387.047L363.862 387.45L356.765 398.075C354.933 402.833 359.374 404.365 361.824 404.536L380.452 396.443C388.668 392.611 393.443 388.245 394.803 386.542L400.83 402.062C401.075 405.517 402.688 406.855 404.724 407.061L410.353 417.153C412.513 418.289 417.584 418.843 420.586 411.964L420.214 403.351C423.176 409.642 427.249 416.241 430.043 420.322C433.36 421.618 437.789 416.575 439.589 413.891L434.628 389.119L432.614 381.868L440.328 393.911C445.898 394.914 448.572 391.021 449.213 388.949L447.989 386.853L459.596 388.975C465.31 384.736 464.824 378.694 463.867 376.204L455.989 373.83C457.143 371.614 457.571 369.347 457.622 368.044L452.011 363.588L446.401 359.132L452.951 357.223C457 348.876 451.247 346.02 447.865 345.635L437.643 344.89L447.999 336.17C448.814 330.301 443.937 327.369 441.396 326.637Z" fill="#8EBCDD"/>
<path d="M421.628 334.737L441.396 326.637C443.937 327.369 448.814 330.301 447.999 336.17L437.643 344.89M421.628 334.737L418.113 336.175M421.628 334.737L422.064 318.807C421.566 316.37 418.266 315.35 415.422 315.007M421.628 334.737C417.058 329.215 409.83 334.777 406.788 338.249M437.643 344.89L428.772 343.968M437.643 344.89L447.865 345.635C451.247 346.02 457 348.876 452.951 357.223L446.401 359.132M422.436 343.309L418.113 336.175M422.436 343.309L428.772 343.968M422.436 343.309L411.356 343.147M418.113 336.175C420.49 336.386 425.951 338.241 428.772 343.968M422.865 365.994C425.67 362.679 427.296 353.469 411.356 343.147M422.865 365.994L439.185 361.236M422.865 365.994L429.091 376.368M422.865 365.994L419.625 359.563M411.356 343.147L419.625 359.563M411.356 343.147L408.077 344.664M446.401 359.132L439.185 361.236M446.401 359.132L452.011 363.588L457.622 368.044C457.571 369.347 457.143 371.614 455.989 373.83M444.467 376.124L451.976 378.331C453.829 377.152 455.117 375.505 455.989 373.83M444.467 376.124L439.185 361.236M444.467 376.124L447.989 386.853M455.989 373.83L463.867 376.204C464.824 378.694 465.31 384.736 459.596 388.975L447.989 386.853M447.989 386.853L449.213 388.949C448.572 391.021 445.898 394.914 440.328 393.911L432.614 381.868M429.091 376.368L411.945 369.941M429.091 376.368L432.614 381.868M411.945 369.941C412.243 367.131 414.198 361.121 419.625 359.563M411.945 369.941L404.033 380.743M419.625 359.563C418.125 359.94 416.143 360.778 414.038 362.186M419.625 359.563C415.961 356.556 406.819 350.916 399.568 352.405M401.738 383.876L404.033 380.743M401.738 383.876C399.206 384.115 390.076 375.524 385.827 371.199M401.738 383.876C402.249 379.731 403.32 376.208 404.719 373.237M404.033 380.743C406.768 382.691 411.658 385.913 416.8 388.758M434.628 389.119L428.353 393.935C424.947 392.954 420.797 390.97 416.8 388.758M434.628 389.119L432.614 381.868M434.628 389.119L439.589 413.891C437.789 416.575 433.36 421.618 430.043 420.322C427.249 416.241 423.176 409.642 420.214 403.351M416.8 388.758L412.465 404.484C410.442 405.827 407.256 407.319 404.724 407.061M416.8 388.758C415.625 391.781 417.427 397.43 420.214 403.351M404.724 407.061C402.688 406.855 401.075 405.517 400.83 402.062L394.803 386.542C393.443 388.245 388.668 392.611 380.452 396.443L361.824 404.536C359.374 404.365 354.933 402.833 356.765 398.075L363.862 387.45M404.724 407.061L410.353 417.153C412.513 418.289 417.584 418.843 420.586 411.964L420.214 403.351M363.862 387.45L373.321 388.569C375.056 383.578 379.985 373.118 385.827 371.199M363.862 387.45L359.603 387.047C358.15 385.743 355.374 382.6 355.902 380.458L364.055 372.566M385.827 371.199L383.519 369.707M383.519 369.707C383.686 367.848 385.252 363.892 390.182 362.944M383.519 369.707L375.239 361.74M390.182 362.944L404.719 373.237M390.182 362.944C390.989 359.818 393.998 353.333 399.568 352.405M390.182 362.944C386.614 361.806 378.458 358.138 374.374 352.57M404.719 373.237C407.223 367.917 410.777 364.368 414.038 362.186M399.568 352.405C405.434 354.321 416.541 358.961 414.038 362.186M399.568 352.405C394.782 348.03 383.885 339.968 378.578 342.721C373.271 345.474 373.564 350.434 374.374 352.57M375.239 361.74C374.247 357.677 370.811 349.145 365 347.522M375.239 361.74L364.055 372.566M365 347.522C358.488 347.171 355.873 351.936 355.38 354.362L364.055 372.566M365 347.522C367.683 347.268 372.367 350.782 374.374 352.57M365 347.522L359.821 336.144C361.115 333.743 366.074 329.4 375.556 331.241L385.108 338.183M385.108 338.183L390.292 329.046C391.356 327.739 395.232 325.563 402.22 327.317M385.108 338.183C390.123 342.168 400.626 350.093 402.519 349.914C404.412 349.736 407.013 346.339 408.077 344.664M402.22 327.317L412.681 314.866C413.434 314.848 414.399 314.884 415.422 315.007M402.22 327.317C407.104 329.752 407.3 335.62 406.788 338.249M415.422 315.007L406.788 338.249M406.788 338.249L408.077 344.664" stroke="#3B3166" stroke-width="2"/>
<path d="M288.293 324.709L312.23 335.549L311.937 313.654C312.58 310.296 316.612 308.843 320.077 308.33C321.325 308.145 322.499 308.081 323.416 308.095L335.959 325.056C344.49 322.54 349.174 325.473 350.45 327.254L356.622 339.739L368.351 330.051C379.917 327.378 385.888 333.275 387.427 336.557L380.953 352.278C388.883 351.697 391.994 358.21 392.559 361.539L381.728 386.698L391.531 397.426C392.142 400.363 388.717 404.726 386.928 406.541L381.739 407.159L390.216 421.661C392.375 428.176 386.948 430.348 383.964 430.62L361.415 419.773C351.473 414.627 345.728 408.696 344.098 406.374L336.531 427.804C336.181 432.558 334.198 434.421 331.717 434.736L324.716 448.695C322.069 450.29 315.889 451.128 312.34 441.714L312.921 429.866C309.223 438.561 304.167 447.694 300.705 453.348L298.304 492.464L289.184 444.649L295.592 410.515L298.153 400.515L288.585 417.189C281.791 418.651 278.595 413.339 277.845 410.501L279.367 407.6L265.209 410.692C258.319 404.949 259.001 396.635 260.204 393.196L269.826 389.814C268.455 386.784 267.968 383.675 267.926 381.884L274.821 375.673L281.716 369.463L273.773 366.935C268.97 355.52 276.014 351.507 280.136 350.928L292.587 349.75L280.115 337.916C279.211 329.859 285.19 325.754 288.293 324.709Z" fill="#DF85AB"/>
<path d="M312.23 335.549L288.293 324.709C285.19 325.754 279.211 329.859 280.115 337.916L292.587 349.75M312.23 335.549L316.485 337.473M312.23 335.549L311.937 313.654C312.58 310.296 316.612 308.843 320.077 308.33M312.23 335.549C317.874 327.889 326.586 335.428 330.237 340.156M292.587 349.75L303.396 348.348M292.587 349.75L280.136 350.928C276.014 351.507 268.97 355.52 273.773 366.935L281.716 369.463M311.117 347.347L316.485 337.473M311.117 347.347L303.396 348.348M311.117 347.347L324.604 346.959M316.485 337.473C313.589 337.8 306.916 340.432 303.396 348.348M310.255 378.544C306.891 374.029 305.051 361.389 324.604 346.959M310.255 378.544L290.466 372.247M310.255 378.544L302.523 392.9M310.255 378.544L314.294 369.653M324.604 346.959L314.294 369.653M324.604 346.959L328.572 348.994M281.716 369.463L290.466 372.247M281.716 369.463L274.821 375.673L267.926 381.884C267.968 383.675 268.455 386.784 269.826 389.814M283.814 392.795L274.643 395.943C272.405 394.349 270.863 392.105 269.826 389.814M283.814 392.795L290.466 372.247M283.814 392.795L279.367 407.6M269.826 389.814L260.204 393.196C259.001 396.635 258.319 404.949 265.209 410.692L279.367 407.6M279.367 407.6L277.845 410.501C278.595 413.339 281.791 418.651 288.585 417.189L298.153 400.515M302.523 392.9L323.486 383.807M302.523 392.9L298.153 400.515M323.486 383.807C323.164 379.947 320.876 371.713 314.294 369.653M323.486 383.807L332.953 398.54M314.294 369.653C316.114 370.149 318.514 371.271 321.054 373.176M314.294 369.653C318.799 365.464 330.009 357.572 338.811 359.511M335.698 402.813L332.953 398.54M335.698 402.813C338.777 403.104 350.016 391.155 355.252 385.144M335.698 402.813C335.139 397.122 333.888 392.294 332.23 388.23M332.953 398.54C329.595 401.26 323.595 405.762 317.295 409.751M295.592 410.515L303.158 417.042C307.317 415.642 312.397 412.852 317.295 409.751M295.592 410.515L298.153 400.515M295.592 410.515L289.184 444.649M289.184 444.649C291.335 448.312 296.649 455.18 300.705 453.348M289.184 444.649L298.304 492.464L300.705 453.348M300.705 453.348C304.167 447.694 309.223 438.561 312.921 429.866M317.295 409.751L322.334 431.308C324.776 433.124 328.632 435.127 331.717 434.736M317.295 409.751C318.68 413.89 316.402 421.684 312.921 429.866M331.717 434.736C334.198 434.421 336.181 432.558 336.531 427.804L344.098 406.374C345.728 408.696 351.473 414.627 361.415 419.773L383.964 430.62C386.948 430.348 392.375 428.176 390.216 421.661L381.739 407.159M331.717 434.736L324.716 448.695C322.069 450.29 315.889 451.128 312.34 441.714L312.921 429.866M381.739 407.159L370.211 408.839C368.175 402.003 362.332 387.695 355.252 385.144M381.739 407.159L386.928 406.541C388.717 404.726 392.142 400.363 391.531 397.426L381.728 386.698M355.252 385.144L358.083 383.059M358.083 383.059C357.908 380.505 356.061 375.09 350.076 373.86M358.083 383.059L368.279 371.98M350.076 373.86L332.23 388.23M350.076 373.86C349.14 369.574 345.576 360.703 338.811 359.511M350.076 373.86C354.435 372.242 364.415 367.076 369.469 359.359M332.23 388.23C329.262 380.953 324.99 376.126 321.054 373.176M338.811 359.511C331.643 362.234 318.056 368.779 321.054 373.176M338.811 359.511C344.701 353.423 358.084 342.175 364.501 345.881C370.918 349.587 370.487 356.411 369.469 359.359M368.279 371.98C369.547 366.379 373.856 354.597 380.953 352.278M368.279 371.98L381.728 386.698M380.953 352.278C388.883 351.697 391.994 358.21 392.558 361.539L381.728 386.698M380.953 352.278C377.692 351.97 371.938 356.871 369.469 359.359M380.953 352.278L387.427 336.557C385.888 333.275 379.917 327.378 368.351 330.051L356.622 339.739M356.622 339.739L350.45 327.254C349.174 325.473 344.49 322.54 335.959 325.056M356.622 339.739C350.459 345.294 337.559 356.347 335.258 356.13C332.957 355.913 329.841 351.283 328.572 348.994M335.959 325.056L323.416 308.095C322.499 308.081 321.325 308.145 320.077 308.33M335.959 325.056C329.979 328.478 329.653 336.548 330.237 340.156M320.077 308.33L330.237 340.156M330.237 340.156L328.572 348.994" stroke="#3B3166" stroke-width="2"/>
<path d="M367.534 392.03L355.287 397.576L355.436 386.374C355.107 384.655 353.044 383.912 351.271 383.649C350.633 383.555 350.032 383.522 349.563 383.529L343.146 392.207C338.781 390.919 336.384 392.42 335.732 393.331L332.574 399.719L326.573 394.762C320.655 393.394 317.6 396.411 316.813 398.091L320.126 406.134C316.068 405.837 314.476 409.169 314.188 410.872L319.729 423.744L314.714 429.233C314.401 430.736 316.154 432.968 317.069 433.897L319.724 434.213L315.387 441.632C314.282 444.966 317.059 446.077 318.586 446.217L330.123 440.667C335.209 438.034 338.149 435 338.983 433.812L342.855 444.776C343.034 447.209 344.048 448.162 345.318 448.323L348.9 455.465C350.254 456.281 353.416 456.71 355.232 451.893C357.307 452.831 365.979 455.27 367.079 453.395L363.8 435.931L362.49 430.815L367.386 439.346C370.862 440.094 372.497 437.377 372.88 435.924L372.102 434.44L379.345 436.022C382.871 433.084 382.522 428.83 381.906 427.071L376.983 425.34C377.685 423.79 377.934 422.199 377.955 421.283L374.427 418.105L370.9 414.928L374.963 413.634C377.42 407.794 373.817 405.741 371.708 405.444L365.337 404.842L371.718 398.787C372.181 394.665 369.121 392.565 367.534 392.03Z" fill="#EAC009"/>
<path d="M355.287 397.576L367.534 392.03C369.121 392.565 372.181 394.665 371.718 398.787L365.337 404.842M355.287 397.576L353.109 398.56M355.287 397.576L355.436 386.374C355.107 384.655 353.044 383.912 351.271 383.649M355.287 397.576C352.399 393.656 347.941 397.514 346.074 399.932M365.337 404.842L359.806 404.124M365.337 404.842L371.708 405.444C373.817 405.741 377.42 407.794 374.963 413.634L370.9 414.928M355.856 403.612L353.109 398.56M355.856 403.612L359.806 404.124M355.856 403.612L348.956 403.413M353.109 398.56C354.591 398.727 358.005 400.074 359.806 404.124M356.298 419.574C358.019 417.263 358.96 410.797 348.956 403.413M356.298 419.574L366.423 416.352M356.298 419.574L360.254 426.919M356.298 419.574L354.231 415.024M348.956 403.413L354.231 415.024M348.956 403.413L346.926 404.455M370.9 414.928L366.423 416.352M370.9 414.928L374.427 418.105L377.955 421.283C377.934 422.199 377.685 423.79 376.983 425.34M369.826 426.865L374.519 428.476C375.664 427.661 376.453 426.512 376.983 425.34M369.826 426.865L366.423 416.352M369.826 426.865L372.102 434.44M376.983 425.34L381.906 427.071C382.522 428.83 382.871 433.084 379.345 436.022L372.102 434.44M372.102 434.44L372.88 435.924C372.497 437.377 370.862 440.094 367.386 439.346L362.49 430.815M360.254 426.919L349.528 422.266M360.254 426.919L362.49 430.815M349.528 422.266C349.693 420.291 350.864 416.078 354.231 415.024M349.528 422.266L344.685 429.804M354.231 415.024C353.3 415.278 352.072 415.853 350.772 416.827M354.231 415.024C351.926 412.881 346.191 408.843 341.687 409.835M343.28 431.99L344.685 429.804M343.28 431.99C341.705 432.139 335.954 426.025 333.276 422.95M343.28 431.99C343.566 429.078 344.206 426.608 345.054 424.529M344.685 429.804C346.403 431.196 349.473 433.499 352.696 435.54M363.8 435.931L359.929 439.271C357.801 438.554 355.202 437.127 352.696 435.54M363.8 435.931L362.49 430.815M363.8 435.931L367.079 453.395C365.979 455.27 357.307 452.831 355.232 451.893M355.232 451.893C353.416 456.71 350.254 456.281 348.9 455.465L345.318 448.323M355.232 451.893C353.46 449 356.827 450.28 354.934 445.832M355.232 451.893L354.934 445.832M352.696 435.54L350.118 446.569C348.869 447.498 346.896 448.523 345.318 448.323M352.696 435.54C351.988 437.658 353.153 441.645 354.934 445.832M345.318 448.323C344.048 448.162 343.034 447.209 342.855 444.776L338.983 433.812C338.149 435 335.209 438.034 330.123 440.667L318.586 446.217C317.059 446.077 314.282 444.966 315.387 441.632L319.724 434.213M319.724 434.213L325.622 435.073C326.664 431.575 329.653 424.255 333.276 422.95M319.724 434.213L317.069 433.897C316.154 432.968 314.401 430.736 314.714 429.233L319.729 423.744M333.276 422.95L331.827 421.883M331.827 421.883C331.917 420.576 332.861 417.805 335.924 417.177M331.827 421.883L326.61 416.214M335.924 417.177L345.054 424.529M335.924 417.177C336.403 414.984 338.226 410.445 341.687 409.835M335.924 417.177C333.694 416.349 328.587 413.705 326.001 409.757M345.054 424.529C346.573 420.806 348.758 418.336 350.772 416.827M341.687 409.835C345.354 411.228 352.306 414.577 350.772 416.827M341.687 409.835C338.674 406.72 331.826 400.965 328.543 402.861C325.26 404.757 325.48 408.249 326.001 409.757M326.61 416.214C325.961 413.349 323.756 407.321 320.126 406.134M326.61 416.214L319.729 423.744M320.126 406.134C316.068 405.837 314.476 409.169 314.188 410.872L319.729 423.744M320.126 406.134C321.794 405.976 324.738 408.484 326.001 409.757M320.126 406.134L316.813 398.091C317.6 396.411 320.655 393.394 326.573 394.762L332.574 399.719M332.574 399.719L335.732 393.331C336.384 392.42 338.781 390.919 343.146 392.207M332.574 399.719C335.727 402.561 342.328 408.217 343.505 408.106C344.682 407.994 346.276 405.625 346.926 404.455M343.146 392.207L349.563 383.529C350.032 383.522 350.633 383.555 351.271 383.649M343.146 392.207C346.205 393.958 346.372 398.087 346.074 399.932M351.271 383.649L346.074 399.932M346.074 399.932L346.926 404.455" stroke="#3B3166" stroke-width="2"/>
<path d="M416.478 386.496L401.639 392.827L401.909 380.236C401.525 378.308 399.039 377.489 396.899 377.208C396.129 377.107 395.403 377.075 394.837 377.086L387.014 386.891C381.751 385.479 378.844 387.185 378.048 388.214L374.182 395.418L366.972 389.895C359.834 388.406 356.119 391.821 355.154 393.714L359.092 402.727C354.192 402.426 352.243 406.183 351.88 408.1L358.472 422.522L352.369 428.731C351.979 430.422 354.079 432.917 355.177 433.954L358.382 434.287L353.082 442.661C351.721 446.416 355.067 447.643 356.911 447.787L370.893 441.457C377.059 438.458 380.634 435.024 381.651 433.682L386.241 445.974C386.438 448.706 387.656 449.769 389.188 449.94L393.459 457.938C395.088 458.844 398.904 459.301 401.137 453.873L400.826 447.063C403.076 452.047 405.287 467.102 407.404 470.34C409.903 471.376 413.597 448.089 414.941 445.974L411.616 435.865L410.074 430.125L415.92 439.674C420.113 440.487 422.111 437.42 422.586 435.784L421.657 434.122L430.395 435.843C434.678 432.512 434.29 427.734 433.561 425.762L427.627 423.856C428.487 422.109 428.801 420.319 428.834 419.289L424.598 415.746L420.361 412.203L425.281 410.717C428.296 404.134 423.959 401.855 421.413 401.539L413.722 400.912L421.479 394.057C422.071 389.42 418.392 387.085 416.478 386.496Z" fill="#7DBAB2"/>
<path d="M401.639 392.827L416.478 386.496C418.392 387.085 422.071 389.42 421.479 394.057L413.722 400.912M401.639 392.827L399 393.951M401.639 392.827L401.909 380.236C401.525 378.308 399.039 377.489 396.899 377.208M401.639 392.827C398.181 388.446 392.765 392.816 390.489 395.55M413.722 400.912L407.046 400.151M413.722 400.912L421.413 401.539C423.959 401.855 428.296 404.134 425.281 410.717L420.361 412.203M402.278 399.606L399 393.951M402.278 399.606L407.046 400.151M402.278 399.606L393.944 399.439M399 393.951C400.789 394.127 404.903 395.613 407.046 400.151M402.684 417.542C404.781 414.931 405.97 407.656 393.944 399.439M402.684 417.542L414.941 413.84M402.684 417.542L407.404 425.765M402.684 417.542L400.223 412.445M393.944 399.439L400.223 412.445M393.944 399.439L391.483 400.625M420.361 412.203L414.941 413.84M420.361 412.203L424.598 415.746L428.834 419.289C428.801 420.319 428.487 422.109 427.627 423.856M418.969 425.628L424.625 427.4C426.015 426.475 426.977 425.178 427.627 423.856M418.969 425.628L414.941 413.84M418.969 425.628L421.657 434.122M427.627 423.856L433.561 425.762C434.29 427.734 434.678 432.512 430.395 435.843L421.657 434.122M421.657 434.122L422.586 435.784C422.111 437.42 420.113 440.487 415.92 439.674L410.074 430.125M407.404 425.765L394.484 420.622M407.404 425.765L410.074 430.125M394.484 420.622C394.698 418.401 396.147 413.657 400.223 412.445M394.484 420.622L388.572 429.132M400.223 412.445C399.096 412.738 397.608 413.393 396.03 414.499M400.223 412.445C397.456 410.056 390.559 405.563 385.11 406.714M386.858 431.6L388.572 429.132M386.858 431.6C384.954 431.78 378.055 424.955 374.844 421.521M386.858 431.6C387.227 428.325 388.02 425.544 389.061 423.201M388.572 429.132C390.637 430.682 394.327 433.247 398.204 435.514M411.616 435.865L406.913 439.649C404.348 438.861 401.219 437.278 398.204 435.514M411.616 435.865L410.074 430.125M411.616 435.865L414.941 445.974C413.597 448.089 409.903 471.376 407.404 470.34C405.287 467.102 403.076 452.047 400.826 447.063M398.204 435.514L395.002 447.93C393.485 448.985 391.094 450.152 389.188 449.94M398.204 435.514C397.332 437.9 398.708 442.372 400.826 447.063M389.188 449.94C387.656 449.769 386.438 448.706 386.241 445.974L381.651 433.682C380.634 435.024 377.059 438.458 370.893 441.457L356.911 447.787C355.067 447.643 351.721 446.416 353.082 442.661L358.382 434.287M389.188 449.94L393.459 457.938C395.088 458.844 398.904 459.301 401.137 453.873L400.826 447.063M358.382 434.287L365.501 435.206C366.787 431.267 370.457 423.016 374.844 421.521M358.382 434.287L355.177 433.954C354.079 432.917 351.979 430.422 352.369 428.731L358.472 422.522M374.844 421.521L373.102 420.333M373.102 420.333C373.221 418.864 374.384 415.742 378.089 415.011M373.102 420.333L366.845 414.004M378.089 415.011L389.061 423.201M378.089 415.011C378.685 412.542 380.924 407.427 385.11 406.714M378.089 415.011C375.401 414.098 369.253 411.169 366.161 406.752M389.061 423.201C390.925 419.004 393.585 416.211 396.03 414.499M385.11 406.714C389.53 408.25 397.901 411.958 396.03 414.499M385.11 406.714C381.495 403.238 373.269 396.824 369.287 398.982C365.306 401.139 365.544 405.061 366.161 406.752M366.845 414.004C366.084 410.789 363.469 404.032 359.092 402.727M366.845 414.004L358.472 422.522M359.092 402.727C354.192 402.426 352.243 406.183 351.88 408.1L358.472 422.522M359.092 402.727C361.109 402.537 364.645 405.331 366.161 406.752M359.092 402.727L355.154 393.714C356.119 391.821 359.834 388.406 366.972 389.895L374.182 395.418M374.182 395.418L378.048 388.214C378.844 387.185 381.751 385.479 387.014 386.891M374.182 395.418C377.969 398.587 385.898 404.89 387.321 404.756C388.744 404.621 390.688 401.946 391.483 400.625M387.014 386.891L394.837 377.086C395.403 377.075 396.129 377.107 396.899 377.208M387.014 386.891C390.696 388.834 390.865 393.473 390.489 395.55M396.899 377.208L390.489 395.55M390.489 395.55L391.483 400.625" stroke="#3B3166" stroke-width="2"/>
</svg>
