<svg width="437" height="507" viewBox="0 0 437 507" fill="none" xmlns="http://www.w3.org/2000/svg">
<g clip-path="url(#clip0_71_759)">
<path d="M348.584 432.511C373.414 415.483 411.831 408.704 381.939 459.901C371.663 477.499 339.953 492.029 325.072 472.087C320.597 466.09 325.583 449.772 348.584 432.511Z" fill="#8EBCDD"/>
<path d="M2.79668 195.479C3.41723 190.124 9.06094 178.987 26.6714 177.275C44.2818 175.562 37.3082 205.534 26.21 212.784C15.0535 218.52 -2.28427 224.431 2.79668 195.479Z" fill="#8EBCDD"/>
<path fill-rule="evenodd" clip-rule="evenodd" d="M126.624 30.5722C59.0673 53.5423 45.721 112.235 47.4924 138.711C53.3411 186.901 41.2502 217.365 34.4737 226.573C20.1977 249.871 -2.25635 301.238 22.1353 320.325C46.5269 339.413 70.9853 403.849 80.1656 433.681C135.91 549.126 241.746 498.33 287.696 458.501C387.12 402.642 420.307 321.015 409.67 292.756C455.627 304.648 432.819 231.807 400.553 268.533C386.8 251.587 391.325 154.22 395.307 107.656C397.098 30.7792 344.923 7.81009 318.611 5.93507C305.313 3.25875 271.618 0.270845 243.222 9.72983C214.827 19.1888 153.659 27.566 126.624 30.5722ZM84.2484 195.547C105.865 165.902 157.301 125.954 190.112 203.327C173.139 223.542 128.205 250.288 84.2484 195.547ZM251.537 203.252C273.998 175.849 327.794 138.906 363.289 210.351C342.671 230.403 291.454 257.055 251.537 203.252ZM208.535 268.601C231.374 274.855 272.195 279.36 252.769 247.342C233.343 215.324 200.348 225.08 186.279 233.96C172.779 249.796 158.33 278.894 208.535 268.601ZM217.962 304.997C182.287 282.782 149.149 291.786 137.04 299.065C122.696 323.252 150.239 350.46 223.776 345.827C329.412 339.17 319.378 298.063 299.263 285.15C279.395 277.265 233.279 295.647 217.962 304.997Z" fill="#8EBCDD"/>
<path d="M107.979 197.369C123.394 187.982 144.807 175.211 167.046 195.109M280.318 206.246C295.733 196.859 318.666 188.125 340.904 208.023M199.163 255.053C195.062 258.806 194.165 259.812 186.884 256.544M228.322 255.797C231.325 260.475 231.934 261.677 239.809 260.383M218.335 37.5314C385.618 32.9507 485.398 428.64 200.643 431.349C-15.1212 405.02 40.3194 58.4493 218.339 37.53M160.453 308.208C177.803 321.649 241.27 339.242 280.771 301.328M47.4924 138.711C45.721 112.235 59.0673 53.5423 126.624 30.5722C153.659 27.566 214.827 19.1888 243.222 9.72983C271.618 0.270845 305.313 3.25875 318.611 5.93507C344.923 7.81009 397.098 30.7792 395.307 107.656C391.325 154.22 386.8 251.587 400.553 268.533C432.819 231.807 455.627 304.648 409.67 292.756C420.307 321.015 387.12 402.642 287.696 458.501C241.746 498.33 135.91 549.126 80.1656 433.681C70.9853 403.849 46.5269 339.413 22.1353 320.325C-2.25635 301.238 20.1977 249.871 34.4737 226.573C41.2502 217.365 53.3411 186.901 47.4924 138.711ZM348.584 432.511C373.414 415.483 411.831 408.704 381.939 459.901C371.663 477.499 339.953 492.029 325.072 472.087C320.597 466.09 325.583 449.772 348.584 432.511ZM2.79668 195.479C3.41723 190.124 9.06094 178.987 26.6714 177.275C44.2818 175.562 37.3082 205.534 26.21 212.784C15.0535 218.52 -2.28427 224.431 2.79668 195.479ZM84.2484 195.547C105.865 165.902 157.301 125.954 190.112 203.327C173.139 223.542 128.205 250.288 84.2484 195.547ZM251.537 203.252C273.998 175.849 327.794 138.906 363.289 210.351C342.671 230.403 291.454 257.055 251.537 203.252ZM208.535 268.601C231.374 274.855 272.195 279.36 252.769 247.342C233.343 215.324 200.348 225.08 186.279 233.96C172.779 249.796 158.33 278.894 208.535 268.601ZM137.04 299.065C149.149 291.786 182.287 282.782 217.962 304.997C233.279 295.647 279.395 277.265 299.263 285.15C319.378 298.063 329.412 339.17 223.776 345.827C150.239 350.46 122.696 323.252 137.04 299.065Z" stroke="#3B3166" stroke-width="1.85638"/>
</g>
<defs>
<clipPath id="clip0_71_759">
<rect width="437" height="507" fill="white"/>
</clipPath>
</defs>
</svg>
