<svg width="28" height="93" viewBox="0 0 28 93" fill="none" xmlns="http://www.w3.org/2000/svg">
<path d="M26.3421 23.2927C13.8587 21.7345 4.27116 22.6435 1.03784 23.2927V53.2845C4.27116 52.6353 13.8587 51.7264 26.3421 53.2845V23.2927Z" fill="#8EBCDD"/>
<path d="M1.03784 92.1398C4.27116 92.7891 13.8587 93.698 26.3421 92.1398V81.7215C13.8587 83.2796 4.27116 82.3707 1.03784 81.7215V92.1398Z" fill="#8EBCDD"/>
<path d="M1.03784 23.2927C4.27116 22.6435 13.8587 21.7345 26.3421 23.2927V2.64674C16.6421 0.622616 2.0219 2.02269 1.03784 2.64674V23.2927Z" fill="#CEB4E2"/>
<path d="M26.3421 81.7215V53.2845C13.8587 51.7264 4.27116 52.6353 1.03784 53.2845V81.7215C4.27116 82.3707 13.8587 83.2796 26.3421 81.7215Z" fill="#8EBCDD"/>
<path d="M1.03784 23.2927C4.27116 22.6435 13.8587 21.7345 26.3421 23.2927M1.03784 23.2927V2.64674C2.0219 2.02269 16.6421 0.622616 26.3421 2.64674V23.2927M1.03784 23.2927V53.2845M26.3421 23.2927V53.2845M26.3421 81.7215V92.1398C13.8587 93.698 4.27116 92.7891 1.03784 92.1398V81.7215M26.3421 81.7215V53.2845M26.3421 81.7215C13.8587 83.2796 4.27116 82.3707 1.03784 81.7215M26.3421 53.2845C13.8587 51.7264 4.27116 52.6353 1.03784 53.2845M1.03784 81.7215V53.2845" stroke="#3B3166" stroke-width="2" stroke-linecap="square" stroke-linejoin="round"/>
</svg>
