<svg width="201" height="201" viewBox="0 0 201 201" fill="none" xmlns="http://www.w3.org/2000/svg">
<rect x="1.60059" y="1.00098" width="198.312" height="198.312" rx="26.5539" fill="#8EBCDD" stroke="#3B3166" stroke-width="2"/>
<mask id="mask0_67_424" style="mask-type:alpha" maskUnits="userSpaceOnUse" x="0" y="0" width="201" height="201">
<rect x="0.599854" width="200.312" height="200.312" rx="27.5539" fill="white"/>
</mask>
<g mask="url(#mask0_67_424)">
<path d="M-61.8289 266.947L-36.7279 260.672V76.5982L-61.8289 70.323V64.0477H132.704V137.259H120.153C114.854 132.518 110.252 127.079 106.348 120.943C97.423 105.883 92.9606 90.4038 92.9606 74.5065H30.2081V260.672L55.3091 266.947V273.223H-61.8289V266.947Z" fill="#FAF4FF"/>
<path d="M-61.8289 266.947L-62.0714 265.977L-62.8289 266.167V266.947H-61.8289ZM-36.7279 260.672L-36.4853 261.642L-35.7279 261.453V260.672H-36.7279ZM-36.7279 76.5982H-35.7279V75.8174L-36.4853 75.6281L-36.7279 76.5982ZM-61.8289 70.323H-62.8289V71.1037L-62.0714 71.2931L-61.8289 70.323ZM-61.8289 64.0477V63.0477H-62.8289V64.0477H-61.8289ZM132.704 64.0477H133.704V63.0477H132.704V64.0477ZM132.704 137.259V138.259H133.704V137.259H132.704ZM120.153 137.259L119.487 138.004L119.771 138.259H120.153V137.259ZM106.348 120.943L105.488 121.453L105.496 121.467L105.504 121.48L106.348 120.943ZM92.9606 74.5065H93.9606V73.5065H92.9606V74.5065ZM30.2081 74.5065V73.5065H29.2081V74.5065H30.2081ZM30.2081 260.672H29.2081V261.453L29.9656 261.642L30.2081 260.672ZM55.3091 266.947H56.3091V266.167L55.5516 265.977L55.3091 266.947ZM55.3091 273.223V274.223H56.3091V273.223H55.3091ZM-61.8289 273.223H-62.8289V274.223H-61.8289V273.223ZM-61.5863 267.918L-36.4853 261.642L-36.9704 259.702L-62.0714 265.977L-61.5863 267.918ZM-35.7279 260.672V76.5982H-37.7279V260.672H-35.7279ZM-36.4853 75.6281L-61.5863 69.3528L-62.0714 71.2931L-36.9704 77.5683L-36.4853 75.6281ZM-60.8289 70.323V64.0477H-62.8289V70.323H-60.8289ZM-61.8289 65.0477H132.704V63.0477H-61.8289V65.0477ZM131.704 64.0477V137.259H133.704V64.0477H131.704ZM132.704 136.259H120.153V138.259H132.704V136.259ZM120.82 136.514C115.591 131.835 111.048 126.467 107.191 120.406L105.504 121.48C109.457 127.691 114.118 133.2 119.487 138.004L120.82 136.514ZM107.208 120.433C98.3652 105.511 93.9606 90.2066 93.9606 74.5065H91.9606C91.9606 90.6009 96.4808 106.254 105.488 121.453L107.208 120.433ZM92.9606 73.5065H30.2081V75.5065H92.9606V73.5065ZM29.2081 74.5065V260.672H31.2081V74.5065H29.2081ZM29.9656 261.642L55.0666 267.918L55.5516 265.977L30.4506 259.702L29.9656 261.642ZM54.3091 266.947V273.223H56.3091V266.947H54.3091ZM55.3091 272.223H-61.8289V274.223H55.3091V272.223ZM-60.8289 273.223V266.947H-62.8289V273.223H-60.8289Z" fill="#3B3166"/>
</g>
<rect x="1.60059" y="1.00098" width="198.312" height="198.312" rx="26.5539" stroke="#3B3166" stroke-width="2"/>
</svg>
