<svg width="28" height="91" viewBox="0 0 28 91" fill="none" xmlns="http://www.w3.org/2000/svg">
<path d="M26.7115 22.7996C14.4289 21.2692 4.99574 22.162 1.81445 22.7996V52.2571C4.99574 51.6194 14.4289 50.7267 26.7115 52.2571V22.7996Z" fill="#8EBCDD"/>
<path d="M1.81445 90.4201C4.99574 91.0578 14.4289 91.9506 26.7115 90.4201V80.1874C14.4289 81.7178 4.99574 80.8251 1.81445 80.1874V90.4201Z" fill="#8EBCDD"/>
<path d="M1.81445 22.7996C4.99574 22.162 14.4289 21.2692 26.7115 22.7996V2.5215C17.1676 0.533438 2.78267 1.90857 1.81445 2.5215V22.7996Z" fill="#CEB4E2"/>
<path d="M26.7115 80.1874V52.2571C14.4289 50.7267 4.99574 51.6194 1.81445 52.2571V80.1874C4.99574 80.8251 14.4289 81.7178 26.7115 80.1874Z" fill="#8EBCDD"/>
<path d="M1.81445 22.7996C4.99574 22.162 14.4289 21.2692 26.7115 22.7996M1.81445 22.7996V2.5215C2.78267 1.90857 17.1676 0.533438 26.7115 2.5215V22.7996M1.81445 22.7996V52.2571M26.7115 22.7996V52.2571M26.7115 80.1874V90.4201C14.4289 91.9506 4.99574 91.0578 1.81445 90.4201V80.1874M26.7115 80.1874V52.2571M26.7115 80.1874C14.4289 81.7178 4.99574 80.8251 1.81445 80.1874M26.7115 52.2571C14.4289 50.7267 4.99574 51.6195 1.81445 52.2571M1.81445 80.1874V52.2571" stroke="#3B3166" stroke-width="2" stroke-linecap="square" stroke-linejoin="round"/>
</svg>
