<svg width="651" height="599" viewBox="0 0 651 599" fill="none" xmlns="http://www.w3.org/2000/svg">
<path d="M377.013 486.987L376.703 500.833L24.7813 345.193L25.0707 332.295L53.313 344.709L377.013 486.987Z" fill="#FAF4FF"/>
<path d="M376.703 500.833L376.392 514.673L24.4707 359.033L24.7813 345.193L376.703 500.833Z" fill="#FAF4FF"/>
<path d="M376.392 514.673L376.092 528.052L24.1705 372.412L24.4707 359.033L376.392 514.673Z" fill="#FAF4FF"/>
<path d="M588.265 389.746L587.954 403.586L376.392 514.673L376.703 500.833L588.265 389.746Z" fill="#FAF4FF"/>
<path d="M587.954 403.586L587.654 416.965L376.092 528.052L376.392 514.673L587.954 403.586Z" fill="#FAF4FF"/>
<path d="M377.013 486.987L563.88 390.104L588.544 377.316L588.265 389.746L376.703 500.833L377.013 486.987Z" fill="#FAF4FF"/>
<path d="M563.88 390.104L377.013 486.987L53.313 344.709L86.4065 327.551L162.405 288.149L238.403 248.747L437.287 335.087L526.018 373.608L563.88 390.104Z" fill="#CEB4E2"/>
<path d="M25.0707 332.295L236.602 222.624L238.403 248.747L162.405 288.149L86.4065 327.551L53.313 344.709L25.0707 332.295Z" fill="#3B3166"/>
<path d="M588.544 377.316L563.88 390.104L526.018 373.608L437.287 335.087L238.403 248.747L236.602 222.624L412.573 299.97L588.544 377.316Z" fill="#3B3166"/>
<path d="M377.013 486.987L588.544 377.316M377.013 486.987L376.092 528.052M377.013 486.987L25.0707 332.295M377.013 486.987L563.88 390.104M377.013 486.987L53.313 344.709M377.013 486.987L376.703 500.833M588.544 377.316L587.654 416.965M588.544 377.316L563.88 390.104M588.544 377.316L588.265 389.746M588.544 377.316L412.573 299.97L236.602 222.624M587.654 416.965L376.092 528.052M587.654 416.965L587.954 403.586M376.092 528.052L24.1705 372.412M376.092 528.052L376.392 514.673M25.0707 332.295L236.602 222.624M25.0707 332.295L24.1705 372.412M25.0707 332.295L53.313 344.709M25.0707 332.295L24.7813 345.193M236.602 222.624L238.403 248.747M24.1705 372.412L24.4707 359.033M53.313 344.709L86.4065 327.551L162.405 288.149L238.403 248.747M563.88 390.104L526.018 373.608L437.287 335.087L238.403 248.747M376.703 500.833L24.7813 345.193M376.703 500.833L588.265 389.746M376.703 500.833L376.392 514.673M24.7813 345.193L24.4707 359.033M376.392 514.673L24.4707 359.033M376.392 514.673L587.954 403.586M588.265 389.746L587.954 403.586" stroke="#3B3166" stroke-width="2"/>
<path d="M149.8 341.938L152.426 339.566L111.152 319.87L106.592 321.319L105.625 320.857L137.659 303.825L149.267 309.364L147.471 310.319C146.067 310.415 144.592 310.375 143.044 310.2C139.445 309.772 136.291 308.911 133.583 307.619L120.709 314.463L162.305 334.313L166.865 332.865L167.833 333.326L150.768 342.4L149.8 341.938ZM198.755 317.861C193.805 320.493 188.408 321.844 182.565 321.915C176.718 321.944 171.129 320.686 165.798 318.142C160.466 315.598 157.693 312.865 157.478 309.943C157.26 306.98 159.625 304.182 164.575 301.55C169.525 298.918 174.923 297.588 180.77 297.559C186.614 297.488 192.201 298.725 197.532 301.269C202.864 303.813 205.638 306.567 205.857 309.53C206.072 312.452 203.705 315.229 198.755 317.861ZM197.465 317.245C199.062 316.397 199.195 315.111 197.865 313.389C196.576 311.646 193.071 309.41 187.353 306.681C181.635 303.952 177.014 302.311 173.488 301.756C170.003 301.18 167.462 301.317 165.865 302.166C164.268 303.015 164.115 304.311 165.405 306.054C166.735 307.776 170.259 310.001 175.977 312.73C181.695 315.459 186.297 317.111 189.782 317.687C193.307 318.242 195.868 318.094 197.465 317.245ZM212.047 308.191L216.838 305.644C217.003 305.079 216.95 304.348 216.676 303.452C216.182 301.807 214.615 300.254 211.977 298.794L194.15 289.078L188.669 290.691L187.702 290.23L216.143 275.107L217.111 275.569L214.485 277.941L243.184 291.636L248.572 288.77L260.826 294.618L259.029 295.573C257.26 295.776 255.521 295.812 253.81 295.68C249.812 295.464 246.308 294.637 243.299 293.201L220.546 305.299C223.512 306.715 225.319 308.443 225.968 310.484C226.321 311.337 226.364 312.204 226.097 313.083L224.301 314.038L212.047 308.191ZM233.603 296.73L204.583 282.881L195.302 287.816L213.774 297.839C216.283 299.237 217.889 300.769 218.592 302.434C218.896 303.183 219.01 303.882 218.933 304.53L233.603 296.73ZM252.525 287.32L255.15 284.948L226.774 271.407L222.214 272.855L221.247 272.394L238.013 263.48L238.98 263.941L236.355 266.313L247.318 271.545L250.312 269.953C260.69 264.435 269.104 263.214 275.553 266.292C282.002 269.369 280.037 273.667 269.659 279.185L253.492 287.781L252.525 287.32ZM286.424 270.271L285.457 269.81L288.082 267.438L259.707 253.897L255.147 255.345L254.179 254.884L270.945 245.969L271.912 246.431L269.287 248.803L297.663 262.344L302.223 260.895L303.19 261.357L286.424 270.271ZM268.047 278.416C269.803 277.482 270.514 276.432 270.179 275.265C269.841 274.057 268.339 272.817 265.674 271.545C263.008 270.273 260.49 269.595 258.119 269.51C255.745 269.384 253.68 269.788 251.924 270.722L248.93 272.314L265.053 280.008L268.047 278.416ZM199.39 358.015C196.625 359.485 193.662 360.239 190.5 360.278C187.314 360.305 184.279 359.63 181.394 358.253C178.509 356.877 177.019 355.392 176.924 353.799C176.806 352.196 178.13 350.659 180.895 349.189C182.882 348.132 184.745 347.517 186.483 347.344C188.242 347.16 189.657 347.323 190.728 347.834C191.519 348.211 191.932 348.637 191.966 349.111C192 349.563 191.649 349.984 190.915 350.375C190.612 350.535 190.287 350.685 189.938 350.824L189.444 350.98L184.21 348.482L183.581 348.64C183.141 348.757 182.694 348.936 182.241 349.177C181.009 349.832 180.676 350.643 181.241 351.61C181.828 352.565 183.715 353.804 186.902 355.325C189.997 356.801 192.507 357.661 194.433 357.905C196.357 358.126 197.935 357.909 199.166 357.254C200.008 356.806 200.576 356.293 200.871 355.714C201.163 355.113 201.165 354.536 200.878 353.985C200.589 353.411 200.072 352.946 199.327 352.591L200.137 352.16C201.068 352.605 201.693 353.164 202.012 353.84C202.331 354.515 202.282 355.222 201.865 355.96C201.425 356.687 200.6 357.372 199.39 358.015ZM216.41 348.966C213.731 350.39 210.811 351.121 207.649 351.159C204.485 351.175 201.46 350.495 198.576 349.118C195.691 347.741 194.19 346.262 194.074 344.681C193.955 343.078 195.236 341.564 197.914 340.14C200.593 338.715 203.514 337.995 206.678 337.98C209.84 337.941 212.863 338.611 215.748 339.987C218.633 341.364 220.135 342.854 220.253 344.458C220.369 346.039 219.088 347.542 216.41 348.966ZM215.712 348.633C216.576 348.173 216.648 347.478 215.928 346.546C215.23 345.603 213.334 344.393 210.24 342.916C207.146 341.439 204.645 340.551 202.737 340.251C200.851 339.939 199.476 340.013 198.612 340.473C197.748 340.932 197.665 341.633 198.363 342.577C199.083 343.508 200.99 344.713 204.084 346.189C207.178 347.666 209.668 348.56 211.554 348.872C213.462 349.172 214.848 349.092 215.712 348.633ZM233.763 339.739C232.359 340.485 230.895 341.018 229.369 341.336C227.842 341.631 226.401 341.728 225.047 341.627C223.67 341.514 222.504 341.231 221.55 340.775L222.36 340.345C223.128 340.711 224.087 340.94 225.239 341.032C226.391 341.124 227.587 341.063 228.828 340.849C230.068 340.612 231.206 340.218 232.243 339.667C234.727 338.346 234.573 337.02 231.781 335.687C230.432 335.044 229.116 334.699 227.833 334.653C226.55 334.608 225.444 334.832 224.516 335.326L222.409 336.446L221.537 336.029L222.995 335.254C223.924 334.76 224.332 334.203 224.219 333.582C224.106 332.962 223.444 332.363 222.234 331.785C221.025 331.208 219.802 330.908 218.565 330.884C217.329 330.861 216.246 331.096 215.318 331.59C214.778 331.877 214.371 332.152 214.099 332.414L213.723 332.79L218.957 335.288L218.641 335.562C218.342 335.768 218.073 335.934 217.836 336.061C217.101 336.451 216.274 336.656 215.356 336.675C214.435 336.672 213.579 336.481 212.788 336.104C211.718 335.593 211.329 334.885 211.621 333.978C211.935 333.06 213.151 332.038 215.268 330.913C217.061 329.959 218.75 329.273 220.335 328.852C221.92 328.432 223.321 328.25 224.537 328.308C225.752 328.343 226.766 328.554 227.581 328.943C228.558 329.409 229.045 329.925 229.041 330.49C229.06 331.043 228.79 331.645 228.232 332.294C227.672 332.92 226.852 333.532 225.774 334.128L225.949 334.212C227.117 333.614 228.404 333.117 229.812 332.721C231.11 332.359 232.397 332.168 233.675 332.145C234.93 332.112 236.081 332.345 237.128 332.845C238.663 333.578 239.237 334.516 238.85 335.661C238.44 336.795 236.744 338.154 233.763 339.739ZM240.816 334.581L243.408 333.202C243.498 332.897 243.468 332.501 243.321 332.017C243.053 331.126 242.205 330.286 240.778 329.496L231.131 324.238L228.165 325.111L227.642 324.861L243.032 316.678L243.556 316.928L242.135 318.212L257.664 325.622L260.581 324.072L267.211 327.236L266.239 327.753C265.282 327.863 264.341 327.882 263.415 327.811C261.251 327.694 259.355 327.246 257.727 326.469L245.414 333.016C247.02 333.782 247.998 334.717 248.348 335.822C248.54 336.283 248.563 336.752 248.418 337.228L247.446 337.745L240.816 334.581ZM252.48 328.379L236.776 320.885L231.754 323.555L241.75 328.979C243.108 329.736 243.977 330.565 244.357 331.465C244.522 331.871 244.583 332.249 244.542 332.6L252.48 328.379ZM270.084 320.427C268.162 321.449 266.24 322.025 264.319 322.154C262.398 322.284 260.752 322.021 259.379 321.366C258.472 320.933 257.76 320.408 257.243 319.791C256.975 319.51 256.786 319.224 256.674 318.931C257.327 318.349 258.079 317.738 258.93 317.098C260.844 315.658 262.651 314.439 264.351 313.441L263.304 312.942C260.721 311.709 258.65 311.015 257.09 310.859C255.529 310.703 254.144 310.946 252.935 311.589C252.481 311.83 252.15 312.065 251.943 312.293L251.664 312.617L256.898 315.115L256.582 315.389C256.283 315.595 256.014 315.761 255.777 315.888C255.042 316.278 254.216 316.483 253.297 316.502C252.376 316.499 251.52 316.308 250.729 315.931C249.659 315.42 249.249 314.723 249.498 313.839C249.768 312.944 250.897 311.968 252.885 310.912C254.57 310.016 256.343 309.402 258.204 309.069C260.063 308.715 261.876 308.643 263.642 308.853C265.407 309.042 267.022 309.486 268.488 310.185L277.91 314.682L280.378 313.898L280.901 314.147L277.985 315.698C276.689 316.387 275.254 316.716 273.681 316.684C273.029 316.678 272.35 316.594 271.642 316.43C271.921 316.868 272.088 317.308 272.143 317.748C272.218 318.764 271.532 319.657 270.084 320.427ZM270.159 319.155C270.958 318.73 271.217 318.123 270.934 317.335C270.823 317.042 270.606 316.688 270.283 316.272L265.223 313.858C264.229 314.386 263.337 314.919 262.546 315.457C261.97 315.857 261.574 316.126 261.36 316.264C261.508 316.443 261.749 316.667 262.083 316.936C262.751 317.472 263.515 317.946 264.376 318.357C265.679 318.979 266.828 319.342 267.823 319.446C268.819 319.551 269.597 319.454 270.159 319.155ZM282.861 313.106L282.337 312.856L283.758 311.572L268.403 304.245L265.935 305.029L265.412 304.779L274.484 299.955L275.008 300.205L273.587 301.489L280.741 304.903L285.601 302.318L278.447 298.904L275.98 299.688L275.456 299.439L284.529 294.615L285.052 294.865L283.631 296.148L298.986 303.475L301.454 302.692L301.977 302.941L292.905 307.765L292.381 307.515L293.802 306.232L286.474 302.735L281.613 305.319L288.942 308.816L291.409 308.032L291.933 308.282L282.861 313.106ZM304.567 301.564L304.043 301.315L305.464 300.031L290.109 292.704L287.642 293.488L287.118 293.238L296.19 288.414L296.714 288.664L295.293 289.947L306.809 295.443L302.397 288.107L300.477 287.191L298.01 287.975L297.486 287.725L306.559 282.901L307.082 283.151L305.662 284.434L321.017 291.762L323.484 290.978L324.008 291.228L314.935 296.052L314.412 295.802L315.832 294.518L304.316 289.023L308.729 296.359L310.648 297.275L313.116 296.491L313.639 296.741L304.567 301.564ZM324.932 290.208L326.029 289.097L323.137 286.41C322.366 285.693 322.47 284.816 323.448 283.779C323.867 283.369 324.453 282.94 325.205 282.493L325.031 282.41C324.014 282.927 322.856 283.355 321.556 283.694C318.868 284.372 316.628 284.284 314.836 283.429C313.394 282.741 312.878 281.83 313.288 280.696C313.72 279.551 315.416 278.192 318.375 276.619L326.961 272.053L327.485 272.303L326.064 273.586L341.419 280.914L343.887 280.13L344.41 280.38L335.338 285.204L334.814 284.954L336.235 283.67L329.604 280.506L327.012 281.884L330.44 284.991C330.97 285.484 331.169 286.047 331.036 286.681C330.901 287.292 330.337 287.862 329.344 288.391L325.455 290.458L324.932 290.208ZM328.732 280.09L320.706 276.26L319.248 277.035C318.319 277.529 317.922 278.091 318.059 278.723C318.172 279.344 318.88 279.965 320.183 280.587C321.485 281.208 322.767 281.536 324.026 281.571C325.263 281.594 326.345 281.359 327.274 280.865L328.732 280.09ZM230.78 380.152C229.407 379.497 228.411 378.771 227.791 377.974C227.17 377.154 226.807 376.35 226.704 375.559C226.601 374.769 226.573 373.786 226.622 372.611C226.676 371.525 226.668 370.65 226.596 369.983C226.502 369.306 226.228 368.642 225.776 367.99C225.301 367.327 224.54 366.746 223.493 366.247C221.957 365.514 220.413 365.126 218.861 365.083C217.309 365.039 215.983 365.311 214.881 365.896C214.255 366.23 213.71 366.613 213.248 367.046L212.812 367.524L218.396 370.189L218.079 370.463C217.78 370.669 217.512 370.835 217.274 370.961C216.54 371.352 215.713 371.557 214.794 371.576C213.874 371.572 213.018 371.382 212.227 371.004C211.482 370.649 211.02 370.167 210.841 369.558C210.683 368.938 210.901 368.247 211.496 367.485C212.113 366.711 213.166 365.928 214.657 365.136C217.573 363.585 220.361 362.736 223.021 362.589C225.682 362.442 228.14 362.907 230.397 363.984C231.816 364.661 232.692 365.428 233.024 366.284C233.378 367.129 233.396 367.976 233.077 368.826C232.779 369.665 232.24 370.726 231.46 372.01C230.798 373.089 230.315 373.992 230.009 374.718C229.702 375.421 229.565 376.151 229.598 376.908C229.653 377.653 230.018 378.339 230.693 378.966L242.681 372.592C241.576 371.912 240.896 371.217 240.642 370.508C240.484 370.193 240.416 369.877 240.437 369.56L241.409 369.043L248.389 372.374L232.35 380.902L230.78 380.152ZM261.393 365.988C259.643 366.918 257.556 367.523 255.13 367.804C252.704 368.085 250.115 367.994 247.365 367.531C244.613 367.046 241.911 366.171 239.259 364.905C236.607 363.64 234.737 362.333 233.651 360.987C232.562 359.617 232.23 358.315 232.656 357.079C233.081 355.844 234.168 354.761 235.918 353.831C237.668 352.901 239.756 352.295 242.182 352.014C244.608 351.734 247.197 351.836 249.948 352.321C252.699 352.784 255.4 353.648 258.052 354.913C260.704 356.179 262.575 357.496 263.663 358.866C264.75 360.213 265.081 361.504 264.656 362.739C264.23 363.975 263.143 365.057 261.393 365.988ZM260.695 365.655C263.179 364.334 260.408 361.758 252.382 357.928C244.355 354.098 239.1 352.843 236.616 354.164C234.132 355.485 236.903 358.06 244.929 361.89C252.956 365.721 258.211 366.975 260.695 365.655ZM273.99 358.762L273.466 358.512L275.036 356.973L255.878 347.831L255.058 350.872L253.537 350.8L253.676 344.917L257.176 343.056L280.383 354.131L283.349 353.258L283.872 353.508L273.99 358.762ZM287.437 351.612L286.914 351.362L288.484 349.823L269.325 340.68L268.506 343.722L266.985 343.65L267.124 337.767L270.623 335.906L293.83 346.98L296.796 346.108L297.32 346.357L287.437 351.612ZM288.301 340.59L286.731 339.841L299.691 332.95L301.261 333.699L288.301 340.59ZM311.277 337.352C309.904 336.697 308.908 335.971 308.288 335.174C307.666 334.354 307.304 333.549 307.201 332.759C307.098 331.969 307.07 330.986 307.118 329.81C307.173 328.725 307.165 327.849 307.093 327.183C306.998 326.506 306.725 325.842 306.273 325.19C305.797 324.527 305.036 323.946 303.989 323.447C302.454 322.714 300.91 322.326 299.358 322.283C297.806 322.239 296.479 322.511 295.378 323.096C294.751 323.429 294.207 323.813 293.745 324.246L293.309 324.724L298.893 327.389L298.576 327.663C298.277 327.869 298.009 328.035 297.771 328.161C297.037 328.552 296.21 328.757 295.291 328.776C294.37 328.772 293.515 328.582 292.724 328.204C291.979 327.849 291.517 327.367 291.338 326.758C291.18 326.138 291.398 325.447 291.993 324.685C292.609 323.911 293.663 323.128 295.153 322.335C298.069 320.785 300.858 319.936 303.518 319.789C306.178 319.642 308.637 320.107 310.894 321.184C312.313 321.861 313.188 322.628 313.521 323.484C313.875 324.328 313.892 325.176 313.574 326.026C313.276 326.865 312.737 327.926 311.956 329.21C311.295 330.289 310.812 331.192 310.506 331.917C310.199 332.621 310.062 333.351 310.095 334.108C310.15 334.853 310.515 335.539 311.189 336.166L323.178 329.792C322.073 329.112 321.393 328.417 321.139 327.708C320.981 327.392 320.913 327.077 320.934 326.76L321.906 326.243L328.886 329.574L312.847 338.102L311.277 337.352ZM341.89 323.188C340.14 324.118 338.052 324.723 335.626 325.004C333.2 325.285 330.612 325.194 327.862 324.731C325.11 324.246 322.408 323.371 319.756 322.105C317.104 320.84 315.234 319.533 314.147 318.186C313.059 316.817 312.727 315.515 313.152 314.279C313.578 313.044 314.665 311.961 316.415 311.031C318.164 310.1 320.252 309.495 322.678 309.214C325.104 308.934 327.693 309.036 330.445 309.521C333.195 309.983 335.896 310.847 338.549 312.113C341.201 313.379 343.071 314.696 344.16 316.066C345.247 317.412 345.578 318.704 345.152 319.939C344.727 321.174 343.64 322.257 341.89 323.188ZM341.192 322.855C343.676 321.534 340.905 318.958 332.878 315.128C324.852 311.298 319.597 310.043 317.113 311.364C314.629 312.685 317.4 315.26 325.426 319.09C333.453 322.921 338.708 324.175 341.192 322.855ZM354.486 315.962L353.963 315.712L355.533 314.173L336.374 305.03L335.555 308.072L334.034 308L334.173 302.117L337.672 300.256L360.879 311.331L363.845 310.458L364.369 310.707L354.486 315.962ZM365.068 308.751C363.695 308.096 362.699 307.37 362.079 306.573C361.457 305.754 361.095 304.949 360.992 304.159C360.889 303.368 360.861 302.385 360.909 301.21C360.964 300.124 360.956 299.249 360.884 298.583C360.789 297.905 360.516 297.241 360.064 296.589C359.589 295.927 358.827 295.346 357.78 294.846C356.245 294.113 354.701 293.725 353.149 293.682C351.597 293.639 350.27 293.91 349.169 294.496C348.542 294.829 347.998 295.212 347.536 295.645L347.1 296.124L352.684 298.788L352.367 299.062C352.068 299.268 351.8 299.434 351.562 299.561C350.828 299.951 350.001 300.156 349.082 300.175C348.161 300.172 347.306 299.981 346.515 299.604C345.77 299.248 345.308 298.766 345.129 298.158C344.971 297.537 345.189 296.846 345.784 296.084C346.4 295.31 347.454 294.527 348.944 293.735C351.86 292.184 354.649 291.336 357.309 291.188C359.969 291.041 362.428 291.506 364.685 292.583C366.104 293.261 366.98 294.027 367.312 294.883C367.666 295.728 367.684 296.575 367.365 297.425C367.067 298.264 366.528 299.325 365.747 300.609C365.086 301.688 364.603 302.591 364.297 303.317C363.99 304.02 363.853 304.75 363.886 305.507C363.941 306.252 364.306 306.939 364.98 307.566L376.969 301.191C375.864 300.511 375.184 299.817 374.93 299.107C374.772 298.792 374.704 298.476 374.725 298.159L375.697 297.642L382.677 300.973L366.638 309.501L365.068 308.751Z" fill="#3B3166"/>
<path d="M392.017 422.987L391.706 436.833L39.7852 281.193L40.0746 268.295L68.3169 280.709L392.017 422.987Z" fill="#FAF4FF"/>
<path d="M391.706 436.833L391.396 450.673L39.4746 295.033L39.7852 281.193L391.706 436.833Z" fill="#FAF4FF"/>
<path d="M391.396 450.673L391.096 464.052L39.1744 308.412L39.4746 295.033L391.396 450.673Z" fill="#FAF4FF"/>
<path d="M603.269 325.746L602.958 339.586L391.396 450.673L391.706 436.833L603.269 325.746Z" fill="#FAF4FF"/>
<path d="M602.958 339.586L602.658 352.965L391.096 464.052L391.396 450.673L602.958 339.586Z" fill="#FAF4FF"/>
<path d="M392.017 422.987L578.884 326.104L603.548 313.316L603.269 325.746L391.706 436.833L392.017 422.987Z" fill="#FAF4FF"/>
<path d="M578.884 326.104L392.017 422.987L68.3169 280.709L101.41 263.551L177.408 224.149L253.406 184.747L452.291 271.087L541.022 309.608L578.884 326.104Z" fill="#CEB4E2"/>
<path d="M40.0746 268.295L251.605 158.624L253.406 184.747L177.408 224.149L101.41 263.551L68.3169 280.709L40.0746 268.295Z" fill="#3B3166"/>
<path d="M603.548 313.316L578.884 326.104L541.022 309.608L452.291 271.087L253.406 184.747L251.605 158.624L427.577 235.97L603.548 313.316Z" fill="#3B3166"/>
<path d="M392.017 422.987L603.548 313.316M392.017 422.987L391.096 464.052M392.017 422.987L40.0746 268.295M392.017 422.987L578.884 326.104M392.017 422.987L68.3169 280.709M392.017 422.987L391.706 436.833M603.548 313.316L602.658 352.965M603.548 313.316L578.884 326.104M603.548 313.316L603.269 325.746M603.548 313.316L427.577 235.97L251.605 158.624M602.658 352.965L391.096 464.052M602.658 352.965L602.958 339.586M391.096 464.052L39.1744 308.412M391.096 464.052L391.396 450.673M40.0746 268.295L251.605 158.624M40.0746 268.295L39.1744 308.412M40.0746 268.295L68.3169 280.709M40.0746 268.295L39.7852 281.193M251.605 158.624L253.406 184.747M39.1744 308.412L39.4746 295.033M68.3169 280.709L101.41 263.551L177.408 224.149L253.406 184.747M578.884 326.104L541.022 309.608L452.291 271.087L253.406 184.747M391.706 436.833L39.7852 281.193M391.706 436.833L603.269 325.746M391.706 436.833L391.396 450.673M39.7852 281.193L39.4746 295.033M391.396 450.673L39.4746 295.033M391.396 450.673L602.958 339.586M603.269 325.746L602.958 339.586" stroke="#3B3166" stroke-width="2"/>
<path d="M151.804 300.938L154.43 298.566L113.156 278.87L108.596 280.319L107.629 279.857L139.663 262.825L151.271 268.364L149.475 269.319C148.071 269.415 146.596 269.375 145.048 269.2C141.449 268.772 138.295 267.911 135.587 266.619L122.713 273.463L164.309 293.313L168.869 291.865L169.837 292.326L152.772 301.4L151.804 300.938ZM200.759 276.861C195.809 279.493 190.412 280.844 184.568 280.915C178.722 280.944 173.133 279.686 167.802 277.142C162.47 274.598 159.697 271.865 159.482 268.943C159.263 265.98 161.629 263.182 166.579 260.55C171.529 257.918 176.927 256.588 182.774 256.559C188.618 256.488 194.205 257.725 199.536 260.269C204.868 262.813 207.642 265.567 207.861 268.53C208.076 271.452 205.709 274.229 200.759 276.861ZM199.469 276.245C201.066 275.397 201.199 274.111 199.869 272.389C198.579 270.646 195.075 268.41 189.357 265.681C183.639 262.952 179.017 261.311 175.492 260.756C172.007 260.18 169.466 260.317 167.869 261.166C166.272 262.015 166.119 263.311 167.409 265.054C168.739 266.776 172.263 269.001 177.981 271.73C183.699 274.459 188.301 276.111 191.786 276.687C195.311 277.242 197.872 277.094 199.469 276.245ZM214.051 267.191L218.841 264.644C219.007 264.079 218.953 263.348 218.68 262.452C218.185 260.807 216.619 259.254 213.981 257.794L196.154 248.078L190.673 249.691L189.706 249.23L218.147 234.107L219.115 234.569L216.489 236.941L245.187 250.636L250.576 247.77L262.829 253.618L261.033 254.573C259.264 254.776 257.525 254.812 255.814 254.68C251.816 254.464 248.312 253.637 245.303 252.201L222.549 264.299C225.516 265.715 227.323 267.443 227.972 269.484C228.325 270.337 228.368 271.204 228.101 272.083L226.304 273.038L214.051 267.191ZM235.607 255.73L206.587 241.881L197.306 246.816L215.778 256.839C218.287 258.237 219.893 259.769 220.596 261.434C220.9 262.183 221.014 262.882 220.937 263.53L235.607 255.73ZM254.529 246.32L257.154 243.948L228.778 230.407L224.218 231.855L223.251 231.394L240.016 222.48L240.984 222.941L238.358 225.313L249.322 230.545L252.316 228.953C262.694 223.435 271.108 222.214 277.557 225.292C284.006 228.369 282.041 232.667 271.663 238.185L255.496 246.781L254.529 246.32ZM288.428 229.271L287.461 228.81L290.086 226.438L261.711 212.897L257.151 214.345L256.183 213.884L272.949 204.969L273.916 205.431L271.291 207.803L299.667 221.344L304.227 219.895L305.194 220.357L288.428 229.271ZM270.05 237.416C271.807 236.482 272.518 235.432 272.183 234.265C271.845 233.057 270.343 231.817 267.677 230.545C265.012 229.273 262.494 228.595 260.123 228.51C257.749 228.384 255.684 228.788 253.928 229.722L250.934 231.314L267.057 239.008L270.05 237.416ZM201.394 317.015C198.629 318.485 195.666 319.239 192.503 319.278C189.318 319.305 186.283 318.63 183.398 317.253C180.513 315.877 179.023 314.392 178.928 312.799C178.81 311.196 180.134 309.659 182.898 308.189C184.886 307.132 186.748 306.517 188.487 306.344C190.246 306.16 191.661 306.323 192.731 306.834C193.522 307.211 193.935 307.637 193.97 308.111C194.004 308.563 193.653 308.984 192.919 309.375C192.616 309.535 192.291 309.685 191.942 309.824L191.448 309.98L186.214 307.482L185.585 307.64C185.145 307.757 184.698 307.936 184.244 308.177C183.013 308.832 182.68 309.643 183.245 310.61C183.832 311.565 185.719 312.804 188.906 314.325C192 315.801 194.511 316.661 196.436 316.905C198.361 317.126 199.938 316.909 201.17 316.254C202.012 315.806 202.58 315.293 202.874 314.714C203.167 314.113 203.169 313.536 202.882 312.985C202.593 312.411 202.076 311.946 201.331 311.591L202.141 311.16C203.072 311.605 203.697 312.164 204.016 312.84C204.335 313.515 204.286 314.222 203.869 314.96C203.429 315.687 202.604 316.372 201.394 317.015ZM218.414 307.966C215.735 309.39 212.815 310.121 209.653 310.159C206.489 310.175 203.464 309.495 200.579 308.118C197.695 306.741 196.194 305.262 196.077 303.681C195.959 302.078 197.239 300.564 199.918 299.14C202.596 297.715 205.518 296.995 208.682 296.98C211.844 296.941 214.867 297.611 217.752 298.987C220.637 300.364 222.138 301.854 222.257 303.458C222.373 305.039 221.092 306.542 218.414 307.966ZM217.716 307.633C218.58 307.173 218.652 306.478 217.932 305.546C217.234 304.603 215.338 303.393 212.244 301.916C209.15 300.439 206.649 299.551 204.741 299.251C202.855 298.939 201.48 299.013 200.616 299.473C199.752 299.932 199.669 300.633 200.367 301.577C201.087 302.508 202.993 303.713 206.088 305.189C209.182 306.666 211.672 307.56 213.558 307.872C215.466 308.172 216.852 308.092 217.716 307.633ZM235.767 298.739C234.363 299.485 232.898 300.018 231.373 300.336C229.846 300.631 228.405 300.728 227.051 300.627C225.673 300.514 224.508 300.231 223.554 299.775L224.364 299.345C225.132 299.711 226.091 299.94 227.243 300.032C228.394 300.124 229.591 300.063 230.832 299.849C232.072 299.612 233.21 299.218 234.247 298.667C236.731 297.346 236.577 296.02 233.785 294.687C232.436 294.044 231.12 293.699 229.837 293.653C228.554 293.608 227.448 293.832 226.519 294.326L224.413 295.446L223.541 295.029L224.999 294.254C225.928 293.76 226.336 293.203 226.223 292.582C226.11 291.962 225.448 291.363 224.238 290.785C223.029 290.208 221.806 289.908 220.569 289.884C219.333 289.861 218.25 290.096 217.322 290.59C216.782 290.877 216.375 291.152 216.103 291.414L215.726 291.79L220.961 294.288L220.645 294.562C220.345 294.768 220.077 294.934 219.839 295.061C219.105 295.451 218.278 295.656 217.359 295.675C216.439 295.672 215.583 295.481 214.792 295.104C213.722 294.593 213.333 293.885 213.625 292.978C213.939 292.06 215.155 291.038 217.272 289.913C219.064 288.959 220.754 288.273 222.339 287.852C223.924 287.432 225.325 287.25 226.541 287.308C227.756 287.343 228.77 287.554 229.585 287.943C230.562 288.409 231.049 288.925 231.045 289.49C231.064 290.043 230.794 290.645 230.235 291.294C229.676 291.92 228.856 292.532 227.778 293.128L227.953 293.212C229.121 292.614 230.408 292.117 231.816 291.721C233.114 291.359 234.401 291.168 235.679 291.145C236.934 291.112 238.085 291.345 239.131 291.845C240.667 292.578 241.241 293.516 240.854 294.661C240.444 295.795 238.748 297.154 235.767 298.739ZM242.82 293.581L245.412 292.202C245.501 291.897 245.472 291.501 245.324 291.017C245.057 290.126 244.209 289.286 242.782 288.496L233.135 283.238L230.169 284.111L229.646 283.861L245.036 275.678L245.56 275.928L244.139 277.212L259.668 284.622L262.584 283.072L269.215 286.236L268.243 286.753C267.286 286.863 266.344 286.882 265.419 286.811C263.255 286.694 261.359 286.246 259.731 285.469L247.418 292.016C249.024 292.782 250.002 293.717 250.352 294.822C250.543 295.283 250.567 295.752 250.422 296.228L249.45 296.745L242.82 293.581ZM254.484 287.379L238.78 279.885L233.758 282.555L243.754 287.979C245.111 288.736 245.981 289.565 246.361 290.465C246.526 290.871 246.587 291.249 246.546 291.6L254.484 287.379ZM272.088 279.427C270.166 280.449 268.244 281.025 266.323 281.154C264.402 281.284 262.755 281.021 261.383 280.366C260.476 279.933 259.763 279.408 259.247 278.791C258.979 278.51 258.79 278.224 258.678 277.931C259.331 277.349 260.083 276.738 260.934 276.098C262.848 274.658 264.655 273.439 266.355 272.441L265.308 271.942C262.725 270.709 260.654 270.015 259.094 269.859C257.533 269.703 256.148 269.946 254.939 270.589C254.485 270.83 254.154 271.065 253.947 271.293L253.667 271.617L258.902 274.115L258.586 274.389C258.286 274.595 258.018 274.761 257.781 274.888C257.046 275.278 256.219 275.483 255.301 275.502C254.38 275.499 253.524 275.308 252.733 274.931C251.663 274.42 251.252 273.723 251.502 272.839C251.772 271.944 252.901 270.968 254.889 269.912C256.573 269.016 258.346 268.402 260.208 268.069C262.067 267.715 263.88 267.643 265.646 267.853C267.411 268.042 269.026 268.486 270.492 269.185L279.914 273.682L282.382 272.898L282.905 273.147L279.989 274.698C278.693 275.387 277.258 275.716 275.685 275.684C275.033 275.678 274.354 275.594 273.646 275.43C273.925 275.868 274.092 276.308 274.147 276.748C274.222 277.764 273.535 278.657 272.088 279.427ZM272.163 278.155C272.962 277.73 273.22 277.123 272.938 276.335C272.826 276.042 272.61 275.688 272.287 275.272L267.227 272.858C266.233 273.386 265.341 273.919 264.55 274.457C263.974 274.857 263.578 275.126 263.364 275.264C263.512 275.443 263.753 275.667 264.087 275.936C264.755 276.472 265.519 276.946 266.38 277.357C267.683 277.979 268.832 278.342 269.827 278.446C270.823 278.551 271.601 278.454 272.163 278.155ZM284.864 272.106L284.341 271.856L285.762 270.572L270.407 263.245L267.939 264.029L267.416 263.779L276.488 258.955L277.012 259.205L275.591 260.489L282.745 263.903L287.605 261.318L280.451 257.904L277.984 258.688L277.46 258.439L286.532 253.615L287.056 253.865L285.635 255.148L300.99 262.475L303.458 261.692L303.981 261.941L294.909 266.765L294.385 266.515L295.806 265.232L288.477 261.735L283.617 264.319L290.946 267.816L293.413 267.032L293.937 267.282L284.864 272.106ZM306.571 260.564L306.047 260.315L307.468 259.031L292.113 251.704L289.645 252.488L289.122 252.238L298.194 247.414L298.718 247.664L297.297 248.947L308.813 254.443L304.401 247.107L302.481 246.191L300.014 246.975L299.49 246.725L308.563 241.901L309.086 242.151L307.666 243.434L323.02 250.762L325.488 249.978L326.011 250.228L316.939 255.052L316.416 254.802L317.836 253.518L306.32 248.023L310.733 255.359L312.652 256.275L315.12 255.491L315.643 255.741L306.571 260.564ZM326.936 249.208L328.032 248.097L325.141 245.41C324.37 244.693 324.473 243.816 325.452 242.779C325.871 242.369 326.457 241.94 327.209 241.493L327.035 241.41C326.018 241.927 324.86 242.355 323.56 242.694C320.872 243.372 318.632 243.284 316.84 242.429C315.398 241.741 314.882 240.83 315.292 239.696C315.724 238.551 317.42 237.192 320.379 235.619L328.965 231.053L329.489 231.303L328.068 232.586L343.423 239.914L345.891 239.13L346.414 239.38L337.342 244.204L336.818 243.954L338.239 242.67L331.608 239.506L329.016 240.884L332.444 243.991C332.974 244.484 333.173 245.047 333.04 245.681C332.905 246.292 332.341 246.862 331.347 247.391L327.459 249.458L326.936 249.208ZM330.736 239.09L322.71 235.26L321.251 236.035C320.323 236.529 319.926 237.091 320.063 237.723C320.176 238.344 320.884 238.965 322.187 239.587C323.489 240.208 324.771 240.536 326.03 240.571C327.266 240.594 328.349 240.359 329.278 239.865L330.736 239.09ZM232.784 339.152C231.411 338.497 230.415 337.771 229.795 336.974C229.173 336.154 228.811 335.35 228.708 334.559C228.605 333.769 228.577 332.786 228.625 331.611C228.68 330.525 228.672 329.65 228.6 328.983C228.505 328.306 228.232 327.642 227.78 326.99C227.305 326.327 226.544 325.746 225.497 325.247C223.961 324.514 222.417 324.126 220.865 324.083C219.313 324.039 217.986 324.311 216.885 324.896C216.258 325.23 215.714 325.613 215.252 326.046L214.816 326.524L220.4 329.189L220.083 329.463C219.784 329.669 219.516 329.835 219.278 329.961C218.544 330.352 217.717 330.557 216.798 330.576C215.878 330.572 215.022 330.382 214.231 330.004C213.486 329.649 213.024 329.167 212.845 328.558C212.687 327.938 212.905 327.247 213.5 326.485C214.117 325.711 215.17 324.928 216.66 324.136C219.577 322.585 222.365 321.736 225.025 321.589C227.685 321.442 230.144 321.907 232.401 322.984C233.82 323.661 234.696 324.428 235.028 325.284C235.382 326.129 235.4 326.976 235.081 327.826C234.783 328.665 234.244 329.726 233.463 331.01C232.802 332.089 232.319 332.992 232.013 333.718C231.706 334.421 231.569 335.151 231.602 335.908C231.657 336.653 232.022 337.339 232.696 337.966L244.685 331.592C243.58 330.912 242.9 330.217 242.646 329.508C242.488 329.193 242.42 328.877 242.441 328.56L243.413 328.043L250.393 331.374L234.354 339.902L232.784 339.152ZM263.397 324.988C261.647 325.918 259.56 326.523 257.133 326.804C254.707 327.085 252.119 326.994 249.369 326.531C246.617 326.046 243.915 325.171 241.263 323.905C238.611 322.64 236.741 321.333 235.655 319.987C234.566 318.617 234.234 317.315 234.66 316.079C235.085 314.844 236.172 313.761 237.922 312.831C239.672 311.901 241.759 311.295 244.185 311.014C246.612 310.734 249.2 310.836 251.952 311.321C254.702 311.784 257.404 312.648 260.056 313.913C262.708 315.179 264.578 316.496 265.667 317.866C266.754 319.213 267.085 320.504 266.659 321.739C266.234 322.975 265.147 324.057 263.397 324.988ZM262.699 324.655C265.183 323.334 262.412 320.758 254.386 316.928C246.359 313.098 241.104 311.843 238.62 313.164C236.136 314.485 238.907 317.06 246.933 320.89C254.96 324.721 260.215 325.975 262.699 324.655ZM275.994 317.762L275.47 317.512L277.04 315.973L257.882 306.831L257.062 309.872L255.541 309.8L255.68 303.917L259.18 302.056L282.386 313.131L285.352 312.258L285.876 312.508L275.994 317.762ZM289.441 310.612L288.918 310.362L290.488 308.823L271.329 299.68L270.51 302.722L268.989 302.65L269.128 296.767L272.627 294.906L295.834 305.98L298.8 305.108L299.324 305.357L289.441 310.612ZM290.305 299.59L288.735 298.841L301.695 291.95L303.265 292.699L290.305 299.59ZM313.281 296.352C311.908 295.697 310.912 294.971 310.292 294.174C309.67 293.354 309.308 292.549 309.205 291.759C309.102 290.969 309.074 289.986 309.122 288.81C309.177 287.725 309.168 286.849 309.097 286.183C309.002 285.506 308.729 284.842 308.277 284.19C307.801 283.527 307.04 282.946 305.993 282.447C304.458 281.714 302.914 281.326 301.362 281.283C299.81 281.239 298.483 281.511 297.382 282.096C296.755 282.429 296.211 282.813 295.749 283.246L295.313 283.724L300.897 286.389L300.58 286.663C300.281 286.869 300.013 287.035 299.775 287.161C299.041 287.552 298.214 287.757 297.295 287.776C296.374 287.772 295.519 287.582 294.728 287.204C293.983 286.849 293.521 286.367 293.342 285.758C293.184 285.138 293.402 284.447 293.997 283.685C294.613 282.911 295.667 282.128 297.157 281.335C300.073 279.785 302.861 278.936 305.522 278.789C308.182 278.642 310.641 279.107 312.897 280.184C314.317 280.861 315.192 281.628 315.525 282.484C315.879 283.328 315.896 284.176 315.577 285.026C315.28 285.865 314.741 286.926 313.96 288.21C313.299 289.289 312.815 290.192 312.51 290.917C312.202 291.621 312.065 292.351 312.099 293.108C312.154 293.853 312.518 294.539 313.193 295.166L325.182 288.792C324.077 288.112 323.397 287.417 323.142 286.708C322.985 286.392 322.916 286.077 322.938 285.76L323.91 285.243L330.89 288.574L314.851 297.102L313.281 296.352ZM343.894 282.188C342.144 283.118 340.056 283.723 337.63 284.004C335.204 284.285 332.616 284.194 329.866 283.731C327.114 283.246 324.412 282.371 321.76 281.105C319.108 279.84 317.238 278.533 316.151 277.186C315.063 275.817 314.731 274.515 315.156 273.279C315.582 272.044 316.669 270.961 318.419 270.031C320.168 269.1 322.256 268.495 324.682 268.214C327.108 267.934 329.697 268.036 332.449 268.521C335.199 268.983 337.9 269.847 340.553 271.113C343.205 272.379 345.075 273.696 346.164 275.066C347.251 276.412 347.581 277.704 347.156 278.939C346.731 280.174 345.643 281.257 343.894 282.188ZM343.196 281.855C345.68 280.534 342.909 277.958 334.882 274.128C326.856 270.298 321.601 269.043 319.117 270.364C316.633 271.685 319.404 274.26 327.43 278.09C335.456 281.921 340.712 283.175 343.196 281.855ZM356.49 274.962L355.967 274.712L357.537 273.173L338.378 264.03L337.559 267.072L336.038 267L336.177 261.117L339.676 259.256L362.883 270.331L365.849 269.458L366.373 269.707L356.49 274.962ZM367.072 267.751C365.699 267.096 364.703 266.37 364.083 265.573C363.461 264.754 363.099 263.949 362.996 263.159C362.893 262.368 362.865 261.385 362.913 260.21C362.968 259.124 362.96 258.249 362.888 257.583C362.793 256.905 362.52 256.241 362.068 255.589C361.592 254.927 360.831 254.346 359.784 253.846C358.249 253.113 356.705 252.725 355.153 252.682C353.601 252.639 352.274 252.91 351.173 253.496C350.546 253.829 350.002 254.212 349.54 254.645L349.104 255.124L354.688 257.788L354.371 258.062C354.072 258.268 353.804 258.434 353.566 258.561C352.832 258.951 352.005 259.156 351.086 259.175C350.165 259.172 349.31 258.981 348.519 258.604C347.774 258.248 347.312 257.766 347.133 257.158C346.975 256.537 347.193 255.846 347.788 255.084C348.404 254.31 349.458 253.527 350.948 252.735C353.864 251.184 356.653 250.336 359.313 250.188C361.973 250.041 364.432 250.506 366.688 251.583C368.108 252.261 368.983 253.027 369.316 253.883C369.67 254.728 369.687 255.575 369.368 256.425C369.071 257.264 368.532 258.325 367.751 259.609C367.09 260.688 366.606 261.591 366.301 262.317C365.993 263.02 365.856 263.75 365.89 264.507C365.945 265.252 366.31 265.939 366.984 266.566L378.973 260.191C377.868 259.511 377.188 258.817 376.934 258.107C376.776 257.792 376.707 257.476 376.729 257.159L377.701 256.642L384.681 259.973L368.642 268.501L367.072 267.751Z" fill="#3B3166"/>
<path d="M393.017 380.987L392.706 394.833L40.7852 239.193L41.0746 226.295L69.3169 238.709L393.017 380.987Z" fill="#FAF4FF"/>
<path d="M392.706 394.833L392.396 408.673L40.4746 253.033L40.7852 239.193L392.706 394.833Z" fill="#FAF4FF"/>
<path d="M392.396 408.673L392.096 422.052L40.1744 266.412L40.4746 253.033L392.396 408.673Z" fill="#FAF4FF"/>
<path d="M604.269 283.746L603.958 297.586L392.396 408.673L392.706 394.833L604.269 283.746Z" fill="#FAF4FF"/>
<path d="M603.958 297.586L603.658 310.965L392.096 422.052L392.396 408.673L603.958 297.586Z" fill="#FAF4FF"/>
<path d="M393.017 380.987L579.884 284.104L604.548 271.316L604.269 283.746L392.706 394.833L393.017 380.987Z" fill="#FAF4FF"/>
<path d="M579.884 284.104L393.017 380.987L69.3169 238.709L102.41 221.551L178.408 182.149L254.406 142.747L453.291 229.087L542.022 267.608L579.884 284.104Z" fill="#CEB4E2"/>
<path d="M41.0746 226.295L252.605 116.624L254.406 142.747L178.408 182.149L102.41 221.551L69.3169 238.709L41.0746 226.295Z" fill="#3B3166"/>
<path d="M604.548 271.316L579.884 284.104L542.022 267.608L453.291 229.087L254.406 142.747L252.605 116.624L428.577 193.97L604.548 271.316Z" fill="#3B3166"/>
<path d="M393.017 380.987L604.548 271.316M393.017 380.987L392.096 422.052M393.017 380.987L41.0746 226.295M393.017 380.987L579.884 284.104M393.017 380.987L69.3169 238.709M393.017 380.987L392.706 394.833M604.548 271.316L603.658 310.965M604.548 271.316L579.884 284.104M604.548 271.316L604.269 283.746M604.548 271.316L428.577 193.97L252.605 116.624M603.658 310.965L392.096 422.052M603.658 310.965L603.958 297.586M392.096 422.052L40.1744 266.412M392.096 422.052L392.396 408.673M41.0746 226.295L252.605 116.624M41.0746 226.295L40.1744 266.412M41.0746 226.295L69.3169 238.709M41.0746 226.295L40.7852 239.193M252.605 116.624L254.406 142.747M40.1744 266.412L40.4746 253.033M69.3169 238.709L102.41 221.551L178.408 182.149L254.406 142.747M579.884 284.104L542.022 267.608L453.291 229.087L254.406 142.747M392.706 394.833L40.7852 239.193M392.706 394.833L604.269 283.746M392.706 394.833L392.396 408.673M40.7852 239.193L40.4746 253.033M392.396 408.673L40.4746 253.033M392.396 408.673L603.958 297.586M604.269 283.746L603.958 297.586" stroke="#3B3166" stroke-width="2"/>
<path d="M152.804 258.938L155.43 256.566L114.156 236.87L109.596 238.319L108.629 237.857L140.663 220.825L152.271 226.364L150.475 227.319C149.071 227.415 147.596 227.375 146.048 227.2C142.449 226.772 139.295 225.911 136.587 224.619L123.713 231.463L165.309 251.313L169.869 249.865L170.837 250.326L153.772 259.4L152.804 258.938ZM201.759 234.861C196.809 237.493 191.412 238.844 185.568 238.915C179.722 238.944 174.133 237.686 168.802 235.142C163.47 232.598 160.697 229.865 160.482 226.943C160.263 223.98 162.629 221.182 167.579 218.55C172.529 215.918 177.927 214.588 183.774 214.559C189.618 214.488 195.205 215.725 200.536 218.269C205.868 220.813 208.642 223.567 208.861 226.53C209.076 229.452 206.709 232.229 201.759 234.861ZM200.469 234.245C202.066 233.397 202.199 232.111 200.869 230.389C199.579 228.646 196.075 226.41 190.357 223.681C184.639 220.952 180.017 219.311 176.492 218.756C173.007 218.18 170.466 218.317 168.869 219.166C167.272 220.015 167.119 221.311 168.409 223.054C169.739 224.776 173.263 227.001 178.981 229.73C184.699 232.459 189.301 234.111 192.786 234.687C196.311 235.242 198.872 235.094 200.469 234.245ZM215.051 225.191L219.841 222.644C220.007 222.079 219.953 221.348 219.68 220.452C219.185 218.807 217.619 217.254 214.981 215.794L197.154 206.078L191.673 207.691L190.706 207.23L219.147 192.107L220.115 192.569L217.489 194.941L246.187 208.636L251.576 205.77L263.829 211.618L262.033 212.573C260.264 212.776 258.525 212.812 256.814 212.68C252.816 212.464 249.312 211.637 246.303 210.201L223.549 222.299C226.516 223.715 228.323 225.443 228.972 227.484C229.325 228.337 229.368 229.204 229.101 230.083L227.304 231.038L215.051 225.191ZM236.607 213.73L207.587 199.881L198.306 204.816L216.778 214.839C219.287 216.237 220.893 217.769 221.596 219.434C221.9 220.183 222.014 220.882 221.937 221.53L236.607 213.73ZM255.529 204.32L258.154 201.948L229.778 188.407L225.218 189.855L224.251 189.394L241.016 180.48L241.984 180.941L239.358 183.313L250.322 188.545L253.316 186.953C263.694 181.435 272.108 180.214 278.557 183.292C285.006 186.369 283.041 190.667 272.663 196.185L256.496 204.781L255.529 204.32ZM289.428 187.271L288.461 186.81L291.086 184.438L262.711 170.897L258.151 172.345L257.183 171.884L273.949 162.969L274.916 163.431L272.291 165.803L300.667 179.344L305.227 177.895L306.194 178.357L289.428 187.271ZM271.05 195.416C272.807 194.482 273.518 193.432 273.183 192.265C272.845 191.057 271.343 189.817 268.677 188.545C266.012 187.273 263.494 186.595 261.123 186.51C258.749 186.384 256.684 186.788 254.928 187.722L251.934 189.314L268.057 197.008L271.05 195.416ZM202.394 275.015C199.629 276.485 196.666 277.239 193.503 277.278C190.318 277.305 187.283 276.63 184.398 275.253C181.513 273.877 180.023 272.392 179.928 270.799C179.81 269.196 181.134 267.659 183.898 266.189C185.886 265.132 187.748 264.517 189.487 264.344C191.246 264.16 192.661 264.323 193.731 264.834C194.522 265.211 194.935 265.637 194.97 266.111C195.004 266.563 194.653 266.984 193.919 267.375C193.616 267.535 193.291 267.685 192.942 267.824L192.448 267.98L187.214 265.482L186.585 265.64C186.145 265.757 185.698 265.936 185.244 266.177C184.013 266.832 183.68 267.643 184.245 268.61C184.832 269.565 186.719 270.804 189.906 272.325C193 273.801 195.511 274.661 197.436 274.905C199.361 275.126 200.938 274.909 202.17 274.254C203.012 273.806 203.58 273.293 203.874 272.714C204.167 272.113 204.169 271.536 203.882 270.985C203.593 270.411 203.076 269.946 202.331 269.591L203.141 269.16C204.072 269.605 204.697 270.164 205.016 270.84C205.335 271.515 205.286 272.222 204.869 272.96C204.429 273.687 203.604 274.372 202.394 275.015ZM219.414 265.966C216.735 267.39 213.815 268.121 210.653 268.159C207.489 268.175 204.464 267.495 201.579 266.118C198.695 264.741 197.194 263.262 197.077 261.681C196.959 260.078 198.239 258.564 200.918 257.14C203.596 255.715 206.518 254.995 209.682 254.98C212.844 254.941 215.867 255.611 218.752 256.987C221.637 258.364 223.138 259.854 223.257 261.458C223.373 263.039 222.092 264.542 219.414 265.966ZM218.716 265.633C219.58 265.173 219.652 264.478 218.932 263.546C218.234 262.603 216.338 261.393 213.244 259.916C210.15 258.439 207.649 257.551 205.741 257.251C203.855 256.939 202.48 257.013 201.616 257.473C200.752 257.932 200.669 258.633 201.367 259.577C202.087 260.508 203.993 261.713 207.088 263.189C210.182 264.666 212.672 265.56 214.558 265.872C216.466 266.172 217.852 266.092 218.716 265.633ZM236.767 256.739C235.363 257.485 233.898 258.018 232.373 258.336C230.846 258.631 229.405 258.728 228.051 258.627C226.673 258.514 225.508 258.231 224.554 257.775L225.364 257.345C226.132 257.711 227.091 257.94 228.243 258.032C229.394 258.124 230.591 258.063 231.832 257.849C233.072 257.612 234.21 257.218 235.247 256.667C237.731 255.346 237.577 254.02 234.785 252.687C233.436 252.044 232.12 251.699 230.837 251.653C229.554 251.608 228.448 251.832 227.519 252.326L225.413 253.446L224.541 253.029L225.999 252.254C226.928 251.76 227.336 251.203 227.223 250.582C227.11 249.962 226.448 249.363 225.238 248.785C224.029 248.208 222.806 247.908 221.569 247.884C220.333 247.861 219.25 248.096 218.322 248.59C217.782 248.877 217.375 249.152 217.103 249.414L216.726 249.79L221.961 252.288L221.645 252.562C221.345 252.768 221.077 252.934 220.839 253.061C220.105 253.451 219.278 253.656 218.359 253.675C217.439 253.672 216.583 253.481 215.792 253.104C214.722 252.593 214.333 251.885 214.625 250.978C214.939 250.06 216.155 249.038 218.272 247.913C220.064 246.959 221.754 246.273 223.339 245.852C224.924 245.432 226.325 245.25 227.541 245.308C228.756 245.343 229.77 245.554 230.585 245.943C231.562 246.409 232.049 246.925 232.045 247.49C232.064 248.043 231.794 248.645 231.235 249.294C230.676 249.92 229.856 250.532 228.778 251.128L228.953 251.212C230.121 250.614 231.408 250.117 232.816 249.721C234.114 249.359 235.401 249.168 236.679 249.145C237.934 249.112 239.085 249.345 240.131 249.845C241.667 250.578 242.241 251.516 241.854 252.661C241.444 253.795 239.748 255.154 236.767 256.739ZM243.82 251.581L246.412 250.202C246.501 249.897 246.472 249.501 246.324 249.017C246.057 248.126 245.209 247.286 243.782 246.496L234.135 241.238L231.169 242.111L230.646 241.861L246.036 233.678L246.56 233.928L245.139 235.212L260.668 242.622L263.584 241.072L270.215 244.236L269.243 244.753C268.286 244.863 267.344 244.882 266.419 244.811C264.255 244.694 262.359 244.246 260.731 243.469L248.418 250.016C250.024 250.782 251.002 251.717 251.352 252.822C251.543 253.283 251.567 253.752 251.422 254.228L250.45 254.745L243.82 251.581ZM255.484 245.379L239.78 237.885L234.758 240.555L244.754 245.979C246.111 246.736 246.981 247.565 247.361 248.465C247.526 248.871 247.587 249.249 247.546 249.6L255.484 245.379ZM273.088 237.427C271.166 238.449 269.244 239.025 267.323 239.154C265.402 239.284 263.755 239.021 262.383 238.366C261.476 237.933 260.763 237.408 260.247 236.791C259.979 236.51 259.79 236.224 259.678 235.931C260.331 235.349 261.083 234.738 261.934 234.098C263.848 232.658 265.655 231.439 267.355 230.441L266.308 229.942C263.725 228.709 261.654 228.015 260.094 227.859C258.533 227.703 257.148 227.946 255.939 228.589C255.485 228.83 255.154 229.065 254.947 229.293L254.667 229.617L259.902 232.115L259.586 232.389C259.286 232.595 259.018 232.761 258.781 232.888C258.046 233.278 257.219 233.483 256.301 233.502C255.38 233.499 254.524 233.308 253.733 232.931C252.663 232.42 252.252 231.723 252.502 230.839C252.772 229.944 253.901 228.968 255.889 227.912C257.573 227.016 259.346 226.402 261.208 226.069C263.067 225.715 264.88 225.643 266.646 225.853C268.411 226.042 270.026 226.486 271.492 227.185L280.914 231.682L283.382 230.898L283.905 231.147L280.989 232.698C279.693 233.387 278.258 233.716 276.685 233.684C276.033 233.678 275.354 233.594 274.646 233.43C274.925 233.868 275.092 234.308 275.147 234.748C275.222 235.764 274.535 236.657 273.088 237.427ZM273.163 236.155C273.962 235.73 274.22 235.123 273.938 234.335C273.826 234.042 273.61 233.688 273.287 233.272L268.227 230.858C267.233 231.386 266.341 231.919 265.55 232.457C264.974 232.857 264.578 233.126 264.364 233.264C264.512 233.443 264.753 233.667 265.087 233.936C265.755 234.472 266.519 234.946 267.38 235.357C268.683 235.979 269.832 236.342 270.827 236.446C271.823 236.551 272.601 236.454 273.163 236.155ZM285.864 230.106L285.341 229.856L286.762 228.572L271.407 221.245L268.939 222.029L268.416 221.779L277.488 216.955L278.012 217.205L276.591 218.489L283.745 221.903L288.605 219.318L281.451 215.904L278.984 216.688L278.46 216.439L287.532 211.615L288.056 211.865L286.635 213.148L301.99 220.475L304.458 219.692L304.981 219.941L295.909 224.765L295.385 224.515L296.806 223.232L289.477 219.735L284.617 222.319L291.946 225.816L294.413 225.032L294.937 225.282L285.864 230.106ZM307.571 218.564L307.047 218.315L308.468 217.031L293.113 209.704L290.645 210.488L290.122 210.238L299.194 205.414L299.718 205.664L298.297 206.947L309.813 212.443L305.401 205.107L303.481 204.191L301.014 204.975L300.49 204.725L309.563 199.901L310.086 200.151L308.666 201.434L324.02 208.762L326.488 207.978L327.011 208.228L317.939 213.052L317.416 212.802L318.836 211.518L307.32 206.023L311.733 213.359L313.652 214.275L316.12 213.491L316.643 213.741L307.571 218.564ZM327.936 207.208L329.032 206.097L326.141 203.41C325.37 202.693 325.473 201.816 326.452 200.779C326.871 200.369 327.457 199.94 328.209 199.493L328.035 199.41C327.018 199.927 325.86 200.355 324.56 200.694C321.872 201.372 319.632 201.284 317.84 200.429C316.398 199.741 315.882 198.83 316.292 197.696C316.724 196.551 318.42 195.192 321.379 193.619L329.965 189.053L330.489 189.303L329.068 190.586L344.423 197.914L346.891 197.13L347.414 197.38L338.342 202.204L337.818 201.954L339.239 200.67L332.608 197.506L330.016 198.884L333.444 201.991C333.974 202.484 334.173 203.047 334.04 203.681C333.905 204.292 333.341 204.862 332.347 205.391L328.459 207.458L327.936 207.208ZM331.736 197.09L323.71 193.26L322.251 194.035C321.323 194.529 320.926 195.091 321.063 195.723C321.176 196.344 321.884 196.965 323.187 197.587C324.489 198.208 325.771 198.536 327.03 198.571C328.266 198.594 329.349 198.359 330.278 197.865L331.736 197.09ZM233.784 297.152C232.411 296.497 231.415 295.771 230.795 294.974C230.173 294.154 229.811 293.35 229.708 292.559C229.605 291.769 229.577 290.786 229.625 289.611C229.68 288.525 229.672 287.65 229.6 286.983C229.505 286.306 229.232 285.642 228.78 284.99C228.305 284.327 227.544 283.746 226.497 283.247C224.961 282.514 223.417 282.126 221.865 282.083C220.313 282.039 218.986 282.311 217.885 282.896C217.258 283.23 216.714 283.613 216.252 284.046L215.816 284.524L221.4 287.189L221.083 287.463C220.784 287.669 220.516 287.835 220.278 287.961C219.544 288.352 218.717 288.557 217.798 288.576C216.878 288.572 216.022 288.382 215.231 288.004C214.486 287.649 214.024 287.167 213.845 286.558C213.687 285.938 213.905 285.247 214.5 284.485C215.117 283.711 216.17 282.928 217.66 282.136C220.577 280.585 223.365 279.736 226.025 279.589C228.685 279.442 231.144 279.907 233.401 280.984C234.82 281.661 235.696 282.428 236.028 283.284C236.382 284.129 236.4 284.976 236.081 285.826C235.783 286.665 235.244 287.726 234.463 289.01C233.802 290.089 233.319 290.992 233.013 291.718C232.706 292.421 232.569 293.151 232.602 293.908C232.657 294.653 233.022 295.339 233.696 295.966L245.685 289.592C244.58 288.912 243.9 288.217 243.646 287.508C243.488 287.193 243.42 286.877 243.441 286.56L244.413 286.043L251.393 289.374L235.354 297.902L233.784 297.152ZM264.397 282.988C262.647 283.918 260.56 284.523 258.133 284.804C255.707 285.085 253.119 284.994 250.369 284.531C247.617 284.046 244.915 283.171 242.263 281.905C239.611 280.64 237.741 279.333 236.655 277.987C235.566 276.617 235.234 275.315 235.66 274.079C236.085 272.844 237.172 271.761 238.922 270.831C240.672 269.901 242.759 269.295 245.185 269.014C247.612 268.734 250.2 268.836 252.952 269.321C255.702 269.784 258.404 270.648 261.056 271.913C263.708 273.179 265.578 274.496 266.667 275.866C267.754 277.213 268.085 278.504 267.659 279.739C267.234 280.975 266.147 282.057 264.397 282.988ZM263.699 282.655C266.183 281.334 263.412 278.758 255.386 274.928C247.359 271.098 242.104 269.843 239.62 271.164C237.136 272.485 239.907 275.06 247.933 278.89C255.96 282.721 261.215 283.975 263.699 282.655ZM276.994 275.762L276.47 275.512L278.04 273.973L258.882 264.831L258.062 267.872L256.541 267.8L256.68 261.917L260.18 260.056L283.386 271.131L286.352 270.258L286.876 270.508L276.994 275.762ZM290.441 268.612L289.918 268.362L291.488 266.823L272.329 257.68L271.51 260.722L269.989 260.65L270.128 254.767L273.627 252.906L296.834 263.98L299.8 263.108L300.324 263.357L290.441 268.612ZM291.305 257.59L289.735 256.841L302.695 249.95L304.265 250.699L291.305 257.59ZM314.281 254.352C312.908 253.697 311.912 252.971 311.292 252.174C310.67 251.354 310.308 250.549 310.205 249.759C310.102 248.969 310.074 247.986 310.122 246.81C310.177 245.725 310.168 244.849 310.097 244.183C310.002 243.506 309.729 242.842 309.277 242.19C308.801 241.527 308.04 240.946 306.993 240.447C305.458 239.714 303.914 239.326 302.362 239.283C300.81 239.239 299.483 239.511 298.382 240.096C297.755 240.429 297.211 240.813 296.749 241.246L296.313 241.724L301.897 244.389L301.58 244.663C301.281 244.869 301.013 245.035 300.775 245.161C300.041 245.552 299.214 245.757 298.295 245.776C297.374 245.772 296.519 245.582 295.728 245.204C294.983 244.849 294.521 244.367 294.342 243.758C294.184 243.138 294.402 242.447 294.997 241.685C295.613 240.911 296.667 240.128 298.157 239.335C301.073 237.785 303.861 236.936 306.522 236.789C309.182 236.642 311.641 237.107 313.897 238.184C315.317 238.861 316.192 239.628 316.525 240.484C316.879 241.328 316.896 242.176 316.577 243.026C316.28 243.865 315.741 244.926 314.96 246.21C314.299 247.289 313.815 248.192 313.51 248.917C313.202 249.621 313.065 250.351 313.099 251.108C313.154 251.853 313.518 252.539 314.193 253.166L326.182 246.792C325.077 246.112 324.397 245.417 324.142 244.708C323.985 244.392 323.916 244.077 323.938 243.76L324.91 243.243L331.89 246.574L315.851 255.102L314.281 254.352ZM344.894 240.188C343.144 241.118 341.056 241.723 338.63 242.004C336.204 242.285 333.616 242.194 330.866 241.731C328.114 241.246 325.412 240.371 322.76 239.105C320.108 237.84 318.238 236.533 317.151 235.186C316.063 233.817 315.731 232.515 316.156 231.279C316.582 230.044 317.669 228.961 319.419 228.031C321.168 227.1 323.256 226.495 325.682 226.214C328.108 225.934 330.697 226.036 333.449 226.521C336.199 226.983 338.9 227.847 341.553 229.113C344.205 230.379 346.075 231.696 347.164 233.066C348.251 234.412 348.581 235.704 348.156 236.939C347.731 238.174 346.643 239.257 344.894 240.188ZM344.196 239.855C346.68 238.534 343.909 235.958 335.882 232.128C327.856 228.298 322.601 227.043 320.117 228.364C317.633 229.685 320.404 232.26 328.43 236.09C336.456 239.921 341.712 241.175 344.196 239.855ZM357.49 232.962L356.967 232.712L358.537 231.173L339.378 222.03L338.559 225.072L337.038 225L337.177 219.117L340.676 217.256L363.883 228.331L366.849 227.458L367.373 227.707L357.49 232.962ZM368.072 225.751C366.699 225.096 365.703 224.37 365.083 223.573C364.461 222.754 364.099 221.949 363.996 221.159C363.893 220.368 363.865 219.385 363.913 218.21C363.968 217.124 363.96 216.249 363.888 215.583C363.793 214.905 363.52 214.241 363.068 213.589C362.592 212.927 361.831 212.346 360.784 211.846C359.249 211.113 357.705 210.725 356.153 210.682C354.601 210.639 353.274 210.91 352.173 211.496C351.546 211.829 351.002 212.212 350.54 212.645L350.104 213.124L355.688 215.788L355.371 216.062C355.072 216.268 354.804 216.434 354.566 216.561C353.832 216.951 353.005 217.156 352.086 217.175C351.165 217.172 350.31 216.981 349.519 216.604C348.774 216.248 348.312 215.766 348.133 215.158C347.975 214.537 348.193 213.846 348.788 213.084C349.404 212.31 350.458 211.527 351.948 210.735C354.864 209.184 357.653 208.336 360.313 208.188C362.973 208.041 365.432 208.506 367.688 209.583C369.108 210.261 369.983 211.027 370.316 211.883C370.67 212.728 370.687 213.575 370.368 214.425C370.071 215.264 369.532 216.325 368.751 217.609C368.09 218.688 367.606 219.591 367.301 220.317C366.993 221.02 366.856 221.75 366.89 222.507C366.945 223.252 367.31 223.939 367.984 224.566L379.973 218.191C378.868 217.511 378.188 216.817 377.934 216.107C377.776 215.792 377.707 215.476 377.729 215.159L378.701 214.642L385.681 217.973L369.642 226.501L368.072 225.751Z" fill="#3B3166"/>
<path d="M415.017 334.987L414.706 348.833L62.7852 193.193L63.0746 180.295L91.3169 192.709L415.017 334.987Z" fill="#FAF4FF"/>
<path d="M414.706 348.833L414.396 362.673L62.4746 207.033L62.7852 193.193L414.706 348.833Z" fill="#FAF4FF"/>
<path d="M414.396 362.673L414.096 376.052L62.1744 220.412L62.4746 207.033L414.396 362.673Z" fill="#FAF4FF"/>
<path d="M626.269 237.745L625.958 251.586L414.396 362.673L414.706 348.833L626.269 237.745Z" fill="#FAF4FF"/>
<path d="M625.958 251.586L625.658 264.965L414.096 376.052L414.396 362.673L625.958 251.586Z" fill="#FAF4FF"/>
<path d="M415.017 334.987L601.884 238.104L626.548 225.316L626.269 237.745L414.706 348.833L415.017 334.987Z" fill="#FAF4FF"/>
<path d="M601.884 238.104L415.017 334.987L91.3169 192.709L124.41 175.551L200.408 136.149L276.406 96.7466L475.291 183.087L564.022 221.608L601.884 238.104Z" fill="#CEB4E2"/>
<path d="M63.0746 180.295L274.605 70.6242L276.406 96.7466L200.408 136.149L124.41 175.551L91.3169 192.709L63.0746 180.295Z" fill="#3B3166"/>
<path d="M626.548 225.316L601.884 238.104L564.022 221.608L475.291 183.087L276.406 96.7466L274.605 70.6242L450.577 147.97L626.548 225.316Z" fill="#3B3166"/>
<path d="M415.017 334.987L626.548 225.316M415.017 334.987L414.096 376.052M415.017 334.987L63.0746 180.295M415.017 334.987L601.884 238.104M415.017 334.987L91.3169 192.709M415.017 334.987L414.706 348.833M626.548 225.316L625.658 264.965M626.548 225.316L601.884 238.104M626.548 225.316L626.269 237.745M626.548 225.316L450.577 147.97L274.605 70.6242M625.658 264.965L414.096 376.052M625.658 264.965L625.958 251.586M414.096 376.052L62.1744 220.412M414.096 376.052L414.396 362.673M63.0746 180.295L274.605 70.6242M63.0746 180.295L62.1744 220.412M63.0746 180.295L91.3169 192.709M63.0746 180.295L62.7852 193.193M274.605 70.6242L276.406 96.7466M62.1744 220.412L62.4746 207.033M91.3169 192.709L124.41 175.551L200.408 136.149L276.406 96.7466M601.884 238.104L564.022 221.608L475.291 183.087L276.406 96.7466M414.706 348.833L62.7852 193.193M414.706 348.833L626.269 237.745M414.706 348.833L414.396 362.673M62.7852 193.193L62.4746 207.033M414.396 362.673L62.4746 207.033M414.396 362.673L625.958 251.586M626.269 237.745L625.958 251.586" stroke="#3B3166" stroke-width="2.76879"/>
<path d="M173.804 212.938L176.43 210.566L135.156 190.87L130.596 192.319L129.629 191.857L161.663 174.824L173.271 180.364L171.475 181.319C170.071 181.415 168.596 181.375 167.048 181.2C163.449 180.772 160.295 179.911 157.587 178.618L144.713 185.463L186.309 205.313L190.869 203.865L191.837 204.326L174.772 213.4L173.804 212.938ZM222.759 188.861C217.809 191.493 212.412 192.844 206.568 192.915C200.722 192.944 195.133 191.686 189.802 189.142C184.47 186.598 181.697 183.865 181.482 180.943C181.263 177.98 183.629 175.182 188.579 172.55C193.529 169.918 198.927 168.588 204.774 168.559C210.618 168.488 216.205 169.725 221.536 172.269C226.868 174.813 229.642 177.567 229.861 180.53C230.076 183.452 227.709 186.229 222.759 188.861ZM221.469 188.245C223.066 187.396 223.199 186.111 221.869 184.389C220.579 182.646 217.075 180.41 211.357 177.681C205.639 174.952 201.017 173.31 197.492 172.756C194.007 172.18 191.466 172.317 189.869 173.165C188.272 174.014 188.119 175.311 189.409 177.054C190.739 178.776 194.263 181.001 199.981 183.73C205.699 186.459 210.301 188.111 213.786 188.687C217.311 189.241 219.872 189.094 221.469 188.245ZM236.051 179.191L240.841 176.644C241.007 176.078 240.953 175.348 240.68 174.452C240.185 172.807 238.619 171.254 235.981 169.793L218.154 160.078L212.673 161.691L211.706 161.23L240.147 146.107L241.115 146.569L238.489 148.941L267.187 162.635L272.576 159.77L284.829 165.617L283.033 166.573C281.264 166.776 279.525 166.811 277.814 166.68C273.816 166.463 270.312 165.637 267.303 164.201L244.549 176.299C247.516 177.714 249.323 179.443 249.972 181.484C250.325 182.337 250.368 183.203 250.101 184.083L248.304 185.038L236.051 179.191ZM257.607 167.729L228.587 153.881L219.306 158.815L237.778 168.838C240.287 170.237 241.893 171.769 242.596 173.433C242.9 174.183 243.014 174.881 242.937 175.529L257.607 167.729ZM276.529 158.319L279.154 155.948L250.778 142.407L246.218 143.855L245.251 143.394L262.016 134.479L262.984 134.941L260.358 137.313L271.322 142.545L274.316 140.953C284.694 135.434 293.108 134.214 299.557 137.291C306.006 140.369 304.041 144.667 293.663 150.185L277.496 158.781L276.529 158.319ZM310.428 141.271L309.461 140.809L312.086 138.437L283.711 124.896L279.151 126.345L278.183 125.883L294.949 116.969L295.916 117.431L293.291 119.803L321.667 133.344L326.227 131.895L327.194 132.357L310.428 141.271ZM292.05 149.416C293.807 148.482 294.518 147.432 294.183 146.265C293.845 145.057 292.343 143.816 289.677 142.544C287.012 141.272 284.494 140.594 282.123 140.51C279.749 140.384 277.684 140.788 275.928 141.722L272.934 143.314L289.057 151.008L292.05 149.416ZM223.394 229.015C220.629 230.485 217.666 231.239 214.503 231.277C211.318 231.305 208.283 230.63 205.398 229.253C202.513 227.876 201.023 226.392 200.928 224.799C200.81 223.196 202.134 221.659 204.898 220.189C206.886 219.132 208.748 218.517 210.487 218.344C212.246 218.159 213.661 218.323 214.731 218.833C215.522 219.211 215.935 219.637 215.97 220.111C216.004 220.563 215.653 220.984 214.919 221.374C214.616 221.535 214.291 221.685 213.942 221.823L213.448 221.98L208.214 219.482L207.585 219.64C207.145 219.757 206.698 219.936 206.244 220.177C205.013 220.832 204.68 221.643 205.245 222.61C205.832 223.565 207.719 224.803 210.906 226.324C214 227.801 216.511 228.661 218.436 228.905C220.361 229.125 221.938 228.909 223.17 228.254C224.012 227.806 224.58 227.293 224.874 226.714C225.167 226.112 225.169 225.536 224.882 224.985C224.593 224.411 224.076 223.946 223.331 223.591L224.141 223.16C225.072 223.604 225.697 224.164 226.016 224.839C226.335 225.515 226.286 226.221 225.869 226.959C225.429 227.687 224.604 228.372 223.394 229.015ZM240.414 219.965C237.735 221.39 234.815 222.121 231.653 222.159C228.489 222.175 225.464 221.494 222.579 220.118C219.695 218.741 218.194 217.262 218.077 215.681C217.959 214.077 219.239 212.563 221.918 211.139C224.596 209.715 227.518 208.995 230.682 208.979C233.844 208.941 236.867 209.61 239.752 210.987C242.637 212.364 244.138 213.854 244.257 215.458C244.373 217.039 243.092 218.541 240.414 219.965ZM239.716 219.632C240.58 219.173 240.652 218.477 239.932 217.546C239.234 216.602 237.338 215.392 234.244 213.916C231.15 212.439 228.649 211.551 226.741 211.251C224.855 210.939 223.48 211.013 222.616 211.472C221.752 211.932 221.669 212.633 222.367 213.576C223.087 214.508 224.993 215.712 228.088 217.189C231.182 218.666 233.672 219.56 235.558 219.871C237.466 220.171 238.852 220.092 239.716 219.632ZM257.767 210.739C256.363 211.485 254.898 212.017 253.373 212.336C251.846 212.631 250.405 212.728 249.051 212.627C247.673 212.514 246.508 212.23 245.554 211.775L246.364 211.344C247.132 211.711 248.091 211.94 249.243 212.032C250.394 212.124 251.591 212.063 252.832 211.849C254.072 211.612 255.21 211.218 256.247 210.667C258.731 209.346 258.577 208.019 255.785 206.687C254.436 206.043 253.12 205.699 251.837 205.653C250.554 205.607 249.448 205.832 248.519 206.325L246.413 207.445L245.541 207.029L246.999 206.254C247.928 205.76 248.336 205.203 248.223 204.582C248.11 203.961 247.448 203.363 246.238 202.785C245.029 202.208 243.806 201.908 242.569 201.884C241.333 201.861 240.25 202.096 239.322 202.59C238.782 202.877 238.375 203.152 238.103 203.414L237.726 203.79L242.961 206.288L242.645 206.562C242.345 206.768 242.077 206.934 241.839 207.061C241.105 207.451 240.278 207.656 239.359 207.675C238.439 207.672 237.583 207.481 236.792 207.104C235.722 206.593 235.333 205.884 235.625 204.978C235.939 204.06 237.155 203.038 239.272 201.912C241.064 200.959 242.754 200.272 244.339 199.852C245.924 199.432 247.325 199.25 248.541 199.308C249.756 199.342 250.77 199.554 251.585 199.943C252.562 200.409 253.049 200.925 253.045 201.49C253.064 202.043 252.794 202.644 252.235 203.293C251.676 203.92 250.856 204.531 249.778 205.128L249.953 205.211C251.121 204.614 252.408 204.117 253.816 203.721C255.114 203.359 256.401 203.167 257.679 203.145C258.934 203.112 260.085 203.345 261.131 203.845C262.667 204.577 263.241 205.516 262.854 206.661C262.444 207.794 260.748 209.154 257.767 210.739ZM264.82 205.58L267.412 204.202C267.501 203.896 267.472 203.501 267.324 203.016C267.057 202.126 266.209 201.286 264.782 200.495L255.135 195.238L252.169 196.111L251.646 195.861L267.036 187.678L267.56 187.928L266.139 189.211L281.668 196.622L284.584 195.072L291.215 198.236L290.243 198.752C289.286 198.862 288.344 198.882 287.419 198.811C285.255 198.693 283.359 198.246 281.731 197.469L269.418 204.016C271.024 204.782 272.002 205.717 272.352 206.821C272.543 207.283 272.567 207.752 272.422 208.228L271.45 208.745L264.82 205.58ZM276.484 199.378L260.78 191.885L255.758 194.555L265.754 199.979C267.111 200.735 267.981 201.564 268.361 202.465C268.526 202.871 268.587 203.249 268.546 203.599L276.484 199.378ZM294.088 191.427C292.166 192.449 290.244 193.025 288.323 193.154C286.402 193.283 284.755 193.021 283.383 192.366C282.476 191.933 281.763 191.408 281.247 190.79C280.979 190.51 280.79 190.224 280.678 189.931C281.331 189.349 282.083 188.738 282.934 188.098C284.848 186.658 286.655 185.439 288.355 184.441L287.308 183.941C284.725 182.709 282.654 182.015 281.094 181.859C279.533 181.702 278.148 181.946 276.939 182.589C276.485 182.83 276.154 183.065 275.947 183.292L275.667 183.617L280.902 186.115L280.586 186.389C280.286 186.595 280.018 186.761 279.781 186.887C279.046 187.278 278.219 187.483 277.301 187.502C276.38 187.498 275.524 187.308 274.733 186.93C273.663 186.42 273.252 185.723 273.502 184.839C273.772 183.944 274.901 182.968 276.889 181.911C278.573 181.016 280.346 180.401 282.208 180.069C284.067 179.714 285.88 179.642 287.646 179.853C289.411 180.042 291.026 180.485 292.492 181.185L301.914 185.681L304.382 184.897L304.905 185.147L301.989 186.698C300.693 187.387 299.258 187.715 297.685 187.684C297.033 187.678 296.354 187.593 295.646 187.43C295.925 187.868 296.092 188.308 296.147 188.748C296.222 189.764 295.535 190.657 294.088 191.427ZM294.163 190.155C294.962 189.73 295.22 189.123 294.938 188.334C294.826 188.041 294.61 187.687 294.287 187.272L289.227 184.857C288.233 185.386 287.341 185.919 286.55 186.457C285.974 186.857 285.578 187.126 285.364 187.263C285.512 187.443 285.753 187.667 286.087 187.935C286.755 188.472 287.519 188.946 288.38 189.357C289.683 189.978 290.832 190.341 291.827 190.446C292.823 190.55 293.601 190.453 294.163 190.155ZM306.864 184.105L306.341 183.856L307.762 182.572L292.407 175.245L289.939 176.029L289.416 175.779L298.488 170.955L299.012 171.205L297.591 172.488L304.745 175.902L309.605 173.318L302.451 169.904L299.984 170.688L299.46 170.438L308.532 165.614L309.056 165.864L307.635 167.148L322.99 174.475L325.458 173.691L325.981 173.941L316.909 178.765L316.385 178.515L317.806 177.232L310.477 173.734L305.617 176.319L312.946 179.816L315.413 179.032L315.937 179.282L306.864 184.105ZM328.571 172.564L328.047 172.314L329.468 171.031L314.113 163.704L311.645 164.487L311.122 164.238L320.194 159.414L320.718 159.664L319.297 160.947L330.813 166.443L326.401 159.107L324.481 158.191L322.014 158.975L321.49 158.725L330.563 153.901L331.086 154.151L329.666 155.434L345.02 162.762L347.488 161.978L348.011 162.228L338.939 167.051L338.416 166.802L339.836 165.518L328.32 160.023L332.733 167.359L334.652 168.275L337.12 167.491L337.643 167.74L328.571 172.564ZM348.936 161.208L350.032 160.097L347.141 157.409C346.37 156.693 346.473 155.816 347.452 154.779C347.871 154.369 348.457 153.94 349.209 153.493L349.035 153.41C348.018 153.927 346.86 154.355 345.56 154.694C342.872 155.372 340.632 155.284 338.84 154.429C337.398 153.741 336.882 152.83 337.292 151.696C337.724 150.551 339.42 149.192 342.379 147.618L350.965 143.053L351.489 143.303L350.068 144.586L365.423 151.914L367.891 151.13L368.414 151.38L359.342 156.203L358.818 155.953L360.239 154.67L353.608 151.506L351.016 152.884L354.444 155.991C354.974 156.484 355.173 157.047 355.04 157.681C354.905 158.292 354.341 158.862 353.347 159.39L349.459 161.458L348.936 161.208ZM352.736 151.09L344.71 147.259L343.251 148.035C342.323 148.528 341.926 149.091 342.063 149.723C342.176 150.343 342.884 150.965 344.187 151.586C345.489 152.208 346.771 152.536 348.03 152.571C349.266 152.594 350.349 152.359 351.278 151.865L352.736 151.09ZM254.784 251.152C253.411 250.497 252.415 249.771 251.795 248.974C251.173 248.154 250.811 247.349 250.708 246.559C250.605 245.769 250.577 244.786 250.625 243.61C250.68 242.525 250.672 241.649 250.6 240.983C250.505 240.306 250.232 239.641 249.78 238.99C249.305 238.327 248.544 237.746 247.497 237.246C245.961 236.514 244.417 236.126 242.865 236.082C241.313 236.039 239.986 236.31 238.885 236.896C238.258 237.229 237.714 237.612 237.252 238.046L236.816 238.524L242.4 241.189L242.083 241.463C241.784 241.669 241.516 241.835 241.278 241.961C240.544 242.352 239.717 242.556 238.798 242.576C237.878 242.572 237.022 242.382 236.231 242.004C235.486 241.649 235.024 241.167 234.845 240.558C234.687 239.938 234.905 239.247 235.5 238.485C236.117 237.711 237.17 236.928 238.66 236.135C241.577 234.585 244.365 233.736 247.025 233.589C249.685 233.442 252.144 233.907 254.401 234.984C255.82 235.661 256.696 236.428 257.028 237.284C257.382 238.128 257.4 238.976 257.081 239.826C256.783 240.665 256.244 241.726 255.463 243.01C254.802 244.089 254.319 244.991 254.013 245.717C253.706 246.421 253.569 247.151 253.602 247.907C253.657 248.653 254.022 249.339 254.696 249.966L266.685 243.592C265.58 242.912 264.9 242.217 264.646 241.507C264.488 241.192 264.42 240.876 264.441 240.56L265.413 240.043L272.393 243.374L256.354 251.901L254.784 251.152ZM285.397 236.987C283.647 237.918 281.56 238.523 279.133 238.804C276.707 239.084 274.119 238.994 271.369 238.531C268.617 238.046 265.915 237.171 263.263 235.905C260.611 234.639 258.741 233.333 257.655 231.986C256.566 230.617 256.234 229.315 256.66 228.079C257.085 226.844 258.172 225.761 259.922 224.831C261.672 223.9 263.759 223.295 266.185 223.014C268.612 222.734 271.2 222.836 273.952 223.321C276.702 223.783 279.404 224.647 282.056 225.913C284.708 227.179 286.578 228.496 287.667 229.866C288.754 231.212 289.085 232.503 288.659 233.739C288.234 234.974 287.147 236.057 285.397 236.987ZM284.699 236.654C287.183 235.334 284.412 232.758 276.386 228.928C268.359 225.098 263.104 223.843 260.62 225.164C258.136 226.484 260.907 229.06 268.933 232.89C276.96 236.72 282.215 237.975 284.699 236.654ZM297.994 229.762L297.47 229.512L299.04 227.973L279.882 218.83L279.062 221.872L277.541 221.8L277.68 215.917L281.18 214.056L304.386 225.13L307.352 224.258L307.876 224.507L297.994 229.762ZM311.441 222.612L310.918 222.362L312.488 220.823L293.329 211.68L292.51 214.721L290.989 214.65L291.128 208.766L294.627 206.906L317.834 217.98L320.8 217.107L321.324 217.357L311.441 222.612ZM312.305 211.59L310.735 210.841L323.695 203.949L325.265 204.699L312.305 211.59ZM335.281 208.352C333.908 207.697 332.912 206.971 332.292 206.174C331.67 205.354 331.308 204.549 331.205 203.759C331.102 202.969 331.074 201.986 331.122 200.81C331.177 199.725 331.168 198.849 331.097 198.183C331.002 197.506 330.729 196.841 330.277 196.19C329.801 195.527 329.04 194.946 327.993 194.446C326.458 193.714 324.914 193.326 323.362 193.282C321.81 193.239 320.483 193.51 319.382 194.096C318.755 194.429 318.211 194.812 317.749 195.246L317.313 195.724L322.897 198.389L322.58 198.663C322.281 198.869 322.013 199.035 321.775 199.161C321.041 199.552 320.214 199.756 319.295 199.775C318.374 199.772 317.519 199.582 316.728 199.204C315.983 198.849 315.521 198.367 315.342 197.758C315.184 197.138 315.402 196.447 315.997 195.684C316.613 194.911 317.667 194.128 319.157 193.335C322.073 191.785 324.861 190.936 327.522 190.789C330.182 190.642 332.641 191.107 334.897 192.184C336.317 192.861 337.192 193.628 337.525 194.484C337.879 195.328 337.896 196.176 337.577 197.026C337.28 197.865 336.741 198.926 335.96 200.21C335.299 201.289 334.815 202.191 334.51 202.917C334.202 203.62 334.065 204.35 334.099 205.107C334.154 205.853 334.518 206.539 335.193 207.166L347.182 200.792C346.077 200.112 345.397 199.417 345.142 198.707C344.985 198.392 344.916 198.076 344.938 197.76L345.91 197.243L352.89 200.574L336.851 209.101L335.281 208.352ZM365.894 194.187C364.144 195.118 362.056 195.723 359.63 196.004C357.204 196.284 354.616 196.193 351.866 195.731C349.114 195.246 346.412 194.371 343.76 193.105C341.108 191.839 339.238 190.533 338.151 189.186C337.063 187.817 336.731 186.514 337.156 185.279C337.582 184.044 338.669 182.961 340.419 182.03C342.168 181.1 344.256 180.495 346.682 180.214C349.108 179.933 351.697 180.036 354.449 180.521C357.199 180.983 359.9 181.847 362.553 183.113C365.205 184.379 367.075 185.696 368.164 187.065C369.251 188.412 369.581 189.703 369.156 190.939C368.731 192.174 367.643 193.257 365.894 194.187ZM365.196 193.854C367.68 192.533 364.909 189.958 356.882 186.128C348.856 182.297 343.601 181.043 341.117 182.364C338.633 183.684 341.404 186.26 349.43 190.09C357.456 193.92 362.712 195.175 365.196 193.854ZM378.49 186.962L377.967 186.712L379.537 185.173L360.378 176.03L359.559 179.071L358.038 179L358.177 173.116L361.676 171.256L384.883 182.33L387.849 181.457L388.373 181.707L378.49 186.962ZM389.072 179.751C387.699 179.096 386.703 178.37 386.083 177.573C385.461 176.753 385.099 175.948 384.996 175.158C384.893 174.368 384.865 173.385 384.913 172.21C384.968 171.124 384.96 170.248 384.888 169.582C384.793 168.905 384.52 168.241 384.068 167.589C383.592 166.926 382.831 166.345 381.784 165.846C380.249 165.113 378.705 164.725 377.153 164.682C375.601 164.638 374.274 164.91 373.173 165.495C372.546 165.828 372.002 166.212 371.54 166.645L371.104 167.123L376.688 169.788L376.371 170.062C376.072 170.268 375.804 170.434 375.566 170.56C374.832 170.951 374.005 171.156 373.086 171.175C372.165 171.171 371.31 170.981 370.519 170.603C369.774 170.248 369.312 169.766 369.133 169.157C368.975 168.537 369.193 167.846 369.788 167.084C370.404 166.31 371.458 165.527 372.948 164.735C375.864 163.184 378.653 162.335 381.313 162.188C383.973 162.041 386.432 162.506 388.688 163.583C390.108 164.26 390.983 165.027 391.316 165.883C391.67 166.727 391.687 167.575 391.368 168.425C391.071 169.264 390.532 170.325 389.751 171.609C389.09 172.688 388.606 173.591 388.301 174.316C387.993 175.02 387.856 175.75 387.89 176.507C387.945 177.252 388.31 177.938 388.984 178.565L400.973 172.191C399.868 171.511 399.188 170.816 398.934 170.107C398.776 169.791 398.707 169.476 398.729 169.159L399.701 168.642L406.681 171.973L390.642 180.501L389.072 179.751Z" fill="#3B3166"/>
</svg>
