<svg width="78" height="550" viewBox="0 0 78 550" fill="none" xmlns="http://www.w3.org/2000/svg">
<path d="M76.1995 301.249L22.0504 286.528C7.29555 289.27 -39.6623 292.676 -93.9832 286.095L-152 301.249V531.584C-110.887 543.995 -7.68855 561.372 76.1995 531.584V301.249Z" fill="#DF85AB"/>
<path d="M15.1744 14.1961C0.992477 4.23801 -40.9515 -9.70331 -86.6774 14.1961L-96.9915 270.942C-95.9852 271.071 -94.9824 271.198 -93.9832 271.32C-72.6447 273.942 -52.9302 275 -35.7514 275.134C-18.688 275 0.877029 273.956 22.0504 271.373C23.1918 271.234 24.3379 271.09 25.4885 270.942L15.1744 14.1961Z" fill="#FAF4FF"/>
<path d="M-35.7514 275.134C-62.3944 275.343 -82.9384 273.331 -93.9832 271.485V286.095C-39.6623 292.676 7.29555 289.27 22.0504 286.528V271.556C10.9073 273.382 -9.45027 275.34 -35.7514 275.134Z" fill="#FAF4FF"/>
<path d="M22.0504 286.528L76.1995 301.249V531.584C-7.68855 561.372 -110.887 543.996 -152 531.584V301.249L-93.9832 286.095M22.0504 286.528V271.556M22.0504 286.528C7.29554 289.27 -39.6623 292.676 -93.9832 286.095M-96.9915 270.942L-86.6774 14.1961C-40.9515 -9.70331 0.992479 4.23801 15.1744 14.1961L25.4885 270.942M-96.9915 270.942C-96.0848 271.12 -95.0809 271.301 -93.9832 271.485M-96.9915 270.942C-95.9852 271.071 -94.9824 271.198 -93.9832 271.32M25.4885 270.942C24.3379 271.09 23.1918 271.234 22.0504 271.373M25.4885 270.942C24.4647 271.143 23.3171 271.348 22.0504 271.556M-93.9832 271.485C-82.9384 273.331 -62.3944 275.343 -35.7514 275.134M-93.9832 271.485V286.095M-93.9832 271.485V271.32M-35.7514 275.134C-18.688 275 0.877036 273.956 22.0504 271.373M-35.7514 275.134C-9.45027 275.34 10.9073 273.382 22.0504 271.556M-35.7514 275.134C-52.9302 275 -72.6447 273.942 -93.9832 271.32M22.0504 271.373V271.556" stroke="black" stroke-width="2"/>
</svg>
