<svg width="1153" height="207" viewBox="0 0 1153 207" fill="none" xmlns="http://www.w3.org/2000/svg">
<path d="M1116.5 37.4998H36.9999V169.368L1116.5 167.934V37.4998Z" fill="#FAF4FF"/>
<path d="M36.9999 169.368V37.4998L1.33337 1.56543V206L36.9999 169.368Z" fill="#CEB4E2"/>
<path fill-rule="evenodd" clip-rule="evenodd" d="M1151.67 204.565V1.56543H1.33337L36.9999 37.4998H1116.5V167.934L1151.67 204.565Z" fill="#CEB4E2"/>
<path d="M1116.5 167.934L36.9999 169.368L1.33337 206L1151.67 204.565L1116.5 167.934Z" fill="#CEB4E2"/>
<path d="M36.9999 37.4998H1116.5M36.9999 37.4998V169.368M36.9999 37.4998L1.33337 1.56543M1116.5 37.4998V167.934M1116.5 37.4998L1151.67 1.56543M1116.5 167.934L36.9999 169.368M1116.5 167.934L1151.67 204.565M36.9999 169.368L1.33337 206M1.33337 1.56543V206M1.33337 1.56543H1151.67M1.33337 206L1151.67 204.565M1151.67 204.565V1.56543" stroke="#3B3166" stroke-width="2"/>
</svg>
