<svg width="1440" height="141" viewBox="0 0 1440 141" fill="none" xmlns="http://www.w3.org/2000/svg">
<path d="M-13.9628 4.66917e-07L-13.9628 4.27273C-13.9628 15.3818 0.810643 24.2121 30.3574 30.7636C58.8099 37.3151 101.489 40.5909 158.394 40.5909H462.069C564.936 40.5909 638.256 51.9849 682.029 74.7727C701.727 84.4576 713.217 95.8515 716.5 108.955C719.783 95.8515 731.273 84.4576 750.971 74.7727C794.744 51.9849 868.064 40.5909 970.931 40.5909H1274.61C1331.51 40.5909 1374.19 37.3152 1402.64 30.7636C1432.19 24.2121 1446.96 15.3818 1446.96 4.27274V1.70892e-05L1488 1.75561e-05V25.6364C1488 42.7273 1476.51 57.5394 1453.53 70.0727C1431.64 82.8909 1402.1 92.5758 1364.89 99.1273C1327.68 105.679 1286.64 108.955 1241.78 108.955L905.271 108.955C849.461 108.955 807.876 111.803 780.518 117.5C754.254 123.197 741.122 131.03 741.122 141H691.878C691.878 131.03 678.199 123.197 650.84 117.5C624.577 111.803 583.539 108.955 527.729 108.955L191.223 108.955C146.356 108.955 105.319 105.679 68.1117 99.1273C30.9046 92.5758 1.3578 82.8909 -20.5287 70.0727C-43.5096 57.5394 -55 42.7273 -55 25.6364L-55 0L-13.9628 4.66917e-07Z" fill="#FAF4FF"/>
</svg>
