<svg width="126" height="336" viewBox="0 0 126 336" fill="none" xmlns="http://www.w3.org/2000/svg">
<path d="M52 76.5H79.5304V31.0331C79.5304 29.3646 78.418 28.1133 77.8619 27.6961H73.2735H58.2569H53.6685C53.1123 28.1133 52 29.3646 52 31.0331V76.5Z" fill="#DF85AB"/>
<path d="M70.3536 15.1823H65.7652H60.3425H59.9254C59.3692 15.5994 58.2569 16.8508 58.2569 18.5193V27.6961H73.2735V18.5193C73.2735 16.8508 72.1611 15.5994 71.605 15.1823H70.3536Z" fill="#DF85AB"/>
<path d="M65.7652 15.1823H70.3536V9.34254H71.605C72.1611 8.92541 73.2735 7.67403 73.2735 6.00552V4.33702C73.2735 2.66851 72.1611 1.41713 71.605 1H62.011C61.4549 1.41713 60.3425 2.66851 60.3425 4.33702V15.1823H65.7652Z" fill="#DF85AB"/>
<path d="M58.2569 27.6961V18.5193C58.2569 16.8508 59.3692 15.5994 59.9254 15.1823M58.2569 27.6961H77.8619M58.2569 27.6961H53.6685C53.1123 28.1133 52 29.3646 52 31.0331V76.5H79.5304V31.0331C79.5304 29.3646 78.418 28.1133 77.8619 27.6961M58.2569 27.6961H73.2735M73.2735 27.6961V18.5193C73.2735 16.8508 72.1611 15.5994 71.605 15.1823M73.2735 27.6961H77.8619M70.3536 15.1823H65.7652H60.3425M70.3536 15.1823V9.34254H71.605C72.1611 8.92541 73.2735 7.67403 73.2735 6.00552V4.33702C73.2735 2.66851 72.1611 1.41713 71.605 1H62.011C61.4549 1.41713 60.3425 2.66851 60.3425 4.33702V15.1823M70.3536 15.1823H60.3425M70.3536 15.1823H71.605M60.3425 15.1823H59.9254M59.9254 15.1823H71.605" stroke="black" stroke-width="2"/>
<path d="M75.7759 40.9585C72.856 44.7126 72.856 51.8038 75.7759 55.1408H108.729C111.649 51.8038 111.649 44.7126 108.729 40.9585H75.7759Z" fill="#8EBCDD"/>
<path d="M108.729 55.1408H75.7759C75.2197 55.5579 74.1074 56.8093 74.1074 58.4778L74.1073 73.9115C74.1073 75.58 75.2197 76.8314 75.7759 77.2486H108.729C109.285 76.8314 110.397 75.58 110.397 73.9115L110.397 58.4778C110.397 56.8093 109.285 55.5579 108.729 55.1408Z" fill="#8EBCDD"/>
<path d="M75.7759 55.1408C72.856 51.8038 72.856 44.7126 75.7759 40.9585H108.729C111.649 44.7126 111.649 51.8038 108.729 55.1408M75.7759 55.1408H108.729M75.7759 55.1408C75.2197 55.5579 74.1074 56.8093 74.1074 58.4778L74.1073 73.9115C74.1073 75.58 75.2197 76.8314 75.7759 77.2486H108.729C109.285 76.8314 110.397 75.58 110.397 73.9115L110.397 58.4778C110.397 56.8093 109.285 55.5579 108.729 55.1408" stroke="black" stroke-width="2"/>
<path d="M16 334.5H33V185H92.5V334.5H110.5V158.5H16V334.5Z" fill="#CEB4E2"/>
<path d="M110.5 158.5H124.5V145H56H1V158.5H13.5H16H110.5Z" fill="#CEB4E2"/>
<path d="M18.5 105.5H1V140.5V145H56V136.5V105.5H18.5Z" fill="#CEB4E2"/>
<path d="M124.5 145L116 136.5H56V145H124.5Z" fill="#CEB4E2"/>
<path d="M116 136.5H124.5V77H23L18.5 105.5H56V136.5H116Z" fill="#CEB4E2"/>
<path d="M110.5 158.5V334.5H92.5V185H33V334.5H16V158.5M110.5 158.5H124.5V145M110.5 158.5H16M124.5 145L116 136.5M124.5 145H1M124.5 145H56M116 136.5H124.5V77H23L18.5 105.5M116 136.5H56M18.5 105.5H1M18.5 105.5H56M1 105.5V140.5V145M1 105.5H56M16 158.5H13.5H1V145M56 136.5V145M56 136.5V105.5M56 145H1" stroke="black" stroke-width="2"/>
<path d="M12.043 104H0.999789V87.7069H12.043V104Z" fill="#8EBCDD"/>
<path d="M0.999789 83H12.043V87.7069H0.999789V83Z" fill="#8EBCDD"/>
<path d="M12.043 87.7069V104H0.999789V87.7069M12.043 87.7069V83H0.999789V87.7069M12.043 87.7069H0.999789" stroke="black" stroke-width="2"/>
<path d="M29.5783 104V76.9523H28.2497H27.3006H19.8032H18V104H29.5783Z" fill="#7DBAB2"/>
<path d="M19.8032 73.0612V76.9523H27.3006V73.0612H19.8032Z" fill="#7DBAB2"/>
<path d="M23.6943 55.5988C19.8032 53.9776 19.8032 55.9784 19.8032 57.6867V73.0612H27.3006V61.0084C27.1488 57.8196 24.8331 56.0733 23.6943 55.5988Z" fill="#7DBAB2"/>
<path d="M19.8032 76.9523H18V104H29.5783V76.9523H28.2497H27.3006M19.8032 76.9523V73.0612M19.8032 76.9523H27.3006M27.3006 61.0084C27.1488 57.8196 24.8331 56.0733 23.6943 55.5988C19.8032 53.9776 19.8032 55.9784 19.8032 57.6867V73.0612M27.3006 61.0084V76.9523M27.3006 61.0084V73.0612M19.8032 73.0612H27.3006M27.3006 73.0612V76.9523" stroke="black" stroke-width="2"/>
<path d="M34.9998 104V76.9523H36.3285H37.2775H44.7749H46.5781V104H34.9998Z" fill="#EAC009"/>
<path d="M44.7749 73.0612V76.9523H37.2775V73.0612H44.7749Z" fill="#EAC009"/>
<path d="M40.8839 55.5988C44.7749 53.9776 44.7749 55.9784 44.7749 57.6867V73.0612H37.2775V61.0084C37.4294 57.8196 39.745 56.0733 40.8839 55.5988Z" fill="#EAC009"/>
<path d="M44.7749 76.9523H46.5781V104H34.9998V76.9523H36.3285H37.2775M44.7749 76.9523V73.0612M44.7749 76.9523H37.2775M37.2775 61.0084C37.4294 57.8196 39.745 56.0733 40.8839 55.5988C44.7749 53.9776 44.7749 55.9784 44.7749 57.6867V73.0612M37.2775 61.0084V76.9523M37.2775 61.0084V73.0612M44.7749 73.0612H37.2775M37.2775 73.0612V76.9523" stroke="black" stroke-width="2"/>
</svg>
