<svg width="126" height="271" viewBox="0 0 126 271" fill="none" xmlns="http://www.w3.org/2000/svg">
<path d="M16 270H33V120.5H92.5V270H110.5V94H16V270Z" fill="#CEB4E2"/>
<path d="M110.5 94H124.5V80.5H1V94H13.5H16H110.5Z" fill="#CEB4E2"/>
<path d="M1 80.5H124.5L117.5 72H9L1 80.5Z" fill="#CEB4E2"/>
<path d="M110.5 94V270H92.5V120.5H33V270H16V94M110.5 94H124.5V80.5M110.5 94H13.5M110.5 94H16M124.5 80.5H1M124.5 80.5L117.5 72H9L1 80.5M13.5 94H1V80.5M13.5 94H16" stroke="black" stroke-width="2"/>
<path d="M66 33.5306V76H106V33.5306L103.083 30.1667H69.75L66 33.5306Z" fill="#7DBAB2"/>
<path d="M95.1667 43.5H76V61.8333H95.1667V43.5Z" fill="#EAC009"/>
<path d="M79.3333 30.1667V22.6667C76.9722 22.6667 72.25 21.75 72.25 18.0833C71.9722 16.5556 72.9997 13.5 79.333 13.5H92.667C99.0003 13.5 100.028 16.5556 99.75 18.0833C99.75 21.75 95.0278 22.6667 92.6667 22.6667V30.1667H79.3333Z" fill="#EAC009"/>
<path d="M92.6667 30.1667H79.3333V22.6667C76.9722 22.6667 72.25 21.75 72.25 18.0833C71.9722 16.5556 72.9997 13.5 79.333 13.5M92.6667 30.1667V22.6667C95.0278 22.6667 99.75 21.75 99.75 18.0833C100.028 16.5556 99.0003 13.5 92.667 13.5H79.333M92.6667 30.1667V21.4167M79.333 13.5H93.4996M66 33.5306V76H106V33.5306L103.083 30.1667H69.75L66 33.5306ZM76 43.5H95.1667V61.8333H76V43.5Z" stroke="black" stroke-width="2"/>
<path d="M11 25.0367V76H59V25.0367L55.5 21H15.5L11 25.0367Z" fill="#8EBCDD"/>
<path d="M46 37H23V59H46V37Z" fill="#DF85AB"/>
<path d="M27 21V12C24.1667 12 18.5 10.9 18.5 6.5C18.1667 4.66667 19.3996 1 26.9996 1H43.0004C50.6004 1 51.8333 4.66667 51.5 6.5C51.5 10.9 45.8333 12 43 12V21H27Z" fill="#DF85AB"/>
<path d="M43 21H27V12C24.1667 12 18.5 10.9 18.5 6.5C18.1667 4.66667 19.3996 1 26.9996 1M43 21V12C45.8333 12 51.5 10.9 51.5 6.5C51.8333 4.66667 50.6004 1 43.0004 1H26.9996M43 21V10.5M26.9996 1H43.9995M11 25.0367V76H59V25.0367L55.5 21H15.5L11 25.0367ZM23 37H46V59H23V37Z" stroke="black" stroke-width="2"/>
</svg>
