<svg width="1440" height="1104" viewBox="0 0 1440 1104" fill="none" xmlns="http://www.w3.org/2000/svg">
<path d="M1441.5 179.5L-0.5 510.5V1102.5H1441.5V179.5Z" fill="#FAF4FF" stroke="#3B3166" stroke-width="2"/>
<path d="M49.0001 48.5V498.866L331 434.019V48.5H49.0001Z" fill="#FAF4FF"/>
<path d="M661 358.134V48.5H380V422.751L661 358.134Z" fill="#FAF4FF"/>
<path d="M685.5 352.5V1H355.25L355 428.5L380 422.751V48.5H661V358.134L685.5 352.5Z" fill="#CEB4E2"/>
<path d="M25.0001 1L24.5001 504.5L49.0001 498.866V48.5H331V434.019L355 428.5L355.25 1H25.0001Z" fill="#CEB4E2"/>
<path d="M685.5 1V352.5L661 358.134M685.5 1H355.25M685.5 1H25.0001M25.0001 1L24.5001 504.5M25.0001 1H355.25M24.5001 504.5L1466 174L733 342.067L0 510.134L24.5001 504.5ZM24.5001 504.5L49.0001 498.866M355 428.5L355.25 1M355 428.5L380 422.751M355 428.5L331 434.019M49.0001 498.866V48.5H331V434.019M49.0001 498.866L331 434.019M661 358.134V48.5H380V422.751M661 358.134L380 422.751M380 422.751L331 434.019" stroke="#3B3166" stroke-width="2"/>
</svg>
