<svg width="1440" height="923" viewBox="0 0 1440 923" fill="none" xmlns="http://www.w3.org/2000/svg">
<path d="M73.9905 163.5C104.155 146.968 143.313 140.184 185.71 163.5L222 30.0316H40L73.9905 163.5Z" fill="#3B3166"/>
<path d="M0 30.0316V177L13.5 190.5L27 204C37.3991 190.227 53.6505 174.648 73.9905 163.5L40 30.0316H0Z" fill="#3B3166"/>
<path d="M262.091 31V30.0316H222L185.71 163.5C201.779 172.337 218.313 185.498 235 204.091L248 191.091L262.091 177V31Z" fill="#3B3166"/>
<path d="M490 445H469V527H490V445Z" fill="#FAF4FF"/>
<path d="M599 613V527H490V613H599Z" fill="#FAF4FF"/>
<path d="M469 527V613H490V527H469Z" fill="#FAF4FF"/>
<path d="M599 696V613H490V696H599Z" fill="#FAF4FF"/>
<path d="M490 780H599V696H490V780Z" fill="#FAF4FF"/>
<path d="M469 613V696H490V613H469Z" fill="#FAF4FF"/>
<path d="M469 696V780H490V696H469Z" fill="#FAF4FF"/>
<path d="M831 527V613H937V527H831Z" fill="#FAF4FF"/>
<path d="M831 780H937V696H831V780Z" fill="#FAF4FF"/>
<path d="M937 445H831V527H937V445Z" fill="#FAF4FF"/>
<path d="M960 696V613H937V696H960Z" fill="#FAF4FF"/>
<path d="M960 780V696H937V780H960Z" fill="#FAF4FF"/>
<path d="M960 613V527H937V613H960Z" fill="#FAF4FF"/>
<path d="M960 445H937V527H960V445Z" fill="#FAF4FF"/>
<path d="M621 769L621.5 445H705.5L705 769H621Z" fill="#FAF4FF"/>
<path d="M725 769.5L725.5 445H811.5L811 769.5H725Z" fill="#FAF4FF"/>
<path d="M725 856V780H811V856H725Z" fill="#FAF4FF"/>
<path d="M621 780H705V856H621V780Z" fill="#FAF4FF"/>
<path d="M621 866H705V878H621V866Z" fill="#FAF4FF"/>
<path d="M725.5 866H811.5V878H725.5V866Z" fill="#FAF4FF"/>
<path d="M621 423H705V435H621V423Z" fill="#FAF4FF"/>
<path d="M725 423H811V435H725V423Z" fill="#FAF4FF"/>
<path d="M831 435H960V423H831V435Z" fill="#FAF4FF"/>
<path d="M469 435H599V423H469V435Z" fill="#FAF4FF"/>
<path d="M60 365V867H237V365H60Z" fill="#FAF4FF"/>
<path d="M25 902L60 867V365H25V902Z" fill="#FAF4FF"/>
<path d="M1416 902L1381 867V365H1195V902H1416Z" fill="#FAF4FF"/>
<path d="M1381 867L1416 902V365H1381V867Z" fill="#FAF4FF"/>
<path d="M60 867L25 902H237V867H60Z" fill="#FAF4FF"/>
<path d="M1211 30.5321H1169.41V31V175L1183.41 189L1196.41 202C1207.52 189.002 1224.1 174.446 1244.27 163.5L1211 30.5321Z" fill="#3B3166"/>
<path d="M1244.27 163.5C1278.31 145.025 1322.57 136.837 1368 163.797L1399 30.5321H1305H1211L1244.27 163.5Z" fill="#3B3166"/>
<path d="M1441 177V30.5321H1399L1368 163.797C1383.32 172.886 1398.76 185.969 1414 204L1427 191L1441 177Z" fill="#3B3166"/>
<path d="M253.588 7.00653H0V30.0316H40H222H262.091L253.588 7.00653Z" fill="#3B3166"/>
<path d="M1441 7.50707H1177.91L1169.41 30.5321H1211H1305H1399H1441V7.50707Z" fill="#3B3166"/>
<path d="M597 110.957C635.07 106.806 675.054 105.063 715 105.538C755.025 106.015 795.013 108.718 833 113.457L892 31.0006L538 31.0007L597 110.957Z" fill="#FAF4FF"/>
<path d="M1017 97.0005H1012V45.0005H1017V31.0005L892 31.0006L833 113.457C838.037 114.086 843.038 114.75 848 115.449C863.076 117.574 877.786 120.026 892 122.791C912.87 126.851 932.672 131.587 951 136.96C973.898 143.673 994.496 151.378 1012 160V107.5H1017V97.0005Z" fill="#FAF4FF"/>
<path d="M418 96.5H413V107H418V159.5C449.897 141.665 491.679 128.536 538 119.688L464 31.0007L413 31.0005V44.5H418V96.5Z" fill="#FAF4FF"/>
<path d="M538 119.688C556.924 116.073 576.69 113.172 597 110.957L538 31.0007H464L538 119.688Z" fill="#FAF4FF"/>
<path d="M253.588 1V7.00653L262.091 30.0316V31L282 31.0005H413L464 31.0007H538L892 31.0006L1017 31.0005H1148L1169.41 31V30.5321L1177.91 7.50707V1H253.588Z" fill="#FAF4FF"/>
<path d="M1148 97.0005H1153V45.0005H1012V97.0005H1017H1148Z" fill="#FAF4FF"/>
<path d="M1153 107.5H1148H1017H1012V160H1017H1148H1153V107.5Z" fill="#FAF4FF"/>
<path d="M1017 170.5H1012.5H1012V222.5L1017 222.5H1148H1153V170.5H1148H1017Z" fill="#FAF4FF"/>
<path d="M1017 233.5H1012V286H1017H1148H1153V233.5H1152.5H1148H1017Z" fill="#FAF4FF"/>
<path d="M1017 296.5H1012V349H1017H1148H1152.5H1153V296.5H1152.5H1148H1017Z" fill="#FAF4FF"/>
<path d="M1017 359.5H1012V412H1017H1148H1153V359.5H1148H1017Z" fill="#FAF4FF"/>
<path d="M1017 422.5H1012V475H1012.5H1017H1148H1152.5H1153V422.5H1148H1017Z" fill="#FAF4FF"/>
<path fill-rule="evenodd" clip-rule="evenodd" d="M1017 737.5H1013H1012V790H1153V737.5H1152H1148H1017ZM1017 790H1012L1003 790V921.501H1169.41V790L1153 790H1148H1017ZM1012 790H1017H1148H1153H1012Z" fill="#FAF4FF"/>
<path d="M417 737H413H282H278H277V789.5H282H413H418V737H417Z" fill="#FAF4FF"/>
<path d="M418 789.5H413H282H277H262.091V921.5H425V789.5H418Z" fill="#FAF4FF"/>
<path d="M418 674H413H282H277.5H277V726H282H413H418V674Z" fill="#FAF4FF"/>
<path d="M418 422H413H282H277V474.5H277.5H282H413H417.5H418V422Z" fill="#FAF4FF"/>
<path d="M418 359H413H282H277V411.5H282H413H418V359Z" fill="#FAF4FF"/>
<path d="M418 296H413H282H277.5H277V348.5H277.5H282H413H418V296Z" fill="#FAF4FF"/>
<path d="M418 233H413H282H277.5H277V285.5H282H413H417.5H418V233Z" fill="#FAF4FF"/>
<path d="M417.5 170H413H282H277V222H282H413H418V170H417.5Z" fill="#FAF4FF"/>
<path d="M282 107H277V159.5H277.5H282H413H418V107H413H282Z" fill="#FAF4FF"/>
<path d="M277 96.5H282H413H418V44.5H277V96.5Z" fill="#FAF4FF"/>
<path fill-rule="evenodd" clip-rule="evenodd" d="M1012 601V549H1153V601H1152.5H1148H1017H1012Z" fill="#FAF4FF"/>
<path fill-rule="evenodd" clip-rule="evenodd" d="M1012 664V612H1153V664H1152.5H1148H1017H1012Z" fill="#FAF4FF"/>
<path fill-rule="evenodd" clip-rule="evenodd" d="M1012 537.5V486H1153V537.5H1148H1017H1012Z" fill="#FAF4FF"/>
<path fill-rule="evenodd" clip-rule="evenodd" d="M277 663.5V611.5H418V663.5H413H282H277.5H277Z" fill="#FAF4FF"/>
<path fill-rule="evenodd" clip-rule="evenodd" d="M277 600.5V548.5H418V600.5H413H282H277.5H277Z" fill="#FAF4FF"/>
<path fill-rule="evenodd" clip-rule="evenodd" d="M277 537V485H418V537H413H282H277Z" fill="#FAF4FF"/>
<path d="M1153 97.0005H1148V107.5H1153V160H1148V170.5H1153V222.5H1148V233.5H1152.5H1153V286H1148V296.5H1152.5H1153V349H1152.5H1148V359.5H1153V412H1148V422.5H1153V475H1152.5H1148V486H1153V537.5H1148V549L1153 549V601H1152.5H1148V612H1153V664H1152.5H1148V674.5H1152.5H1153V726.5H1148V737.5H1152H1153V790L1169.41 790V175V31L1148 31.0005V45.0005H1153V97.0005Z" fill="#FAF4FF"/>
<path d="M1183.41 189L1169.41 175V790V921.501H1183.41V643.25V365V288V238.5V189Z" fill="#3B3166"/>
<path d="M1183.41 921.501H1427V365H1416V902H1195V365H1183.41V643.25V921.501Z" fill="#CEB4E2"/>
<path d="M248 288V365V921.5H262.091V789.5V177L248 191.091V288Z" fill="#3B3166"/>
<path d="M0 177V921H14V365V288L13.75 239.25L13.5 190.5L0 177Z" fill="#3B3166"/>
<path d="M1441 921.501V177L1427 191V288V365V921.501H1441Z" fill="#3B3166"/>
<path d="M73.9905 163.5C53.6505 174.648 37.3991 190.227 27 204V275H235V204.091C218.313 185.498 201.779 172.337 185.71 163.5C143.313 140.184 104.155 146.968 73.9905 163.5Z" fill="#FAF4FF"/>
<path d="M27 275V204L13.5 190.5L13.75 239.25L14 288L27 275Z" fill="#CEB4E2"/>
<path d="M235 204.091V275L248 288V191.091L235 204.091Z" fill="#CEB4E2"/>
<path d="M1414 204C1398.76 185.969 1383.32 172.886 1368 163.797C1322.57 136.837 1278.31 145.025 1244.27 163.5C1224.1 174.446 1207.52 189.002 1196.41 202V275H1414V204Z" fill="#FAF4FF"/>
<path d="M1196.41 275V202L1183.41 189V238.5V288L1196.41 275Z" fill="#CEB4E2"/>
<path d="M1414 204V275L1427 288V191L1414 204Z" fill="#CEB4E2"/>
<path d="M428 359H1002L951 277H479L428 359Z" fill="#CEB4E2"/>
<path d="M479 150.5C541 126.667 722.2 93.3001 951 150.5V265H479V150.5Z" fill="#FAF4FF"/>
<path fill-rule="evenodd" clip-rule="evenodd" d="M972 412H821V891.5H972V412ZM831 445H937H960V527V613V696V780H937H831V696V613V527V445ZM960 435H831V423H960V435ZM834.5 793.5H957.5L953 811V844.75V878.5H896H839V844.25V811L834.5 793.5Z" fill="#CEB4E2"/>
<path fill-rule="evenodd" clip-rule="evenodd" d="M610.5 412H459V891.5H610.5V412ZM599 423H469V435H599V423ZM469 445H490H599V527V613V696V780H490H469V696V613V527V445ZM478.5 811.5L474 794H595L590.5 811.5V844.25V877H534.5H478.5V844.25V811.5Z" fill="#CEB4E2"/>
<path fill-rule="evenodd" clip-rule="evenodd" d="M821 412H715V891.5H821V412ZM811 423H725V435H811V423ZM811.5 866H725.5V878H811.5V866ZM725 780V856H811V780H725ZM725.5 445L725 769.5H811L811.5 445H725.5Z" fill="#CEB4E2"/>
<path fill-rule="evenodd" clip-rule="evenodd" d="M715 412H610.5V891.5H715V412ZM705 423H621V435H705V423ZM705 866H621V878H705V866ZM705 780H621V856H705V780ZM621.5 445L621 769H705L705.5 445H621.5Z" fill="#CEB4E2"/>
<path d="M953 844.75L896 811L839 844.25L896 878.5L953 844.75Z" fill="#3B3166"/>
<path d="M937 613H831V696H937V613Z" fill="#FAF4FF"/>
<path d="M599 445H490V527H599V445Z" fill="#FAF4FF"/>
<path fill-rule="evenodd" clip-rule="evenodd" d="M937 445H831V527V613H937V696H831V780H937H960V696V613V527V445H937ZM831 435H960V423H831V435ZM957.5 793.5H834.5L839 811V844.25V878.5H896H953V844.75V811L957.5 793.5ZM953 844.75L896 878.5L839 844.25L896 811L953 844.75ZM599 423H469V435H599V423ZM469 445H490V527H599V613V696V780H490H469V696V613V527V445ZM478.5 811.5L474 794H595L590.5 811.5V844.25L534.5 811.5L478.5 844.25V811.5ZM534.5 877H478.5V844.25L534.5 877ZM534.5 877H590.5V844.25L534.5 877ZM725 423H811V435H725V423ZM725.5 866H811.5V878H725.5V866ZM725 856V780H811V856H725ZM725 769.5L725.5 445H811.5L811 769.5H725ZM705 423H621V435H705V423ZM705 866H621V878H705V866ZM705 780H621V856H705V780ZM621.5 445L621 769H705L705.5 445H621.5Z" fill="#FAF4FF"/>
<path d="M972 412L1002 412V359H428V412L459 412H610.5H715H821H972Z" fill="#CEB4E2"/>
<path d="M248 288H14V365H25H60H237H248V288Z" fill="#CEB4E2"/>
<path d="M235 275H27L14 288H248L235 275Z" fill="#CEB4E2"/>
<path d="M1427 288H1183.41V365H1195H1381H1416H1427V288Z" fill="#CEB4E2"/>
<path d="M1414 275H1196.41L1183.41 288H1427L1414 275Z" fill="#CEB4E2"/>
<path d="M14 365V921L248 921.5V365H237V867V902H25V365H14Z" fill="#CEB4E2"/>
<path d="M1017 737.5H1148V726.5H1017V737.5Z" fill="#CEB4E2"/>
<path d="M1017 664V674.5H1148V664H1017Z" fill="#CEB4E2"/>
<path d="M1017 549H1012H1153L1148 549V537.5H1017V549Z" fill="#CEB4E2"/>
<path d="M1017 601V612H1012H1153H1148V601H1017Z" fill="#CEB4E2"/>
<path d="M1017 475V486H1012H1153H1148V475H1017Z" fill="#CEB4E2"/>
<path d="M1017 412V422.5H1148V412H1017Z" fill="#CEB4E2"/>
<path d="M1017 349V359.5H1148V349H1017Z" fill="#CEB4E2"/>
<path d="M1017 286V296.5H1148V286H1017Z" fill="#CEB4E2"/>
<path d="M1017 233.5H1148V222.5H1017V233.5Z" fill="#CEB4E2"/>
<path d="M1017 160V170.5H1148V160H1017Z" fill="#CEB4E2"/>
<path d="M1148 97.0005H1017V107.5H1148V97.0005Z" fill="#CEB4E2"/>
<path d="M1017 45.0005H1012H1153H1148V31.0005H1017V45.0005Z" fill="#CEB4E2"/>
<path d="M418 44.5H413V31.0005H282V44.5H277H418Z" fill="#CEB4E2"/>
<path d="M413 96.5H282V107H413V96.5Z" fill="#CEB4E2"/>
<path d="M413 170V159.5H282V170H413Z" fill="#CEB4E2"/>
<path d="M282 233H413V222H282V233Z" fill="#CEB4E2"/>
<path d="M413 296V285.5H282V296H413Z" fill="#CEB4E2"/>
<path d="M413 359V348.5H282V359H413Z" fill="#CEB4E2"/>
<path d="M413 422V411.5H282V422H413Z" fill="#CEB4E2"/>
<path d="M413 485V474.5H282V485H277H418H413Z" fill="#CEB4E2"/>
<path d="M418 548.5H413V537H282V548.5H277H418Z" fill="#CEB4E2"/>
<path d="M413 611.5V600.5H282V611.5H277H418H413Z" fill="#CEB4E2"/>
<path d="M413 674V663.5H282V674H413Z" fill="#CEB4E2"/>
<path d="M282 737H413V726.5V726H282V737Z" fill="#CEB4E2"/>
<path d="M1017 674.5H1012V726.5H1017H1148H1152.5H1153V674.5H1152.5H1148H1017Z" fill="#FAF4FF"/>
<path d="M282 96.5H277V44.5H282V31.0005L262.091 31V177V789.5H277V737H278H282V726H277V674H277.5H282V663.5H277.5H277V611.5H282V600.5H277.5H277V548.5H282V537H277V485H282V474.5H277.5H277V422H282V411.5H277V359H282V348.5H277.5H277V296H277.5H282V285.5H277V233H277.5H282V222H277V170H282V159.5H277.5H277V107H282V96.5Z" fill="#FAF4FF"/>
<path d="M831 445H960M831 445V613M831 445H937M831 445V527M960 445V613M960 445H937M960 445V527M831 613V527M831 613H937M831 613V696M831 613V780M960 613H937M960 613V696M960 613V780M960 613V527M831 696H937M831 696V780M960 696H937M960 696V780M831 527H937M960 527H937M822.5 780H831M971.5 780H960M277 96.5H418M277 96.5H282M277 96.5V44.5M418 96.5V44.5M418 96.5H413M277 107H418M277 107H282M277 107V159.5M418 107H413M418 107V159.5M413 107V96.5M413 107H282M418 159.5H413M418 159.5H277.5M418 159.5C449.897 141.665 491.679 128.536 538 119.688M413 159.5V170M413 159.5H282M413 170H418M413 170H417.5M413 170H282M418 170V222H413M418 170H417.5M413 222V233M413 222H282M413 222H417.5M413 233H418M413 233H282M418 233V285.5M418 233H277.5M418 285.5H413M418 285.5H417.5M413 285.5H417.5M413 285.5V296M413 285.5H282M413 296H418M413 296H282M418 296V348.5M418 296H277.5M418 348.5H413M418 348.5H277.5M413 348.5V359M413 348.5H282M413 359H418M413 359H282M418 359V411.5M418 359H277M418 411.5H413M418 411.5H277M413 411.5V422M413 411.5H282M413 422H418M413 422H282M418 422V474.5M418 422H277M418 474.5H413M418 474.5H417.5M413 474.5H417.5M413 474.5V485H418M413 474.5H282M418 485V537H413M418 485H277M413 537V548.5H418M413 537H282M418 548.5V600.5M418 548.5H277M418 600.5H413M418 600.5H277.5M413 600.5V611.5H418M413 600.5H282M418 611.5V663.5M418 611.5H277M418 663.5H413M418 663.5H277.5M413 663.5V674M413 663.5H282M413 674H418M413 674H282M418 674H277.5M418 674V726H413M413 737H418M413 737V726.5V726M413 737H417M413 737H282M413 737V726M418 737V789.5M418 737H417M418 789.5H413H282H277M418 789.5H425M418 44.5H413V31.0005M418 44.5H277M413 96.5H282M282 107V96.5M277 159.5H282M277 159.5H277.5M282 159.5H277.5M282 159.5V170M282 170H277M277 170V222H282M277 170H417.5M282 222V233M282 233H277M282 233H277.5M277 233V285.5M277 233H277.5M277 285.5H282M277 285.5H417.5M282 285.5V296M282 296H277M282 296H277.5M277 296V348.5M277 296H277.5M277 348.5H282M277 348.5H277.5M282 348.5H277.5M282 348.5V359M282 359H277M277 359V411.5M277 411.5H282M282 411.5V422M282 422H277M277 422V474.5M277 474.5H282M277 474.5H277.5M282 474.5V485H277M282 474.5H277.5M277 485V537H282M282 537V548.5H277M277 548.5V600.5M277 600.5H282M277 600.5H277.5M282 600.5V611.5H277M282 600.5H277.5M277 611.5V663.5M277 663.5H282M277 663.5H277.5M282 663.5H277.5M282 663.5V674M282 674H277M282 674H277.5M277 674V726H282M277 674H277.5M282 726H413M282 726V737M282 737H277M282 737H278M277 737V789.5M277 737H278M277 789.5H262.091M277 44.5H282V31.0005M277.5 474.5H417.5M278 737H417M282 31.0005H413M282 31.0005L262.091 31M1153 97.0005H1012M1153 97.0005H1148M1153 97.0005V45.0005M1012 97.0005V45.0005M1012 97.0005H1017M1153 107.5H1012M1153 107.5H1148M1153 107.5V160H1148M1012 107.5H1017M1012 107.5V160M1017 107.5V97.0005M1017 107.5H1148M1012 160H1017M1012 160L1152.5 160.001M1012 160C994.496 151.378 973.898 143.673 951 136.96C932.672 131.587 912.87 126.851 892 122.791M1017 160V170.5M1017 160H1148M1017 170.5H1012M1017 170.5H1012.5M1017 170.5H1148M1012 170.5V222.5L1017 222.5M1012 170.5H1012.5M1017 222.5V233.5M1017 222.5H1148M1017 222.5H1012.5M1017 222.5V221.5M1017 233.5H1012M1017 233.5H1148M1012 233.5V286H1017M1012 233.5H1152.5M1017 286V296.5M1017 286H1148M1017 296.5H1012M1017 296.5H1148M1012 296.5V349M1012 296.5H1152.5M1012 349H1017M1012 349H1152.5M1017 349V359.5M1017 349H1148M1017 359.5H1012M1017 359.5H1148M1012 359.5V412M1012 359.5H1153M1012 412H1017M1012 412H1153M1017 412V422.5M1017 412H1148M1017 422.5H1012M1017 422.5H1148M1012 422.5V475M1012 422.5H1153M1012 475H1017M1012 475H1012.5M1017 475V486H1012M1017 475H1012.5M1017 475H1148M1012 486V537.5H1017M1012 486H1153M1017 537.5V549H1012M1017 537.5H1148M1012 549V601M1012 549H1153M1012 601H1017M1012 601H1152.5M1017 601V612H1012M1017 601H1148M1012 612V664M1012 612H1153M1012 664H1017M1012 664H1152.5M1017 664V674.5M1017 664H1148M1017 674.5H1012M1017 674.5H1148M1012 674.5V726.5H1017M1012 674.5H1152.5M1017 726.5V737.5M1017 726.5H1148M1017 737.5H1012M1017 737.5H1013M1017 737.5H1148M1012 737.5V790M1012 737.5H1013M1012 790H1017H1148H1153M1012 790L1003 790M1012 790H1153M1017 31.0005L892 31.0006M1017 31.0005H1148M1017 31.0005V45.0005H1012M1012 45.0005H1153M1017 97.0005H1148M1148 107.5V97.0005M1148 160V170.5M1148 170.5H1153M1153 170.5V222.5H1148M1153 170.5H1012.5M1148 222.5V233.5M1148 233.5H1153M1148 233.5H1152.5M1153 233.5V286M1153 233.5H1152.5M1153 286H1148M1153 286L1012.5 286M1148 286V296.5M1148 296.5H1153M1148 296.5H1152.5M1153 296.5V349M1153 296.5H1152.5M1153 349H1148M1153 349H1152.5M1148 349H1152.5M1148 349V359.5M1148 359.5H1153M1153 359.5V412M1153 412H1148M1148 412V422.5M1148 422.5H1153M1153 422.5V475M1153 475H1148M1153 475H1152.5M1148 475H1152.5M1148 475V486H1153M1153 486V537.5H1148M1148 537.5V549L1153 549M1153 549V601M1153 601H1148M1153 601H1152.5M1148 601H1152.5M1148 601V612H1153M1153 612V664M1153 664H1148M1153 664H1152.5M1148 664H1152.5M1148 664V674.5M1148 674.5H1153M1148 674.5H1152.5M1153 674.5V726.5M1153 674.5H1152.5M1153 726.5H1148M1153 726.5H1152.5H1148M1148 726.5V725.5M1148 726.5V737.5M1148 737.5H1153M1148 737.5H1152M1153 737.5V790M1153 737.5H1152M1153 790L1169.41 790M1148 31.0005L1169.41 31M1148 31.0005V31.5V45.0005M1148 31.0005V45.0005M1148 45.0005H1153M538 119.688C556.924 116.073 576.69 113.172 597 110.957M538 119.688L464 31.0007M597 110.957C635.07 106.806 675.054 105.063 715 105.538C755.025 106.015 795.013 108.718 833 113.457M597 110.957L538 31.0007M833 113.457C838.037 114.086 843.038 114.75 848 115.449C863.076 117.574 877.786 120.026 892 122.791M833 113.457L892 31.0006M892 122.791L966 34.104M464 31.0007L413 31.0005M464 31.0007H538M464 31.0007L1169.41 31M538 31.0007L892 31.0006M1152.5 475H1012.5M1152 737.5H1013M262 31H262.091M1169.5 31H1169.41M459.5 780H469M610.5 780H599M469 445H599M469 445V527M469 445H490M599 445V527M599 445H490M469 527V613M469 527H490M599 527V613M599 527H490M469 613V696M469 613H490M599 613V696M599 613H490M469 696H490M469 696V780M599 696H490M599 696V780M953 811L957.5 793.5H834.5L839 811M953 811H896M953 811V844.75M839 811H896M839 811V844.25M478.5 811.5L474 794H595L590.5 811.5M478.5 811.5V844.25M478.5 811.5H534.5M590.5 811.5H534.5M590.5 811.5V844.25M478.5 844.25V877H534.5M478.5 844.25L534.5 811.5M478.5 844.25L534.5 877M534.5 811.5L590.5 844.25M590.5 844.25V877H534.5M590.5 844.25L534.5 877M896 811L953 844.75M896 811L839 844.25M953 844.75V878.5H896M953 844.75L896 878.5M896 878.5H839V844.25M896 878.5L839 844.25M937 445V527M937 780V696M937 780H831M937 780H960M490 445V527M490 780V696M490 780H599M490 780H469M1002 412H428M1002 412V359M1002 412L972 412M428 412V359M428 412L459 412M428 359H1002M428 359L479 277H951L1002 359M972 412V891.5H821M972 412H821M459 412V891.5H610.5M459 412H610.5M821 412V891.5M821 412H715M821 891.5H610.5M821 891.5H715M610.5 412V891.5M610.5 412H715M610.5 891.5H715M715 412V891.5M1381 867L1416 902M1381 867V365M1381 867H1195.5M1416 902H1195V365M1416 902V365M1381 365H1195M1381 365H1416M60 867L25 902M60 867V365M60 867H237M25 902H237M25 902V365M60 365H237M60 365H25M237 867V365M237 867V902M253.588 7.00653H0V30.0316M253.588 7.00653V1H1177.91V7.50707M253.588 7.00653L262.091 30.0316M1177.91 7.50707H1441V30.5321M1177.91 7.50707L1169.41 30.5321M1441 30.5321V177M1441 30.5321H1399M1169.41 30.5321H1211M1169.41 30.5321V31M262.091 30.0316H222M262.091 30.0316V31M0 30.0316V177M0 30.0316H40M1169.41 175L1183.41 189M1169.41 175V790M1169.41 175V31M1441 177V921.501H1427M1441 177L1427 191M0 177V921H14M0 177L13.5 190.5M262.091 177V789.5M262.091 177L248 191.091M262.091 177V31M1211 30.5321L1244.27 163.5M1211 30.5321H1305H1399M1399 30.5321L1368 163.797M1368 163.797C1383.32 172.886 1398.76 185.969 1414 204M1368 163.797C1322.57 136.837 1278.31 145.025 1244.27 163.5M1414 204V275M1414 204L1427 191M1196.41 202C1207.52 189.002 1224.1 174.446 1244.27 163.5M1196.41 202V275M1196.41 202L1183.41 189M27 204C37.3991 190.227 53.6505 174.648 73.9905 163.5M27 204V275M27 204L13.5 190.5M73.9905 163.5C104.155 146.968 143.313 140.184 185.71 163.5M73.9905 163.5L40 30.0316M185.71 163.5C201.779 172.337 218.313 185.498 235 204.091M185.71 163.5L222 30.0316M235 204.091V275M235 204.091L248 191.091M40 30.0316H222M27 275H235M27 275L14 288M235 275L248 288M14 288H248M14 288V365M14 288L13.75 239.25L13.5 190.5M248 288V365M248 288V191.091M248 365V921.5M248 365H237M14 365V921M14 365H25M14 921L248 921.5M248 921.5H262.091M1196.41 275H1414M1196.41 275L1183.41 288M1414 275L1427 288M1427 288V191M1427 288H1183.41M1427 288V365M1183.41 288V365M1183.41 288V238.5V189M1183.41 921.501H1427M1183.41 921.501H1169.41M1183.41 921.501V643.25V365M1427 921.501V365M1427 365H1416M1183.41 365H1195M1416 365H1195M262.091 789.5V921.5M262.091 789.5H425M262.091 921.5H425V789.5M1003 790H1169.41M1003 790V921.501H1169.41M1169.41 790V921.501M25 365H237M237 365V902M490 527V613M490 613V696M599 780H469M937 613V527M937 613V696M831 780H960M831 435H960V423H831V435ZM469 423H599V435H469V423ZM479 150.5C541 126.667 722.2 93.3001 951 150.5V265H479V150.5ZM621 423H705V435H621V423ZM725 423H811V435H725V423ZM725.5 866H811.5V878H725.5V866ZM621 866H705V878H621V866ZM621 780H705V856H621V780ZM725 856V780H811V856H725ZM725 769.5L725.5 445H811.5L811 769.5H725ZM621 769L621.5 445H705.5L705 769H621Z" stroke="black" stroke-width="2"/>
</svg>
