<svg width="1443" height="952" viewBox="0 0 1443 952" fill="none" xmlns="http://www.w3.org/2000/svg">
<rect x="1" width="1441" height="41" fill="#3B3166"/>
<path d="M74.9905 192.5C105.155 175.968 144.313 169.184 186.71 192.5L223 59.0316H41L74.9905 192.5Z" fill="#3B3166"/>
<path d="M1 59.0316V206L14.5 219.5L28 233C38.3991 219.227 54.6505 203.648 74.9905 192.5L41 59.0316H1Z" fill="#3B3166"/>
<path d="M263.091 60V59.0316H223L186.71 192.5C202.779 201.337 219.313 214.498 236 233.091L249 220.091L263.091 206V60Z" fill="#3B3166"/>
<path d="M491 474H470V556H491V474Z" fill="#FAF4FF"/>
<path d="M600 642V556H491V642H600Z" fill="#FAF4FF"/>
<path d="M470 556V642H491V556H470Z" fill="#FAF4FF"/>
<path d="M600 725V642H491V725H600Z" fill="#FAF4FF"/>
<path d="M491 809H600V725H491V809Z" fill="#FAF4FF"/>
<path d="M470 642V725H491V642H470Z" fill="#FAF4FF"/>
<path d="M470 725V809H491V725H470Z" fill="#FAF4FF"/>
<path d="M832 556V642H938V556H832Z" fill="#FAF4FF"/>
<path d="M832 809H938V725H832V809Z" fill="#FAF4FF"/>
<path d="M938 474H832V556H938V474Z" fill="#FAF4FF"/>
<path d="M961 725V642H938V725H961Z" fill="#FAF4FF"/>
<path d="M961 809V725H938V809H961Z" fill="#FAF4FF"/>
<path d="M961 642V556H938V642H961Z" fill="#FAF4FF"/>
<path d="M961 474H938V556H961V474Z" fill="#FAF4FF"/>
<path d="M622 798L622.5 474H706.5L706 798H622Z" fill="#FAF4FF"/>
<path d="M726 798.5L726.5 474H812.5L812 798.5H726Z" fill="#FAF4FF"/>
<path d="M726 885V809H812V885H726Z" fill="#FAF4FF"/>
<path d="M622 809H706V885H622V809Z" fill="#FAF4FF"/>
<path d="M622 895H706V907H622V895Z" fill="#FAF4FF"/>
<path d="M726.5 895H812.5V907H726.5V895Z" fill="#FAF4FF"/>
<path d="M622 452H706V464H622V452Z" fill="#FAF4FF"/>
<path d="M726 452H812V464H726V452Z" fill="#FAF4FF"/>
<path d="M832 464H961V452H832V464Z" fill="#FAF4FF"/>
<path d="M470 464H600V452H470V464Z" fill="#FAF4FF"/>
<path d="M61 394V896H238V394H61Z" fill="#FAF4FF"/>
<path d="M26 931L61 896V394H26V931Z" fill="#FAF4FF"/>
<path d="M1417 931L1382 896V394H1196V931H1417Z" fill="#FAF4FF"/>
<path d="M1382 896L1417 931V394H1382V896Z" fill="#FAF4FF"/>
<path d="M61 896L26 931H238V896H61Z" fill="#FAF4FF"/>
<path d="M1212 59.5321H1170.41V60V204L1184.41 218L1197.41 231C1208.52 218.002 1225.1 203.446 1245.27 192.5L1212 59.5321Z" fill="#3B3166"/>
<path d="M1245.27 192.5C1279.31 174.025 1323.57 165.837 1369 192.797L1400 59.5321H1306H1212L1245.27 192.5Z" fill="#3B3166"/>
<path d="M1442 206V59.5321H1400L1369 192.797C1384.32 201.886 1399.76 214.969 1415 233L1428 220L1442 206Z" fill="#3B3166"/>
<path d="M254.588 36.0065H1V59.0316H41H223H263.091L254.588 36.0065Z" fill="#3B3166"/>
<path d="M1442 36.5071H1178.91L1170.41 59.5321H1212H1306H1400H1442V36.5071Z" fill="#3B3166"/>
<path d="M598 139.957C636.07 135.806 676.054 134.063 716 134.538C756.025 135.015 796.013 137.718 834 142.457L893 60.0006L539 60.0007L598 139.957Z" fill="#FAF4FF"/>
<path d="M1018 126H1013V74.0005H1018V60.0005L893 60.0006L834 142.457C839.037 143.086 844.038 143.75 849 144.449C864.076 146.574 878.786 149.026 893 151.791C913.87 155.851 933.672 160.587 952 165.96C974.898 172.673 995.496 180.378 1013 189V136.5H1018V126Z" fill="#FAF4FF"/>
<path d="M419 125.5H414V136H419V188.5C450.897 170.665 492.679 157.536 539 148.688L465 60.0007L414 60.0005V73.5H419V125.5Z" fill="#FAF4FF"/>
<path d="M539 148.688C557.924 145.073 577.69 142.172 598 139.957L539 60.0007H465L539 148.688Z" fill="#FAF4FF"/>
<path d="M254.588 30V36.0065L263.091 59.0316V60L283 60.0005H414L465 60.0007H539L893 60.0006L1018 60.0005H1149L1170.41 60V59.5321L1178.91 36.5071V30H254.588Z" fill="#FAF4FF"/>
<path d="M1149 126H1154V74.0005H1013V126H1018H1149Z" fill="#FAF4FF"/>
<path d="M1154 136.5H1149H1018H1013V189H1018H1149H1154V136.5Z" fill="#FAF4FF"/>
<path d="M1018 199.5H1013.5H1013V251.5L1018 251.5H1149H1154V199.5H1149H1018Z" fill="#FAF4FF"/>
<path d="M1018 262.5H1013V315H1018H1149H1154V262.5H1153.5H1149H1018Z" fill="#FAF4FF"/>
<path d="M1018 325.5H1013V378H1018H1149H1153.5H1154V325.5H1153.5H1149H1018Z" fill="#FAF4FF"/>
<path d="M1018 388.5H1013V441H1018H1149H1154V388.5H1149H1018Z" fill="#FAF4FF"/>
<path d="M1018 451.5H1013V504H1013.5H1018H1149H1153.5H1154V451.5H1149H1018Z" fill="#FAF4FF"/>
<path fill-rule="evenodd" clip-rule="evenodd" d="M1018 766.5H1014H1013V819H1154V766.5H1153H1149H1018ZM1018 819H1013L1004 819V950.501H1170.41V819L1154 819H1149H1018ZM1013 819H1018H1149H1154H1013Z" fill="#FAF4FF"/>
<path d="M418 766H414H283H279H278V818.5H283H414H419V766H418Z" fill="#FAF4FF"/>
<path d="M419 818.5H414H283H278H263.091V950.5H426V818.5H419Z" fill="#FAF4FF"/>
<path d="M419 703H414H283H278.5H278V755H283H414H419V703Z" fill="#FAF4FF"/>
<path d="M419 451H414H283H278V503.5H278.5H283H414H418.5H419V451Z" fill="#FAF4FF"/>
<path d="M419 388H414H283H278V440.5H283H414H419V388Z" fill="#FAF4FF"/>
<path d="M419 325H414H283H278.5H278V377.5H278.5H283H414H419V325Z" fill="#FAF4FF"/>
<path d="M419 262H414H283H278.5H278V314.5H283H414H418.5H419V262Z" fill="#FAF4FF"/>
<path d="M418.5 199H414H283H278V251H283H414H419V199H418.5Z" fill="#FAF4FF"/>
<path d="M283 136H278V188.5H278.5H283H414H419V136H414H283Z" fill="#FAF4FF"/>
<path d="M278 125.5H283H414H419V73.5H278V125.5Z" fill="#FAF4FF"/>
<path fill-rule="evenodd" clip-rule="evenodd" d="M1013 630V578H1154V630H1153.5H1149H1018H1013Z" fill="#FAF4FF"/>
<path fill-rule="evenodd" clip-rule="evenodd" d="M1013 693V641H1154V693H1153.5H1149H1018H1013Z" fill="#FAF4FF"/>
<path fill-rule="evenodd" clip-rule="evenodd" d="M1013 566.5V515H1154V566.5H1149H1018H1013Z" fill="#FAF4FF"/>
<path fill-rule="evenodd" clip-rule="evenodd" d="M278 692.5V640.5H419V692.5H414H283H278.5H278Z" fill="#FAF4FF"/>
<path fill-rule="evenodd" clip-rule="evenodd" d="M278 629.5V577.5H419V629.5H414H283H278.5H278Z" fill="#FAF4FF"/>
<path fill-rule="evenodd" clip-rule="evenodd" d="M278 566V514H419V566H414H283H278Z" fill="#FAF4FF"/>
<path d="M1154 126H1149V136.5H1154V189H1149V199.5H1154V251.5H1149V262.5H1153.5H1154V315H1149V325.5H1153.5H1154V378H1153.5H1149V388.5H1154V441H1149V451.5H1154V504H1153.5H1149V515H1154V566.5H1149V578L1154 578V630H1153.5H1149V641H1154V693H1153.5H1149V703.5H1153.5H1154V755.5H1149V766.5H1153H1154V819L1170.41 819V204V60L1149 60.0005V74.0005H1154V126Z" fill="#FAF4FF"/>
<path d="M1184.41 218L1170.41 204V819V950.501H1184.41V672.25V394V317V267.5V218Z" fill="#3B3166"/>
<path d="M1184.41 950.501H1428V394H1417V931H1196V394H1184.41V672.25V950.501Z" fill="#CEB4E2"/>
<path d="M249 317V394V950.5H263.091V818.5V206L249 220.091V317Z" fill="#3B3166"/>
<path d="M1 206V950H15V394V317L14.75 268.25L14.5 219.5L1 206Z" fill="#3B3166"/>
<path d="M1442 950.501V206L1428 220V317V394V950.501H1442Z" fill="#3B3166"/>
<path d="M74.9905 192.5C54.6505 203.648 38.3991 219.227 28 233V304H236V233.091C219.313 214.498 202.779 201.337 186.71 192.5C144.313 169.184 105.155 175.968 74.9905 192.5Z" fill="#FAF4FF"/>
<path d="M28 304V233L14.5 219.5L14.75 268.25L15 317L28 304Z" fill="#CEB4E2"/>
<path d="M236 233.091V304L249 317V220.091L236 233.091Z" fill="#CEB4E2"/>
<path d="M1415 233C1399.76 214.969 1384.32 201.886 1369 192.797C1323.57 165.837 1279.31 174.025 1245.27 192.5C1225.1 203.446 1208.52 218.002 1197.41 231V304H1415V233Z" fill="#FAF4FF"/>
<path d="M1197.41 304V231L1184.41 218V267.5V317L1197.41 304Z" fill="#CEB4E2"/>
<path d="M1415 233V304L1428 317V220L1415 233Z" fill="#CEB4E2"/>
<path d="M429 388H1003L952 306H480L429 388Z" fill="#CEB4E2"/>
<path d="M480 179.5C542 155.667 723.2 122.3 952 179.5V294H480V179.5Z" fill="#FAF4FF"/>
<path fill-rule="evenodd" clip-rule="evenodd" d="M973 441H822V920.5H973V441ZM832 474H938H961V556V642V725V809H938H832V725V642V556V474ZM961 464H832V452H961V464ZM835.5 822.5H958.5L954 840V873.75V907.5H897H840V873.25V840L835.5 822.5Z" fill="#CEB4E2"/>
<path fill-rule="evenodd" clip-rule="evenodd" d="M611.5 441H460V920.5H611.5V441ZM600 452H470V464H600V452ZM470 474H491H600V556V642V725V809H491H470V725V642V556V474ZM479.5 840.5L475 823H596L591.5 840.5V873.25V906H535.5H479.5V873.25V840.5Z" fill="#CEB4E2"/>
<path fill-rule="evenodd" clip-rule="evenodd" d="M822 441H716V920.5H822V441ZM812 452H726V464H812V452ZM812.5 895H726.5V907H812.5V895ZM726 809V885H812V809H726ZM726.5 474L726 798.5H812L812.5 474H726.5Z" fill="#CEB4E2"/>
<path fill-rule="evenodd" clip-rule="evenodd" d="M716 441H611.5V920.5H716V441ZM706 452H622V464H706V452ZM706 895H622V907H706V895ZM706 809H622V885H706V809ZM622.5 474L622 798H706L706.5 474H622.5Z" fill="#CEB4E2"/>
<path d="M954 873.75L897 840L840 873.25L897 907.5L954 873.75Z" fill="#3B3166"/>
<path d="M938 642H832V725H938V642Z" fill="#FAF4FF"/>
<path d="M600 474H491V556H600V474Z" fill="#FAF4FF"/>
<path fill-rule="evenodd" clip-rule="evenodd" d="M938 474H832V556V642H938V725H832V809H938H961V725V642V556V474H938ZM832 464H961V452H832V464ZM958.5 822.5H835.5L840 840V873.25V907.5H897H954V873.75V840L958.5 822.5ZM954 873.75L897 907.5L840 873.25L897 840L954 873.75ZM600 452H470V464H600V452ZM470 474H491V556H600V642V725V809H491H470V725V642V556V474ZM479.5 840.5L475 823H596L591.5 840.5V873.25L535.5 840.5L479.5 873.25V840.5ZM535.5 906H479.5V873.25L535.5 906ZM535.5 906H591.5V873.25L535.5 906ZM726 452H812V464H726V452ZM726.5 895H812.5V907H726.5V895ZM726 885V809H812V885H726ZM726 798.5L726.5 474H812.5L812 798.5H726ZM706 452H622V464H706V452ZM706 895H622V907H706V895ZM706 809H622V885H706V809ZM622.5 474L622 798H706L706.5 474H622.5Z" fill="#FAF4FF"/>
<path d="M973 441L1003 441V388H429V441L460 441H611.5H716H822H973Z" fill="#CEB4E2"/>
<path d="M249 317H15V394H26H61H238H249V317Z" fill="#CEB4E2"/>
<path d="M236 304H28L15 317H249L236 304Z" fill="#CEB4E2"/>
<path d="M1428 317H1184.41V394H1196H1382H1417H1428V317Z" fill="#CEB4E2"/>
<path d="M1415 304H1197.41L1184.41 317H1428L1415 304Z" fill="#CEB4E2"/>
<path d="M15 394V950L249 950.5V394H238V896V931H26V394H15Z" fill="#CEB4E2"/>
<path d="M1018 766.5H1149V755.5H1018V766.5Z" fill="#CEB4E2"/>
<path d="M1018 693V703.5H1149V693H1018Z" fill="#CEB4E2"/>
<path d="M1018 578H1013H1154L1149 578V566.5H1018V578Z" fill="#CEB4E2"/>
<path d="M1018 630V641H1013H1154H1149V630H1018Z" fill="#CEB4E2"/>
<path d="M1018 504V515H1013H1154H1149V504H1018Z" fill="#CEB4E2"/>
<path d="M1018 441V451.5H1149V441H1018Z" fill="#CEB4E2"/>
<path d="M1018 378V388.5H1149V378H1018Z" fill="#CEB4E2"/>
<path d="M1018 315V325.5H1149V315H1018Z" fill="#CEB4E2"/>
<path d="M1018 262.5H1149V251.5H1018V262.5Z" fill="#CEB4E2"/>
<path d="M1018 189V199.5H1149V189H1018Z" fill="#CEB4E2"/>
<path d="M1149 126H1018V136.5H1149V126Z" fill="#CEB4E2"/>
<path d="M1018 74.0005H1013H1154H1149V60.0005H1018V74.0005Z" fill="#CEB4E2"/>
<path d="M419 73.5H414V60.0005H283V73.5H278H419Z" fill="#CEB4E2"/>
<path d="M414 125.5H283V136H414V125.5Z" fill="#CEB4E2"/>
<path d="M414 199V188.5H283V199H414Z" fill="#CEB4E2"/>
<path d="M283 262H414V251H283V262Z" fill="#CEB4E2"/>
<path d="M414 325V314.5H283V325H414Z" fill="#CEB4E2"/>
<path d="M414 388V377.5H283V388H414Z" fill="#CEB4E2"/>
<path d="M414 451V440.5H283V451H414Z" fill="#CEB4E2"/>
<path d="M414 514V503.5H283V514H278H419H414Z" fill="#CEB4E2"/>
<path d="M419 577.5H414V566H283V577.5H278H419Z" fill="#CEB4E2"/>
<path d="M414 640.5V629.5H283V640.5H278H419H414Z" fill="#CEB4E2"/>
<path d="M414 703V692.5H283V703H414Z" fill="#CEB4E2"/>
<path d="M283 766H414V755.5V755H283V766Z" fill="#CEB4E2"/>
<path d="M1018 703.5H1013V755.5H1018H1149H1153.5H1154V703.5H1153.5H1149H1018Z" fill="#FAF4FF"/>
<path d="M283 125.5H278V73.5H283V60.0005L263.091 60V206V818.5H278V766H279H283V755H278V703H278.5H283V692.5H278.5H278V640.5H283V629.5H278.5H278V577.5H283V566H278V514H283V503.5H278.5H278V451H283V440.5H278V388H283V377.5H278.5H278V325H278.5H283V314.5H278V262H278.5H283V251H278V199H283V188.5H278.5H278V136H283V125.5Z" fill="#FAF4FF"/>
<path d="M535.5 840.5L479.5 873.25L535.5 906L591.5 873.25L535.5 840.5Z" fill="#3B3166"/>
<path d="M832 474H961M832 474V642M832 474H938M832 474V556M961 474V642M961 474H938M961 474V556M832 642V556M832 642H938M832 642V725M832 642V809M961 642H938M961 642V725M961 642V809M961 642V556M832 725H938M832 725V809M961 725H938M961 725V809M832 556H938M961 556H938M823.5 809H832M972.5 809H961M278 125.5H419M278 125.5H283M278 125.5V73.5M419 125.5V73.5M419 125.5H414M278 136H419M278 136H283M278 136V188.5M419 136H414M419 136V188.5M414 136V125.5M414 136H283M419 188.5H414M419 188.5H278.5M419 188.5C450.897 170.665 492.679 157.536 539 148.688M414 188.5V199M414 188.5H283M414 199H419M414 199H418.5M414 199H283M419 199V251H414M419 199H418.5M414 251V262M414 251H283M414 251H418.5M414 262H419M414 262H283M419 262V314.5M419 262H278.5M419 314.5H414M419 314.5H418.5M414 314.5H418.5M414 314.5V325M414 314.5H283M414 325H419M414 325H283M419 325V377.5M419 325H278.5M419 377.5H414M419 377.5H278.5M414 377.5V388M414 377.5H283M414 388H419M414 388H283M419 388V440.5M419 388H278M419 440.5H414M419 440.5H278M414 440.5V451M414 440.5H283M414 451H419M414 451H283M419 451V503.5M419 451H278M419 503.5H414M419 503.5H418.5M414 503.5H418.5M414 503.5V514H419M414 503.5H283M419 514V566H414M419 514H278M414 566V577.5H419M414 566H283M419 577.5V629.5M419 577.5H278M419 629.5H414M419 629.5H278.5M414 629.5V640.5H419M414 629.5H283M419 640.5V692.5M419 640.5H278M419 692.5H414M419 692.5H278.5M414 692.5V703M414 692.5H283M414 703H419M414 703H283M419 703H278.5M419 703V755H414M414 766H419M414 766V755.5V755M414 766H418M414 766H283M414 766V755M419 766V818.5M419 766H418M419 818.5H414H283H278M419 818.5H426M419 73.5H414V60.0005M419 73.5H278M414 125.5H283M283 136V125.5M278 188.5H283M278 188.5H278.5M283 188.5H278.5M283 188.5V199M283 199H278M278 199V251H283M278 199H418.5M283 251V262M283 262H278M283 262H278.5M278 262V314.5M278 262H278.5M278 314.5H283M278 314.5H418.5M283 314.5V325M283 325H278M283 325H278.5M278 325V377.5M278 325H278.5M278 377.5H283M278 377.5H278.5M283 377.5H278.5M283 377.5V388M283 388H278M278 388V440.5M278 440.5H283M283 440.5V451M283 451H278M278 451V503.5M278 503.5H283M278 503.5H278.5M283 503.5V514H278M283 503.5H278.5M278 514V566H283M283 566V577.5H278M278 577.5V629.5M278 629.5H283M278 629.5H278.5M283 629.5V640.5H278M283 629.5H278.5M278 640.5V692.5M278 692.5H283M278 692.5H278.5M283 692.5H278.5M283 692.5V703M283 703H278M283 703H278.5M278 703V755H283M278 703H278.5M283 755H414M283 755V766M283 766H278M283 766H279M278 766V818.5M278 766H279M278 818.5H263.091M278 73.5H283V60.0005M278.5 503.5H418.5M279 766H418M283 60.0005H414M283 60.0005L263.091 60M1154 126H1013M1154 126H1149M1154 126V74.0005M1013 126V74.0005M1013 126H1018M1154 136.5H1013M1154 136.5H1149M1154 136.5V189H1149M1013 136.5H1018M1013 136.5V189M1018 136.5V126M1018 136.5H1149M1013 189H1018M1013 189L1153.5 189.001M1013 189C995.496 180.378 974.898 172.673 952 165.96C933.672 160.587 913.87 155.851 893 151.791M1018 189V199.5M1018 189H1149M1018 199.5H1013M1018 199.5H1013.5M1018 199.5H1149M1013 199.5V251.5L1018 251.5M1013 199.5H1013.5M1018 251.5V262.5M1018 251.5H1149M1018 251.5H1013.5M1018 251.5V250.5M1018 262.5H1013M1018 262.5H1149M1013 262.5V315H1018M1013 262.5H1153.5M1018 315V325.5M1018 315H1149M1018 325.5H1013M1018 325.5H1149M1013 325.5V378M1013 325.5H1153.5M1013 378H1018M1013 378H1153.5M1018 378V388.5M1018 378H1149M1018 388.5H1013M1018 388.5H1149M1013 388.5V441M1013 388.5H1154M1013 441H1018M1013 441H1154M1018 441V451.5M1018 441H1149M1018 451.5H1013M1018 451.5H1149M1013 451.5V504M1013 451.5H1154M1013 504H1018M1013 504H1013.5M1018 504V515H1013M1018 504H1013.5M1018 504H1149M1013 515V566.5H1018M1013 515H1154M1018 566.5V578H1013M1018 566.5H1149M1013 578V630M1013 578H1154M1013 630H1018M1013 630H1153.5M1018 630V641H1013M1018 630H1149M1013 641V693M1013 641H1154M1013 693H1018M1013 693H1153.5M1018 693V703.5M1018 693H1149M1018 703.5H1013M1018 703.5H1149M1013 703.5V755.5H1018M1013 703.5H1153.5M1018 755.5V766.5M1018 755.5H1149M1018 766.5H1013M1018 766.5H1014M1018 766.5H1149M1013 766.5V819M1013 766.5H1014M1013 819H1018H1149H1154M1013 819L1004 819M1013 819H1154M1018 60.0005L893 60.0006M1018 60.0005H1149M1018 60.0005V74.0005H1013M1013 74.0005H1154M1018 126H1149M1149 136.5V126M1149 189V199.5M1149 199.5H1154M1154 199.5V251.5H1149M1154 199.5H1013.5M1149 251.5V262.5M1149 262.5H1154M1149 262.5H1153.5M1154 262.5V315M1154 262.5H1153.5M1154 315H1149M1154 315L1013.5 315M1149 315V325.5M1149 325.5H1154M1149 325.5H1153.5M1154 325.5V378M1154 325.5H1153.5M1154 378H1149M1154 378H1153.5M1149 378H1153.5M1149 378V388.5M1149 388.5H1154M1154 388.5V441M1154 441H1149M1149 441V451.5M1149 451.5H1154M1154 451.5V504M1154 504H1149M1154 504H1153.5M1149 504H1153.5M1149 504V515H1154M1154 515V566.5H1149M1149 566.5V578L1154 578M1154 578V630M1154 630H1149M1154 630H1153.5M1149 630H1153.5M1149 630V641H1154M1154 641V693M1154 693H1149M1154 693H1153.5M1149 693H1153.5M1149 693V703.5M1149 703.5H1154M1149 703.5H1153.5M1154 703.5V755.5M1154 703.5H1153.5M1154 755.5H1149M1154 755.5H1153.5H1149M1149 755.5V754.5M1149 755.5V766.5M1149 766.5H1154M1149 766.5H1153M1154 766.5V819M1154 766.5H1153M1154 819L1170.41 819M1149 60.0005L1170.41 60M1149 60.0005V60.5V74.0005M1149 60.0005V74.0005M1149 74.0005H1154M539 148.688C557.924 145.073 577.69 142.172 598 139.957M539 148.688L465 60.0007M598 139.957C636.07 135.806 676.054 134.063 716 134.538C756.025 135.015 796.013 137.718 834 142.457M598 139.957L539 60.0007M834 142.457C839.037 143.086 844.038 143.75 849 144.449C864.076 146.574 878.786 149.026 893 151.791M834 142.457L893 60.0006M893 151.791L967 63.104M465 60.0007L414 60.0005M465 60.0007H539M465 60.0007L1170.41 60M539 60.0007L893 60.0006M1153.5 504H1013.5M1153 766.5H1014M263 60H263.091M1170.5 60H1170.41M460.5 809H470M611.5 809H600M470 474H600M470 474V556M470 474H491M600 474V556M600 474H491M470 556V642M470 556H491M600 556V642M600 556H491M470 642V725M470 642H491M600 642V725M600 642H491M470 725H491M470 725V809M600 725H491M600 725V809M954 840L958.5 822.5H835.5L840 840M954 840H897M954 840V873.75M840 840H897M840 840V873.25M479.5 840.5L475 823H596L591.5 840.5M479.5 840.5V873.25M479.5 840.5H535.5M591.5 840.5H535.5M591.5 840.5V873.25M479.5 873.25V906H535.5M479.5 873.25L535.5 840.5M479.5 873.25L535.5 906M535.5 840.5L591.5 873.25M591.5 873.25V906H535.5M591.5 873.25L535.5 906M897 840L954 873.75M897 840L840 873.25M954 873.75V907.5H897M954 873.75L897 907.5M897 907.5H840V873.25M897 907.5L840 873.25M938 474V556M938 809V725M938 809H832M938 809H961M491 474V556M491 809V725M491 809H600M491 809H470M1003 441H429M1003 441V388M1003 441L973 441M429 441V388M429 441L460 441M429 388H1003M429 388L480 306H952L1003 388M973 441V920.5H822M973 441H822M460 441V920.5H611.5M460 441H611.5M822 441V920.5M822 441H716M822 920.5H611.5M822 920.5H716M611.5 441V920.5M611.5 441H716M611.5 920.5H716M716 441V920.5M1382 896L1417 931M1382 896V394M1382 896H1196.5M1417 931H1196V394M1417 931V394M1382 394H1196M1382 394H1417M61 896L26 931M61 896V394M61 896H238M26 931H238M26 931V394M61 394H238M61 394H26M238 896V394M238 896V931M254.588 36.0065H1V59.0316M254.588 36.0065V30H1178.91V36.5071M254.588 36.0065L263.091 59.0316M1178.91 36.5071H1442V59.5321M1178.91 36.5071L1170.41 59.5321M1442 59.5321V206M1442 59.5321H1400M1170.41 59.5321H1212M1170.41 59.5321V60M263.091 59.0316H223M263.091 59.0316V60M1 59.0316V206M1 59.0316H41M1170.41 204L1184.41 218M1170.41 204V819M1170.41 204V60M1442 206V950.501H1428M1442 206L1428 220M1 206V950H15M1 206L14.5 219.5M263.091 206V818.5M263.091 206L249 220.091M263.091 206V60M1212 59.5321L1245.27 192.5M1212 59.5321H1306H1400M1400 59.5321L1369 192.797M1369 192.797C1384.32 201.886 1399.76 214.969 1415 233M1369 192.797C1323.57 165.837 1279.31 174.025 1245.27 192.5M1415 233V304M1415 233L1428 220M1197.41 231C1208.52 218.002 1225.1 203.446 1245.27 192.5M1197.41 231V304M1197.41 231L1184.41 218M28 233C38.3991 219.227 54.6505 203.648 74.9905 192.5M28 233V304M28 233L14.5 219.5M74.9905 192.5C105.155 175.968 144.313 169.184 186.71 192.5M74.9905 192.5L41 59.0316M186.71 192.5C202.779 201.337 219.313 214.498 236 233.091M186.71 192.5L223 59.0316M236 233.091V304M236 233.091L249 220.091M41 59.0316H223M28 304H236M28 304L15 317M236 304L249 317M15 317H249M15 317V394M15 317L14.75 268.25L14.5 219.5M249 317V394M249 317V220.091M249 394V950.5M249 394H238M15 394V950M15 394H26M15 950L249 950.5M249 950.5H263.091M1197.41 304H1415M1197.41 304L1184.41 317M1415 304L1428 317M1428 317V220M1428 317H1184.41M1428 317V394M1184.41 317V394M1184.41 317V267.5V218M1184.41 950.501H1428M1184.41 950.501H1170.41M1184.41 950.501V672.25V394M1428 950.501V394M1428 394H1417M1184.41 394H1196M1417 394H1196M263.091 818.5V950.5M263.091 818.5H426M263.091 950.5H426V818.5M1004 819H1170.41M1004 819V950.501H1170.41M1170.41 819V950.501M26 394H238M238 394V931M491 556V642M491 642V725M600 809H470M938 642V556M938 642V725M832 809H961M832 464H961V452H832V464ZM470 452H600V464H470V452ZM480 179.5C542 155.667 723.2 122.3 952 179.5V294H480V179.5ZM622 452H706V464H622V452ZM726 452H812V464H726V452ZM726.5 895H812.5V907H726.5V895ZM622 895H706V907H622V895ZM622 809H706V885H622V809ZM726 885V809H812V885H726ZM726 798.5L726.5 474H812.5L812 798.5H726ZM622 798L622.5 474H706.5L706 798H622Z" stroke="black" stroke-width="2"/>
</svg>
