<svg width="398" height="423" viewBox="0 0 398 423" fill="none" xmlns="http://www.w3.org/2000/svg">
<path d="M38.4277 0V42.8323L20.214 63.648M2.00024 84.4637L20.214 63.648M20.214 63.648L2.00024 42.8323V0M20.214 63.648L38.4277 84.4637" stroke="#CEB4E2" stroke-width="3"/>
<path d="M396.295 0.0361328V42.8685L378.081 63.6842M359.867 84.4999L378.081 63.6842M378.081 63.6842L359.867 42.8685V0.0361328M378.081 63.6842L396.295 84.4999" stroke="#CEB4E2" stroke-width="3"/>
<path d="M38.4277 422.5V379.668L20.214 358.852M2.00024 338.036L20.214 358.852M20.214 358.852L2.00024 379.668V422.5M20.214 358.852L38.4277 338.036" stroke="#CEB4E2" stroke-width="3"/>
<path d="M396.295 422.464V379.632L378.081 358.816M359.867 338L378.081 358.816M378.081 358.816L359.867 379.632V422.464M378.081 358.816L396.295 338" stroke="#CEB4E2" stroke-width="3"/>
</svg>
