<svg width="201" height="217" viewBox="0 0 201 217" fill="none" xmlns="http://www.w3.org/2000/svg">
<path d="M43.3445 174.511L45.8283 170.972C45.794 169.891 45.5342 168.63 45.0487 167.189C43.951 164.174 41.9789 161.557 39.1326 159.34L21.3912 145.571L18.3329 148.047L17.6692 147.581L33.9689 124.352L34.6326 124.817L33.4335 127.938L61.9727 147.963L64.9221 143.76L73.5502 149.814L72.6188 151.141C71.6206 151.497 70.5267 151.676 69.337 151.678C66.7568 151.716 64.4637 151.032 62.4579 149.624L48.0211 170.199C49.9974 171.586 51.4108 173.524 52.2611 176.014C52.6643 177.133 52.8786 178.208 52.904 179.238L51.9726 180.565L43.3445 174.511ZM56.8499 155.264L28.0895 135.083L21.8801 143.933L40.0641 158.013C42.9398 160.251 44.9429 162.823 46.0733 165.729C46.5913 167.061 46.8719 168.292 46.9149 169.423L56.8499 155.264Z" fill="#3B3166"/>
<path d="M72.4521 152.616L74.2938 149.826L50.9077 124.334L47.9697 125.929L47.4216 125.332L51.0064 122.043C52.573 120.606 54.2706 119.978 56.0991 120.159C56.8097 120.24 57.5525 120.463 58.3274 120.828C58.0392 119.821 57.9293 118.822 57.9975 117.83C58.0962 115.539 59.0351 113.577 60.8142 111.945C62.3808 110.508 64.1525 109.641 66.1291 109.343C68.0814 109.019 70.1468 109.325 72.3254 110.26C74.4796 111.169 76.5921 112.752 78.6627 115.009C81.7809 118.408 83.3838 121.755 83.4714 125.048C83.5613 128.291 82.2652 131.143 79.5833 133.603C78.3088 134.773 76.9499 135.53 75.5068 135.876C74.9379 136.056 74.2827 136.168 73.5412 136.212L80.6667 143.979L83.6046 142.384L84.1527 142.982L73.0002 153.213L72.4521 152.616ZM76.8939 133.87C78.0357 132.823 78.303 131.355 77.6957 129.467C77.1149 127.555 75.1802 124.806 71.8915 121.221C68.749 117.796 66.2767 115.687 64.4745 114.896C62.6744 114.053 61.3496 114.021 60.4999 114.801C59.4908 115.727 59.0752 117.086 59.253 118.879C59.322 119.647 59.5171 120.446 59.8384 121.276L72.445 135.018C73.1578 135.048 73.6935 135.046 74.0521 135.01C75.2562 134.884 76.2035 134.504 76.8939 133.87Z" fill="#3B3166"/>
<path d="M101.385 117.826C97.5261 120.079 93.856 120.761 90.3747 119.873C86.9064 118.935 84.0458 116.537 81.7929 112.678C79.5401 108.819 78.867 105.165 79.7736 101.715C80.6931 98.2151 83.0824 95.3389 86.9412 93.086C90.8001 90.8332 94.4637 90.1756 97.932 91.1134C101.413 92.0018 104.28 94.3755 106.533 98.2343C108.786 102.093 109.453 105.772 108.533 109.272C107.627 112.722 105.244 115.573 101.385 117.826ZM100.84 116.893C102.085 116.166 102.619 114.686 102.441 112.453C102.295 110.201 101.014 107.006 98.5977 102.867C96.1813 98.7283 94.0287 96.0418 92.14 94.8078C90.2823 93.5556 88.7311 93.2929 87.4863 94.0196C86.2415 94.7464 85.6921 96.2354 85.8382 98.4869C86.0154 100.72 87.3121 103.906 89.7285 108.045C92.1449 112.184 94.2819 114.88 96.1396 116.132C98.0283 117.366 99.5951 117.619 100.84 116.893Z" fill="#3B3166"/>
<path d="M127.696 105.834C123.431 107.281 119.813 107.272 116.842 105.807C113.871 104.341 111.662 101.476 110.215 97.2102L109.173 94.1391C107.112 88.065 106.585 83.3159 107.592 79.8918C108.622 76.4221 110.903 73.7262 114.437 71.8041L125.515 65.7619L125.414 62.942L126.182 62.6815L127.745 67.2883C128.255 68.7897 128.29 70.0715 127.852 71.1337C127.413 72.1958 126.506 73.1123 125.131 73.8832L114.053 79.9254C112.963 80.5239 112.045 81.4633 111.299 82.7436C110.543 83.9897 110.101 85.5476 109.974 87.4171C109.87 89.241 110.2 91.279 110.964 93.5312C110.889 92.1869 111.154 90.7269 111.761 89.151C112.402 87.5636 113.374 86.1111 114.678 84.7937C116.004 83.4305 117.622 82.4246 119.533 81.7762C123.765 80.3404 127.354 80.3211 130.302 81.7183C133.272 83.0697 135.394 85.6223 136.667 89.376C137.941 93.1296 137.816 96.4635 136.294 99.3775C134.794 102.246 131.928 104.398 127.696 105.834ZM127.349 104.81C128.578 104.393 129.318 103.21 129.569 101.26C129.855 99.2982 129.32 96.3211 127.966 92.3286C126.611 88.3361 125.223 85.6485 123.803 84.2659C122.416 82.8718 121.109 82.3831 119.881 82.7999C118.652 83.2168 117.895 84.406 117.609 86.3675C117.358 88.3175 117.909 91.2888 119.264 95.2813C120.619 99.2738 121.989 101.967 123.376 103.361C124.796 104.744 126.121 105.227 127.349 104.81Z" fill="#3B3166"/>
<path d="M141.305 100.209L141.199 99.4047L144.308 98.1755L141.188 74.5979L137.866 74.2195L137.76 73.4157L152.764 71.4305L152.87 72.2342L149.762 73.4634L152.101 91.1467L158.725 75.2762L158.335 72.329L155.014 71.9506L154.908 71.1469L169.912 69.1616L170.018 69.9654L166.909 71.1946L170.029 94.7723L173.35 95.1507L173.457 95.9544L158.453 97.9397L158.346 97.1359L161.455 95.9067L159.115 78.2234L152.491 94.0939L152.881 97.0411L156.203 97.4195L156.309 98.2233L141.305 100.209Z" fill="#3B3166"/>
</svg>
