<svg width="91" height="84" viewBox="0 0 91 84" fill="none" xmlns="http://www.w3.org/2000/svg">
<path d="M77.3856 33.3764H64.3248C59.9712 33.3764 53.243 35.751 53.243 43.2709L53.6388 75.329C54.272 79.4452 58.1243 81.7935 59.9712 82.4531H82.9265C84.7735 81.7935 88.6257 79.4452 89.259 75.329V43.2709C89.3909 39.7088 87.2009 32.7431 77.3856 33.3764Z" fill="#7DBAB2"/>
<path d="M48.0978 7.57911H1V65.9078H48.0978V7.57911Z" fill="#7DBAB2"/>
<path d="M63.5333 13.5874L63.5333 28.4805H64.3248H77.3856H78.1771L78.1771 13.5874H63.5333Z" fill="#7DBAB2"/>
<path d="M1 82.9268H48.0978V65.9078H1V82.9268Z" fill="#CEB4E2"/>
<path d="M48.0978 1H1V7.57911H48.0978V1Z" fill="#CEB4E2"/>
<path d="M64.3248 28.4805L64.3248 33.3764H77.3856L77.3856 28.4805H64.3248Z" fill="#CEB4E2"/>
<path d="M1 7.57911V1H48.0978V7.57911M1 7.57911H48.0978M1 7.57911V65.9078M48.0978 7.57911V65.9078M48.0978 65.9078V82.9268H1V65.9078M48.0978 65.9078H1M64.3248 28.4805H63.5333L63.5333 13.5874H78.1771L78.1771 28.4805H77.3856M64.3248 28.4805L64.3248 33.3764M64.3248 28.4805H77.3856M64.3248 33.3764H77.3856M64.3248 33.3764C59.9712 33.3764 53.243 35.751 53.243 43.2709L53.6388 75.329C54.272 79.4452 58.1243 81.7935 59.9712 82.4531H82.9265C84.7735 81.7935 88.6257 79.4452 89.259 75.329V43.2709C89.3909 39.7088 87.2009 32.7431 77.3856 33.3764M77.3856 33.3764L77.3856 28.4805" stroke="#3B3166" stroke-width="2" stroke-linecap="square" stroke-linejoin="round"/>
</svg>
