<svg width="391" height="453" viewBox="0 0 391 453" fill="none" xmlns="http://www.w3.org/2000/svg">
<g clip-path="url(#clip0_71_702)">
<path d="M310.937 386.079C333.08 370.894 367.34 364.849 340.683 410.505C331.519 426.199 303.24 439.156 289.97 421.373C285.979 416.024 290.425 401.472 310.937 386.079Z" fill="#7DBAB2"/>
<path d="M2.56842 174.698C3.12182 169.923 8.15481 159.99 23.8596 158.463C39.5643 156.936 33.3453 183.665 23.4481 190.13C13.4989 195.245 -1.96271 200.517 2.56842 174.698Z" fill="#7DBAB2"/>
<path fill-rule="evenodd" clip-rule="evenodd" d="M112.996 27.6365C52.7498 48.1208 40.8478 100.462 42.4275 124.073C47.6433 167.048 36.8608 194.216 30.8176 202.427C18.0864 223.204 -1.93783 269.012 19.8143 286.034C41.5664 303.056 63.3781 360.519 71.565 387.123C121.277 490.075 215.66 444.776 256.638 409.257C345.303 359.443 374.899 286.649 365.413 261.448C406.397 272.053 386.057 207.095 357.283 239.847C345.018 224.734 349.053 137.904 352.604 96.3783C354.201 27.8211 307.672 7.33753 284.208 5.66542C272.349 3.27873 242.3 0.614165 216.977 9.04955C191.654 17.4849 137.105 24.9556 112.996 27.6365ZM75.2061 174.759C94.4837 148.321 140.354 112.697 169.614 181.697C154.478 199.724 114.406 223.576 75.2061 174.759ZM224.392 181.63C244.422 157.192 292.397 124.247 324.051 187.961C305.664 205.842 259.989 229.611 224.392 181.63ZM186.043 239.907C206.411 245.484 242.815 249.502 225.491 220.948C208.167 192.395 178.742 201.096 166.195 209.015C154.156 223.137 141.271 249.086 186.043 239.907ZM194.45 272.365C162.635 252.554 133.084 260.583 122.284 267.074C109.493 288.644 134.056 312.908 199.635 308.775C293.84 302.839 284.891 266.181 266.953 254.665C249.236 247.633 208.109 264.026 194.45 272.365Z" fill="#7DBAB2"/>
<path d="M96.369 176.384C110.116 168.012 129.212 156.623 149.044 174.368M250.058 184.299C263.805 175.928 284.256 168.139 304.088 185.884M177.685 227.825C174.028 231.172 173.228 232.069 166.735 229.155M203.689 228.488C206.367 232.66 206.91 233.732 213.933 232.578M194.783 33.8425C343.963 29.7575 432.946 382.628 179.005 385.043C-13.4105 361.564 36.0307 52.4968 194.786 33.8413M143.164 275.227C158.637 287.215 215.236 302.903 250.463 269.093M42.4275 124.073C40.8478 100.462 52.7498 48.1208 112.996 27.6365C137.105 24.9556 191.654 17.4849 216.977 9.04955C242.3 0.614165 272.349 3.27873 284.208 5.66542C307.672 7.33753 354.201 27.8211 352.604 96.3783C349.053 137.904 345.018 224.734 357.283 239.847C386.057 207.095 406.397 272.053 365.413 261.448C374.899 286.649 345.303 359.443 256.638 409.257C215.66 444.776 121.277 490.075 71.565 387.123C63.3781 360.519 41.5664 303.056 19.8143 286.034C-1.93783 269.012 18.0864 223.204 30.8176 202.427C36.8608 194.216 47.6433 167.048 42.4275 124.073ZM310.937 386.079C333.08 370.894 367.34 364.849 340.683 410.505C331.519 426.199 303.24 439.156 289.97 421.373C285.979 416.024 290.425 401.472 310.937 386.079ZM2.56842 174.698C3.12182 169.923 8.15481 159.99 23.8596 158.463C39.5643 156.936 33.3453 183.665 23.4481 190.13C13.4989 195.245 -1.96271 200.517 2.56842 174.698ZM75.2061 174.759C94.4837 148.321 140.354 112.697 169.614 181.697C154.478 199.724 114.406 223.576 75.2061 174.759ZM224.392 181.63C244.422 157.192 292.397 124.247 324.051 187.961C305.664 205.842 259.989 229.611 224.392 181.63ZM186.043 239.907C206.411 245.484 242.815 249.502 225.491 220.948C208.167 192.395 178.742 201.096 166.195 209.015C154.156 223.137 141.271 249.086 186.043 239.907ZM122.284 267.074C133.084 260.583 162.635 252.554 194.45 272.365C208.109 264.026 249.236 247.633 266.953 254.665C284.891 266.181 293.84 302.839 199.635 308.775C134.056 312.908 109.493 288.644 122.284 267.074Z" stroke="#3B3166" stroke-width="1.65549"/>
</g>
<defs>
<clipPath id="clip0_71_702">
<rect width="391" height="453" fill="white"/>
</clipPath>
</defs>
</svg>
