<svg width="90" height="85" viewBox="0 0 90 85" fill="none" xmlns="http://www.w3.org/2000/svg">
<path d="M76.5805 33.8949H63.73C59.4465 33.8949 52.8265 36.2696 52.8265 43.7894L53.2159 75.8476C53.839 79.9637 57.6292 82.312 59.4465 82.9716H82.0323C83.8495 82.312 87.6398 79.9637 88.2628 75.8476V43.7894C88.3926 40.2274 86.2379 33.2617 76.5805 33.8949Z" fill="#7DBAB2"/>
<path d="M47.7642 8.09766H1.42432V66.4263H47.7642V8.09766Z" fill="#7DBAB2"/>
<path d="M62.9512 14.1059L62.9512 28.999H63.73H76.5805H77.3594L77.3594 14.1059H62.9512Z" fill="#7DBAB2"/>
<path d="M1.42432 83.4453H47.7642V66.4263H1.42432V83.4453Z" fill="#CEB4E2"/>
<path d="M47.7642 1.51855H1.42432V8.09766H47.7642V1.51855Z" fill="#CEB4E2"/>
<path d="M63.73 28.999L63.73 33.8949H76.5805L76.5805 28.999H63.73Z" fill="#CEB4E2"/>
<path d="M1.42432 8.09766V1.51855H47.7642V8.09766M1.42432 8.09766H47.7642M1.42432 8.09766V66.4263M47.7642 8.09766V66.4263M47.7642 66.4263V83.4453H1.42432V66.4263M47.7642 66.4263H1.42432M63.73 28.999H62.9512L62.9512 14.1059H77.3594L77.3594 28.999H76.5805M63.73 28.999L63.73 33.8949M63.73 28.999H76.5805M63.73 33.8949H76.5805M63.73 33.8949C59.4465 33.8949 52.8265 36.2696 52.8265 43.7894L53.2159 75.8476C53.839 79.9637 57.6292 82.312 59.4465 82.9716H82.0323C83.8495 82.312 87.6398 79.9637 88.2628 75.8476V43.7894C88.3927 40.2274 86.2379 33.2617 76.5805 33.8949M76.5805 33.8949L76.5805 28.999" stroke="#3B3166" stroke-width="2" stroke-linecap="square" stroke-linejoin="round"/>
</svg>
