<svg width="203" height="201" viewBox="0 0 203 201" fill="none" xmlns="http://www.w3.org/2000/svg">
<rect x="1.37598" y="1.00098" width="198.312" height="198.312" rx="26.5539" fill="#7DBAB2" stroke="#3B3166" stroke-width="2"/>
<mask id="mask0_67_419" style="mask-type:alpha" maskUnits="userSpaceOnUse" x="2" y="0" width="201" height="201">
<rect x="2.12598" width="200.312" height="200.312" rx="27.5539" fill="#8C6C6D"/>
</mask>
<g mask="url(#mask0_67_419)">
<path d="M-54.1845 205.618C-66.8253 205.618 -76.657 202.247 -83.6796 195.506C-90.7023 188.764 -94.2136 179.494 -94.2136 167.696C-94.2136 158.426 -91.1236 150.561 -84.9437 144.1C-78.4829 137.358 -71.0388 133.987 -62.6117 133.987C-60.3644 133.987 -58.1172 134.268 -55.8699 134.83C-53.6227 135.111 -52.0777 135.251 -51.235 135.251L-45.7573 136.094V192.977C-39.0155 189.887 -33.1165 183.708 -28.0602 174.438C-23.0039 165.168 -19.7735 149.577 -18.369 127.667L-9.94177 3.36587L-39.4369 -5.0613V-11.3817H156.495V-5.0613L131.214 1.25908V186.657L156.495 192.977V199.298H38.5145V192.977L63.7961 186.657V-0.847717H2.699L-5.72818 127.667C-7.41362 154.353 -12.7508 174.016 -21.7398 186.657C-30.7288 199.298 -41.5437 205.618 -54.1845 205.618Z" fill="#FAF4FF"/>
<path d="M-83.6796 195.506L-82.9871 194.784L-82.9871 194.784L-83.6796 195.506ZM-84.9437 144.1L-85.6657 143.408L-85.6663 143.409L-84.9437 144.1ZM-55.8699 134.83L-56.1124 135.8L-56.0539 135.815L-55.994 135.822L-55.8699 134.83ZM-51.235 135.251L-51.0829 134.263L-51.1585 134.251H-51.235V135.251ZM-45.7573 136.094H-44.7573V135.236L-45.6052 135.106L-45.7573 136.094ZM-45.7573 192.977H-46.7573V194.536L-45.3406 193.887L-45.7573 192.977ZM-28.0602 174.438L-28.9381 173.959L-28.9381 173.959L-28.0602 174.438ZM-18.369 127.667L-19.3667 127.599L-19.3669 127.603L-18.369 127.667ZM-9.94177 3.36587L-8.94406 3.43351L-8.88935 2.62655L-9.66705 2.40435L-9.94177 3.36587ZM-39.4369 -5.0613H-40.4369V-4.307L-39.7116 -4.09978L-39.4369 -5.0613ZM-39.4369 -11.3817V-12.3817H-40.4369V-11.3817H-39.4369ZM156.495 -11.3817H157.495V-12.3817H156.495V-11.3817ZM156.495 -5.0613L156.738 -4.09116L157.495 -4.28053V-5.0613H156.495ZM131.214 1.25908L130.971 0.288934L130.214 0.4783V1.25908H131.214ZM131.214 186.657H130.214V187.438L130.971 187.627L131.214 186.657ZM156.495 192.977H157.495V192.197L156.738 192.007L156.495 192.977ZM156.495 199.298V200.298H157.495V199.298H156.495ZM38.5145 199.298H37.5145V200.298H38.5145V199.298ZM38.5145 192.977L38.272 192.007L37.5145 192.197V192.977H38.5145ZM63.7961 186.657L64.0386 187.627L64.7961 187.438V186.657H63.7961ZM63.7961 -0.847717H64.7961V-1.84772H63.7961V-0.847717ZM2.699 -0.847717V-1.84772H1.76243L1.70114 -0.91315L2.699 -0.847717ZM-5.72818 127.667L-6.72604 127.601L-6.7262 127.604L-5.72818 127.667ZM-21.7398 186.657L-22.5548 186.078L-22.5548 186.078L-21.7398 186.657ZM-54.1845 204.618C-66.6469 204.618 -76.2012 201.299 -82.9871 194.784L-84.3721 196.227C-77.1127 203.196 -67.0036 206.618 -54.1845 206.618V204.618ZM-82.9871 194.784C-89.7727 188.27 -93.2136 179.284 -93.2136 167.696H-95.2136C-95.2136 179.704 -91.6318 189.258 -84.3721 196.227L-82.9871 194.784ZM-93.2136 167.696C-93.2136 158.673 -90.2158 151.058 -84.221 144.791L-85.6663 143.409C-92.0314 150.063 -95.2136 158.179 -95.2136 167.696H-93.2136ZM-84.2217 144.792C-77.927 138.223 -70.7354 134.987 -62.6117 134.987V132.987C-71.3423 132.987 -79.0387 136.493 -85.6657 143.408L-84.2217 144.792ZM-62.6117 134.987C-60.4487 134.987 -58.2828 135.257 -56.1124 135.8L-55.6274 133.86C-57.9515 133.279 -60.2802 132.987 -62.6117 132.987V134.987ZM-55.994 135.822C-53.7519 136.102 -52.1485 136.251 -51.235 136.251V134.251C-52.0069 134.251 -53.4934 134.119 -55.7459 133.838L-55.994 135.822ZM-51.387 136.24L-45.9094 137.082L-45.6052 135.106L-51.0829 134.263L-51.387 136.24ZM-46.7573 136.094V192.977H-44.7573V136.094H-46.7573ZM-45.3406 193.887C-38.3351 190.676 -32.2995 184.298 -27.1823 174.917L-28.9381 173.959C-33.9335 183.117 -39.696 189.099 -46.174 192.068L-45.3406 193.887ZM-27.1823 174.917C-22.0146 165.442 -18.7769 149.663 -17.371 127.731L-19.3669 127.603C-20.7701 149.492 -23.9933 164.893 -28.9381 173.959L-27.1823 174.917ZM-17.3712 127.734L-8.94406 3.43351L-10.9395 3.29823L-19.3667 127.599L-17.3712 127.734ZM-9.66705 2.40435L-39.1622 -6.02283L-39.7116 -4.09978L-10.2165 4.32739L-9.66705 2.40435ZM-38.4369 -5.0613V-11.3817H-40.4369V-5.0613H-38.4369ZM-39.4369 -10.3817H156.495V-12.3817H-39.4369V-10.3817ZM155.495 -11.3817V-5.0613H157.495V-11.3817H155.495ZM156.253 -6.03145L130.971 0.288934L131.456 2.22922L156.738 -4.09116L156.253 -6.03145ZM130.214 1.25908V186.657H132.214V1.25908H130.214ZM130.971 187.627L156.253 193.948L156.738 192.007L131.456 185.687L130.971 187.627ZM155.495 192.977V199.298H157.495V192.977H155.495ZM156.495 198.298H38.5145V200.298H156.495V198.298ZM39.5145 199.298V192.977H37.5145V199.298H39.5145ZM38.7571 193.948L64.0386 187.627L63.5535 185.687L38.272 192.007L38.7571 193.948ZM64.7961 186.657V-0.847717H62.7961V186.657H64.7961ZM63.7961 -1.84772H2.699V0.152283H63.7961V-1.84772ZM1.70114 -0.91315L-6.72604 127.601L-4.73033 127.732L3.69686 -0.782283L1.70114 -0.91315ZM-6.7262 127.604C-8.40737 154.222 -13.7263 173.663 -22.5548 186.078L-20.9249 187.237C-11.7754 174.37 -6.41987 154.483 -4.73017 127.73L-6.7262 127.604ZM-22.5548 186.078C-31.4042 198.522 -41.9422 204.618 -54.1845 204.618V206.618C-41.1452 206.618 -30.0535 200.074 -20.9249 187.237L-22.5548 186.078Z" fill="#3B3166"/>
</g>
<rect x="1.37598" y="1.00098" width="198.312" height="198.312" rx="26.5539" stroke="#3B3166" stroke-width="2"/>
</svg>
