<svg width="16" height="16" viewBox="0 0 16 16" fill="none" xmlns="http://www.w3.org/2000/svg">
<path d="M3.32 5.48685V15H12.28V5.48685L11.6267 4.73333H4.16L3.32 5.48685Z" fill="#3B3166"/>
<path d="M9.85333 7.72H5.56V11.8267H9.85333V7.72Z" fill="#CEB4E2"/>
<path d="M6.30667 4.73333V3.05333C5.77778 3.05333 4.72 2.848 4.72 2.02667C4.65778 1.68444 4.88793 1 6.3066 1H9.2934C10.7121 1 10.9422 1.68444 10.88 2.02667C10.88 2.848 9.82222 3.05333 9.29333 3.05333V4.73333H6.30667Z" fill="#CEB4E2"/>
<path d="M9.29333 4.73333H6.30667V3.05333C5.77778 3.05333 4.72 2.848 4.72 2.02667C4.65778 1.68444 4.88793 1 6.3066 1M9.29333 4.73333V3.05333C9.82222 3.05333 10.88 2.848 10.88 2.02667C10.9422 1.68444 10.7121 1 9.2934 1H6.3066M9.29333 4.73333V2.77333M6.3066 1H9.47991M3.32 5.48685V15H12.28V5.48685L11.6267 4.73333H4.16L3.32 5.48685ZM5.56 7.72H9.85333V11.8267H5.56V7.72Z" stroke="black" stroke-width="0.373333"/>
</svg>
