<svg width="483" height="825" viewBox="0 0 483 825" fill="none" xmlns="http://www.w3.org/2000/svg">
<path d="M290.014 789.689L830.634 551.284L585.918 1.54785L43.8953 249.069L290.014 789.689Z" fill="#FAF4FF"/>
<path d="M28.4691 282.726L273.186 824.048L290.014 789.689L43.8953 249.069L28.4691 282.726Z" fill="#FAF4FF"/>
<path d="M273.186 824.048L816.611 582.136L830.634 551.284L290.014 789.689L273.186 824.048Z" fill="#FAF4FF"/>
<path d="M273.186 824.048L28.4691 282.726L43.8953 249.069M273.186 824.048L816.611 582.136L830.634 551.284M273.186 824.048L290.014 789.689M830.634 551.284L290.014 789.689M830.634 551.284L585.918 1.54785L43.8953 249.069M290.014 789.689L43.8953 249.069" stroke="#3B3166" stroke-width="2"/>
<path d="M242.511 344.736L298.742 324.081L263.189 288.92C258.852 282.426 263.071 273.612 267.875 267.232C269.604 264.935 271.409 262.953 272.919 261.509L320.459 269.042L263.189 146.769L328.174 117.269L381.053 225.348C395.551 202.494 414.691 202.538 422.449 205.417L437.122 241.356C449.069 227.724 464.554 233.344 470.803 237.858L493.524 296.126L526.63 297.9C532.326 301.702 533.756 314.283 533.759 320.098L526.324 329.404L563.321 339.44C577.263 346.588 571.932 358.807 567.523 364.024L513.533 382.447C489.147 389.979 470.317 389.519 463.951 388.348L485.997 435.328C493.046 443.623 492.811 449.827 489.287 454.308L500.282 488.225C498.542 495.055 489.85 506.305 469.005 496.664L450.967 476.455C458.892 496.52 465.316 519.472 468.753 534.212L470.803 621.769L436.111 538.487L391.83 472.689L379.967 452.32L391.144 494.76C382.457 508.009 368.757 504.479 362.993 501.059L360.815 493.903L342.783 521.586C322.394 523.263 310.183 508.643 306.626 501.124L316.83 480.226C309.75 477.489 303.977 473.208 301.041 470.361L302.285 449.224L167.675 512.768L142.174 534.212L116.675 480.226L142.174 454.308L271.27 400.452L289.6 378.615L250.39 379.312C236.014 367.647 239.147 351.401 242.511 344.736Z" fill="#CEB4E2"/>
<path d="M298.742 324.081L242.511 344.736C239.147 351.401 236.014 367.647 250.39 379.312L289.6 378.615M298.742 324.081L308.734 320.404M298.742 324.081L263.189 288.92C258.852 282.426 263.071 273.612 267.875 267.232M298.742 324.081C295.632 302.586 321.857 300.916 335.358 302.768M289.6 378.615L304.904 359.041M289.6 378.615L271.27 400.452M315.836 345.059L308.734 320.404M315.836 345.059L304.904 359.041M315.836 345.059L337.112 322.851M308.734 320.404C304.554 325.569 297.936 340.527 304.904 359.041M271.27 400.452C265.506 407.99 260.5 425.789 286.585 436.68L303.53 428.086M271.27 400.452L142.174 454.308M364.417 397.205C351.72 395.239 328.484 377.616 337.112 322.851M364.417 397.205L322.198 418.618M364.417 397.205L374.862 432.937M364.417 397.205L356.73 376.274M337.112 322.851L356.73 376.274M337.112 322.851L346.815 319.815M303.53 428.086L322.198 418.618M303.53 428.086L302.285 449.224M344.317 462.698L334.47 482.493C328.283 483.48 322.183 482.295 316.83 480.226M344.317 462.698L322.198 418.618M344.317 462.698L360.815 493.903M316.83 480.226C309.75 477.489 303.977 473.208 301.041 470.361L302.285 449.224M316.83 480.226L306.626 501.124C310.182 508.643 322.394 523.263 342.783 521.586L360.815 493.903M360.815 493.903L362.993 501.059C368.757 504.479 382.457 508.009 391.144 494.76L379.967 452.32M374.862 432.937L394.33 384.601M374.862 432.937L379.967 452.32M394.33 384.601C387.625 378.835 370.717 369.097 356.73 376.274M394.33 384.601L433.305 393.431M356.73 376.274C360.479 374.169 366.175 372.157 373.35 371.191M356.73 376.274C357.334 362.252 362.891 331.475 380.288 320.546M444.608 395.992L433.305 393.431M444.608 395.992C450.072 391.54 449.178 354.113 448.048 335.957M444.608 395.992C434.581 387.625 424.816 381.771 415.615 377.81M433.305 393.431C432.209 403.23 429.681 420.155 425.843 436.723M391.83 472.689L414.57 471.206C419.082 462.274 422.859 449.607 425.843 436.723M391.83 472.689L379.967 452.32M391.83 472.689L436.111 538.487M436.111 538.487C445.471 541.007 465.103 543.681 468.753 534.212M436.111 538.487L470.803 621.769L468.753 534.212M468.753 534.212C465.316 519.472 458.892 496.52 450.967 476.455M425.843 436.723L468.561 463.742C475.435 462.79 484.904 459.882 489.287 454.308M425.843 436.723C434.722 441.244 443.51 457.571 450.967 476.455M489.287 454.308C492.811 449.827 493.046 443.623 485.997 435.328L463.951 388.348C470.317 389.519 489.147 389.979 513.533 382.447L567.523 364.024C571.932 358.807 577.264 346.588 563.321 339.44L526.324 329.404M489.287 454.308L500.282 488.225C498.542 495.055 489.85 506.305 469.005 496.664L450.967 476.455M526.324 329.404L510.297 350.582C496.04 342.716 463.631 328.779 448.048 335.957M526.324 329.404L533.759 320.098C533.756 314.283 532.326 301.702 526.63 297.9L493.524 296.126M448.048 335.957L449.304 328.034M449.304 328.034C444.928 324.158 433.254 318.3 421.567 325.875M449.304 328.034L448.11 293.693M421.567 325.875L415.615 377.81M421.567 325.875C413.18 320.397 393.182 311.663 380.288 320.546M421.567 325.875C426.051 316.268 433.98 291.894 429.823 271.252M415.615 377.81C399.136 370.716 384.468 369.696 373.35 371.191M380.288 320.546C373.012 336.445 361.438 368.833 373.35 371.191M380.288 320.546C380.098 301.218 383.806 261.503 400.162 257.267C416.518 253.031 426.751 264.825 429.823 271.252M448.11 293.693C441.195 282.551 429.317 256.484 437.122 241.356M448.11 293.693L493.524 296.126M437.122 241.356C449.069 227.724 464.554 233.344 470.803 237.858L493.524 296.126M437.122 241.356C431.334 246.072 429.845 263.251 429.823 271.252M437.122 241.356L422.449 205.417C414.691 202.538 395.551 202.494 381.053 225.348M381.053 225.348L377.53 259.879M381.053 225.348L328.174 117.269L263.189 146.769L320.459 269.042M377.53 259.879L347.508 249.436C342.583 248.578 330.279 251.299 320.459 269.042M377.53 259.879C376.423 278.776 373.187 317.403 369.103 320.731C365.019 324.059 352.542 321.507 346.815 319.815M320.459 269.042L272.919 261.509C271.409 262.953 269.604 264.935 267.875 267.232M320.459 269.042C316.231 284.177 328.63 297.832 335.358 302.768M267.875 267.232L335.358 302.768M335.358 302.768L346.815 319.815M142.174 454.308L167.675 512.768M142.174 454.308L116.675 480.226L142.174 534.212L167.675 512.768M167.675 512.768L302.285 449.224" stroke="#3B3166" stroke-width="2"/>
</svg>
