<svg width="255" height="223" viewBox="0 0 255 223" fill="none" xmlns="http://www.w3.org/2000/svg">
<path d="M47.5596 192.439C46.8786 193.794 45.9364 194.709 44.7332 195.184C43.4992 195.644 42.2817 195.572 41.0807 194.968C39.9105 194.38 39.1493 193.554 38.797 192.489C38.414 191.41 38.4856 190.346 39.0118 189.299C39.1356 189.053 39.2903 188.822 39.4757 188.607C39.6303 188.376 39.7308 188.214 39.7773 188.122L40.1715 187.568L46.6382 190.818C46.8411 189.647 46.3506 188.321 45.1669 186.838C43.9679 185.31 41.4979 183.509 37.7568 181.436L19.0518 170.877L16.5028 173.646L15.8099 173.298L27.7668 149.509L28.4597 149.857L27.7595 152.977L57.3219 167.836L59.4078 165.413L60.1006 165.761L53.4837 178.926L52.7908 178.578L53.491 175.458L23.6977 160.483L19.2864 169.259L38.4533 180.05C42.733 182.51 45.5335 184.766 46.8547 186.819C48.176 188.872 48.4109 190.745 47.5596 192.439Z" fill="#3B3166"/>
<path d="M60.6474 164.769L60.0145 164.321L61.174 161.342L42.6093 148.197L40.184 150.281L39.5511 149.832L47.9158 138.018L48.5487 138.467L47.3891 141.446L61.3127 151.305L54.4896 136.338L52.169 134.695L49.7436 136.779L49.1107 136.331L57.4755 124.517L58.1083 124.965L56.9488 127.945L75.5135 141.089L77.9389 139.006L78.5718 139.454L70.2071 151.268L69.5742 150.82L70.7337 147.84L56.8102 137.982L63.6333 152.948L65.9539 154.591L68.3792 152.507L69.0121 152.955L60.6474 164.769Z" fill="#3B3166"/>
<path d="M79.7199 137.197L81.3283 134.433L65.0314 118.564L62.3118 120.245L61.7562 119.704L78.5273 102.481L85.009 108.793L83.927 109.904C83.0504 109.964 82.1722 109.903 81.2923 109.72C79.1895 109.212 77.4344 108.272 76.0269 106.902L70.6169 112.457L87.099 128.507L89.8186 126.826L90.3742 127.367L80.2755 137.738L79.7199 137.197Z" fill="#3B3166"/>
<path d="M106.187 114.236C103.735 116.079 101.454 116.974 99.3449 116.921C97.2356 116.869 95.5699 116.03 94.348 114.404C93.5403 113.33 92.9771 112.093 92.6584 110.694C92.4784 110.053 92.3846 109.413 92.377 108.771C93.2994 107.647 94.3389 106.477 95.4955 105.263C98.0979 102.53 100.501 100.249 102.705 98.42L101.773 97.1803C99.4738 94.1225 97.5175 92.2946 95.9039 91.6968C94.2902 91.0989 92.712 91.3799 91.1693 92.5397C90.5908 92.9746 90.1467 93.4163 89.837 93.8647L89.4138 94.5062L94.0738 100.705L93.6298 101.232C93.2304 101.619 92.8792 101.926 92.5762 102.154C91.6395 102.858 90.6748 103.152 89.6821 103.036C88.6962 102.872 87.8512 102.321 87.147 101.385C86.1943 100.117 86.0202 98.5667 86.6247 96.7325C87.2567 94.8775 88.84 92.9973 91.3744 91.0919C93.5232 89.4765 95.6589 88.4745 97.7815 88.0861C99.911 87.6494 101.883 87.8057 103.696 88.5549C105.517 89.2559 107.08 90.4742 108.384 92.2097L116.772 103.367L119.718 102.123L120.184 102.743L116.464 105.539C114.812 106.781 113.147 107.235 111.472 106.899C110.776 106.775 110.079 106.48 109.382 106.012C109.515 106.991 109.526 107.952 109.417 108.897C109.109 111.068 108.032 112.848 106.187 114.236ZM106.752 111.547C107.771 110.78 108.28 109.536 108.278 107.812C108.271 107.171 108.173 106.382 107.986 105.445L103.481 99.4531C102.214 100.406 101.054 101.386 100 102.394C99.2291 103.146 98.7024 103.65 98.4201 103.905C98.5101 104.311 98.6831 104.828 98.9388 105.455C99.4503 106.709 100.089 107.846 100.856 108.865C102.015 110.408 103.109 111.375 104.137 111.767C105.164 112.158 106.036 112.085 106.752 111.547Z" fill="#3B3166"/>
<path d="M126.664 98.3539L129.052 96.2272L118.373 75.8502L114.939 77.65C115.819 79.329 116.203 81.2872 116.091 83.5247C116.031 84.3737 115.854 85.225 115.562 86.0784L114.188 86.7983L109.989 78.7849L132.884 66.7864L137.084 74.7999L135.71 75.5198C134.858 75.3048 134.042 74.9735 133.263 74.5258C131.422 73.3893 130.046 71.951 129.134 70.2109L125.7 72.0107L136.378 92.3877L139.486 91.6347L139.846 92.3216L127.024 99.0407L126.664 98.3539Z" fill="#3B3166"/>
<path d="M154.97 97.8645C153.507 98.3785 152.232 98.3882 151.145 97.8934C150.057 97.3986 149.274 96.4683 148.794 95.1026C148.36 93.867 148.348 92.7935 148.759 91.8822C149.202 90.9594 149.976 90.3038 151.081 89.9154C151.342 89.824 151.607 89.7489 151.879 89.69C152.162 89.6636 152.352 89.6333 152.45 89.599L153.118 89.4738L155.431 96.0585C156.317 95.5646 156.964 94.753 157.371 93.6237C157.778 92.4944 158.043 90.7025 158.167 88.248L158.286 85.4665L137.379 66.5098L134.683 66.635L134.426 65.9034L140.523 63.7614C142.214 63.1673 143.672 63.0566 144.899 63.4292C146.147 63.7579 147.369 64.4795 148.564 65.5938L158.619 74.7189L159.097 59.7015L154.925 59.5235L154.668 58.7918L163.691 55.6216L163.948 56.3532L160.56 59.1874L159.63 87.7339C159.526 90.7658 159.095 93.0727 158.336 94.6546C157.588 96.269 156.466 97.3389 154.97 97.8645Z" fill="#3B3166"/>
<path d="M171.677 90.0733L174.558 88.6871L167.873 56.2828L164.679 56.15L164.522 55.3905L169.079 54.4505C171.07 54.0396 172.772 54.3572 174.184 55.4031C174.728 55.8189 175.228 56.3668 175.685 57.0467C175.942 56.0785 176.343 55.2042 176.886 54.4236C178.091 52.5913 179.825 51.4419 182.086 50.9753C184.078 50.5645 185.958 50.7221 187.726 51.4482C189.488 52.1405 191.033 53.4053 192.363 55.2425C193.685 57.046 194.642 59.3824 195.234 62.2515C196.125 66.5721 195.798 70.1058 194.253 72.8526C192.735 75.5588 190.272 77.2635 186.863 77.9668C185.242 78.301 183.755 78.2559 182.401 77.8315C181.846 77.6997 181.253 77.4701 180.622 77.1427L182.659 87.0159L185.854 87.1487L186.01 87.9081L171.833 90.8327L171.677 90.0733ZM184.524 76.8656C185.975 76.5662 186.915 75.4926 187.343 73.6447C187.805 71.7898 187.566 68.584 186.626 64.0271C185.728 59.6728 184.734 56.7284 183.643 55.1939C182.579 53.6186 181.507 52.9424 180.427 53.1652C179.144 53.4298 178.136 54.3417 177.401 55.9007C177.081 56.5651 176.849 57.3168 176.705 58.1558L180.309 75.6237C180.879 75.9988 181.32 76.2598 181.632 76.4066C182.682 76.8937 183.646 77.0467 184.524 76.8656Z" fill="#3B3166"/>
<path d="M201.089 75.3178L204.121 74.3051L202.364 51.626L199.212 51.0925L199.152 50.3193L213.584 49.2011L213.644 49.9743L210.611 50.9871L211.29 59.7494L213.867 59.5498C222.801 58.8576 227.468 61.0886 227.867 66.243C228.267 71.3973 223.999 74.3206 215.065 75.0128L201.148 76.091L201.089 75.3178ZM229.497 73.8946L229.437 73.1215L232.47 72.1087L230.713 49.4296L227.561 48.8961L227.501 48.1229L241.933 47.0048L241.993 47.7779L238.96 48.7907L240.717 71.4698L243.87 72.0033L243.929 72.7765L229.497 73.8946ZM214.965 73.7242C216.477 73.6071 217.621 72.9826 218.398 71.8508C219.206 70.682 219.528 69.0324 219.363 66.9019C219.198 64.7714 218.627 63.2082 217.651 62.2122C216.707 61.1792 215.479 60.7212 213.967 60.8383L211.39 61.038L212.388 73.9239L214.965 73.7242Z" fill="#3B3166"/>
</svg>
