<svg width="92" height="95" viewBox="0 0 92 95" fill="none" xmlns="http://www.w3.org/2000/svg">
<path d="M16.4327 55.9527L15.8855 54.4226L19.601 51.9433L11.3931 28.9917L6.91423 35.7708L4.83692 34.7879L12.045 19.5543L19.6955 16.8183L30.8218 47.9306L35.2669 47.4915L35.8141 49.0216L16.4327 55.9527ZM31.9703 92.9658L58.9684 2.77364L64.5788 0.767257L37.5807 90.9595L31.9703 92.9658ZM69.7131 79.4684L69.1659 77.9383L72.8814 75.459L71.0574 70.3586L56.2663 75.6482L53.8242 73.6452L66.8554 42.5228L72.9759 40.334L81.1838 63.2856L87.5083 61.0239L88.6027 64.0841L82.2782 66.3459L84.1022 71.4462L88.5473 71.0071L89.0945 72.5372L69.7131 79.4684ZM57.7221 71.676L69.963 67.2984L65.2206 54.0374L57.7221 71.676Z" fill="#CEB4E2"/>
<path d="M16.4327 55.9527L15.4911 56.2894L15.8278 57.231L16.7694 56.8943L16.4327 55.9527ZM15.8855 54.4226L15.3305 53.5908L14.681 54.0241L14.9439 54.7593L15.8855 54.4226ZM19.601 51.9433L20.1561 52.7751L20.8055 52.3418L20.5426 51.6066L19.601 51.9433ZM11.3931 28.9917L12.3347 28.6549L11.6612 26.7717L10.5587 28.4404L11.3931 28.9917ZM6.91423 35.7708L6.48652 36.6747L7.27049 37.0456L7.74857 36.322L6.91423 35.7708ZM4.83692 34.7879L3.93301 34.3601L3.5053 35.2641L4.40922 35.6918L4.83692 34.7879ZM12.045 19.5543L11.7082 18.6127L11.3182 18.7522L11.1411 19.1266L12.045 19.5543ZM19.6955 16.8183L20.6371 16.4816L20.3004 15.54L19.3588 15.8767L19.6955 16.8183ZM30.8218 47.9306L29.8802 48.2673L30.1431 49.0025L30.9201 48.9257L30.8218 47.9306ZM35.2669 47.4915L36.2085 47.1547L35.9456 46.4195L35.1686 46.4963L35.2669 47.4915ZM35.8141 49.0216L36.1508 49.9632L37.0924 49.6264L36.7557 48.6848L35.8141 49.0216ZM31.9703 92.9658L31.0123 92.6791L30.4453 94.5732L32.3071 93.9074L31.9703 92.9658ZM58.9684 2.77364L58.6317 1.83204L58.1554 2.00235L58.0104 2.48687L58.9684 2.77364ZM64.5788 0.767257L65.5368 1.05402L66.1038 -0.84013L64.2421 -0.174343L64.5788 0.767257ZM37.5807 90.9595L37.9175 91.9011L38.3937 91.7308L38.5387 91.2462L37.5807 90.9595ZM69.7131 79.4684L68.7715 79.8051L69.1082 80.7467L70.0498 80.41L69.7131 79.4684ZM69.1659 77.9383L68.6108 77.1064L67.9614 77.5398L68.2243 78.275L69.1659 77.9383ZM72.8814 75.459L73.4364 76.2908L74.0859 75.8574L73.823 75.1223L72.8814 75.459ZM71.0574 70.3586L71.999 70.0219L71.6623 69.0803L70.7207 69.417L71.0574 70.3586ZM56.2663 75.6482L55.6321 76.4214L56.0699 76.7804L56.603 76.5898L56.2663 75.6482ZM53.8242 73.6452L52.9018 73.259L52.6141 73.946L53.19 74.4184L53.8242 73.6452ZM66.8554 42.5228L66.5187 41.5812L66.1034 41.7297L65.933 42.1365L66.8554 42.5228ZM72.9759 40.334L73.9175 39.9972L73.5808 39.0556L72.6392 39.3924L72.9759 40.334ZM81.1838 63.2856L80.2422 63.6224L80.5789 64.564L81.5205 64.2272L81.1838 63.2856ZM87.5083 61.0239L88.4499 60.6872L88.1131 59.7456L87.1715 60.0823L87.5083 61.0239ZM88.6027 64.0841L88.9394 65.0257L89.881 64.689L89.5443 63.7474L88.6027 64.0841ZM82.2782 66.3459L81.9415 65.4043L80.9999 65.741L81.3366 66.6826L82.2782 66.3459ZM84.1022 71.4462L83.1606 71.783L83.4235 72.5182L84.2005 72.4414L84.1022 71.4462ZM88.5473 71.0071L89.4889 70.6704L89.226 69.9352L88.449 70.012L88.5473 71.0071ZM89.0945 72.5372L89.4312 73.4788L90.3728 73.1421L90.0361 72.2005L89.0945 72.5372ZM57.7221 71.676L56.8018 71.2847L55.9082 73.3867L58.0588 72.6176L57.7221 71.676ZM69.963 67.2984L70.2997 68.24L71.2413 67.9033L70.9046 66.9617L69.963 67.2984ZM65.2206 54.0374L66.1622 53.7007L65.301 51.2924L64.3004 53.6462L65.2206 54.0374ZM17.3743 55.616L16.8271 54.0859L14.9439 54.7593L15.4911 56.2894L17.3743 55.616ZM16.4406 55.2544L20.1561 52.7751L19.046 51.1115L15.3305 53.5908L16.4406 55.2544ZM20.5426 51.6066L12.3347 28.6549L10.4515 29.3284L18.6594 52.2801L20.5426 51.6066ZM10.5587 28.4404L6.07988 35.2195L7.74857 36.322L12.2274 29.5429L10.5587 28.4404ZM7.34193 34.8669L5.26463 33.8839L4.40922 35.6918L6.48652 36.6747L7.34193 34.8669ZM5.74084 35.2156L12.9489 19.982L11.1411 19.1266L3.93301 34.3601L5.74084 35.2156ZM12.3817 20.4959L20.0323 17.7599L19.3588 15.8767L11.7082 18.6127L12.3817 20.4959ZM18.7539 17.155L29.8802 48.2673L31.7634 47.5938L20.6371 16.4816L18.7539 17.155ZM30.9201 48.9257L35.3652 48.4866L35.1686 46.4963L30.7235 46.9354L30.9201 48.9257ZM34.3253 47.8282L34.8725 49.3583L36.7557 48.6848L36.2085 47.1547L34.3253 47.8282ZM35.4774 48.08L16.096 55.0111L16.7694 56.8943L36.1508 49.9632L35.4774 48.08ZM32.9283 93.2526L59.9264 3.06041L58.0104 2.48687L31.0123 92.6791L32.9283 93.2526ZM59.3051 3.71524L64.9155 1.70886L64.2421 -0.174343L58.6317 1.83204L59.3051 3.71524ZM63.6208 0.48049L36.6227 90.6727L38.5387 91.2462L65.5368 1.05402L63.6208 0.48049ZM37.244 90.0179L31.6336 92.0242L32.3071 93.9074L37.9175 91.9011L37.244 90.0179ZM70.6547 79.1316L70.1075 77.6015L68.2243 78.275L68.7715 79.8051L70.6547 79.1316ZM69.7209 78.7701L73.4364 76.2908L72.3263 74.6272L68.6108 77.1064L69.7209 78.7701ZM73.823 75.1223L71.999 70.0219L70.1158 70.6954L71.9398 75.7957L73.823 75.1223ZM70.7207 69.417L55.9296 74.7066L56.603 76.5898L71.3941 71.3002L70.7207 69.417ZM56.9005 74.875L54.4584 72.872L53.19 74.4184L55.6321 76.4214L56.9005 74.875ZM54.7466 74.0314L67.7779 42.909L65.933 42.1365L52.9018 73.259L54.7466 74.0314ZM67.1922 43.4644L73.3126 41.2756L72.6392 39.3924L66.5187 41.5812L67.1922 43.4644ZM72.0343 40.6707L80.2422 63.6224L82.1254 62.9489L73.9175 39.9972L72.0343 40.6707ZM81.5205 64.2272L87.845 61.9655L87.1715 60.0823L80.8471 62.344L81.5205 64.2272ZM86.5667 61.3606L87.6611 64.4209L89.5443 63.7474L88.4499 60.6872L86.5667 61.3606ZM88.2659 63.1425L81.9415 65.4043L82.6149 67.2875L88.9394 65.0257L88.2659 63.1425ZM81.3366 66.6826L83.1606 71.783L85.0438 71.1095L83.2198 66.0091L81.3366 66.6826ZM84.2005 72.4414L88.6456 72.0023L88.449 70.012L84.0039 70.4511L84.2005 72.4414ZM87.6057 71.3439L88.1529 72.874L90.0361 72.2005L89.4889 70.6704L87.6057 71.3439ZM88.7577 71.5956L69.3763 78.5268L70.0498 80.41L89.4312 73.4788L88.7577 71.5956ZM58.0588 72.6176L70.2997 68.24L69.6263 66.3568L57.3854 70.7344L58.0588 72.6176ZM70.9046 66.9617L66.1622 53.7007L64.279 54.3742L69.0214 67.6351L70.9046 66.9617ZM64.3004 53.6462L56.8018 71.2847L58.6424 72.0672L66.1409 54.4287L64.3004 53.6462Z" fill="#3B3166"/>
</svg>
