<svg width="487" height="562" viewBox="0 0 487 562" fill="none" xmlns="http://www.w3.org/2000/svg">
<g clip-path="url(#clip0_71_754)">
<path d="M387.92 481.099C415.599 462.118 458.424 454.561 425.102 511.632C413.647 531.249 378.298 547.446 361.711 525.216C356.722 518.531 362.281 500.34 387.92 481.099Z" fill="#DF85AB"/>
<path d="M2.46032 216.873C3.15207 210.904 9.44329 198.488 29.0742 196.58C48.705 194.671 40.9314 228.081 28.5599 236.163C16.1234 242.557 -3.20357 249.146 2.46032 216.873Z" fill="#DF85AB"/>
<path fill-rule="evenodd" clip-rule="evenodd" d="M140.494 33.0458C65.1869 58.6513 50.3094 124.078 52.2841 153.591C58.8037 207.31 45.3257 241.27 37.7717 251.534C21.8578 277.505 -3.17245 334.765 24.0176 356.043C51.2077 377.32 78.4723 449.149 88.7058 482.404C150.846 611.094 268.824 554.47 320.046 510.072C430.877 447.804 467.872 356.812 456.015 325.31C507.245 338.567 481.819 257.369 445.852 298.308C430.521 279.418 435.565 170.88 440.004 118.973C442 33.2766 383.839 7.67221 354.508 5.58207C339.685 2.5987 302.124 -0.732014 270.47 9.81221C238.817 20.3564 170.631 29.6947 140.494 33.0458ZM93.2571 216.949C117.354 183.902 174.692 139.371 211.266 225.621C192.346 248.156 142.257 277.97 93.2571 216.949ZM279.739 225.537C304.777 194.991 364.745 153.809 404.313 233.451C381.328 255.803 324.235 285.514 279.739 225.537ZM231.803 298.384C257.263 305.356 302.767 310.378 281.112 274.686C259.457 238.994 222.677 249.87 206.993 259.769C191.945 277.422 175.839 309.858 231.803 298.384ZM242.311 338.956C202.543 314.192 165.604 324.229 152.105 332.343C136.115 359.305 166.819 389.635 248.793 384.47C366.549 377.049 355.363 331.227 332.941 316.832C310.793 308.042 259.386 328.533 242.311 338.956Z" fill="#DF85AB"/>
<path d="M119.711 218.98C136.894 208.516 160.764 194.279 185.554 216.46M311.822 228.875C329.005 218.411 354.569 208.674 379.359 230.855M221.356 283.282C216.784 287.465 215.784 288.586 207.668 284.944M253.86 284.111C257.207 289.325 257.887 290.665 266.665 289.223M242.728 40.8034C429.203 35.6972 540.431 476.785 223.006 479.804C-17.5133 450.455 44.288 64.1213 242.732 40.8019M178.205 342.534C197.546 357.519 268.294 377.129 312.327 334.866M52.2841 153.591C50.3094 124.078 65.1869 58.6513 140.494 33.0458C170.631 29.6947 238.817 20.3564 270.47 9.81221C302.124 -0.732014 339.685 2.5987 354.508 5.58207C383.839 7.67221 442 33.2766 440.004 118.973C435.565 170.88 430.521 279.418 445.852 298.308C481.819 257.369 507.245 338.567 456.015 325.31C467.872 356.812 430.877 447.804 320.046 510.072C268.824 554.47 150.846 611.094 88.7058 482.404C78.4723 449.149 51.2077 377.32 24.0176 356.043C-3.17245 334.765 21.8578 277.505 37.7717 251.534C45.3257 241.27 58.8037 207.31 52.2841 153.591ZM387.92 481.099C415.599 462.118 458.424 454.561 425.102 511.632C413.647 531.249 378.298 547.446 361.711 525.216C356.722 518.531 362.281 500.34 387.92 481.099ZM2.46032 216.873C3.15207 210.904 9.44329 198.488 29.0742 196.58C48.705 194.671 40.9314 228.081 28.5599 236.163C16.1234 242.557 -3.20357 249.146 2.46032 216.873ZM93.2571 216.949C117.354 183.902 174.692 139.371 211.266 225.621C192.346 248.156 142.257 277.97 93.2571 216.949ZM279.739 225.537C304.777 194.991 364.745 153.809 404.313 233.451C381.328 255.803 324.235 285.514 279.739 225.537ZM231.803 298.384C257.263 305.356 302.767 310.378 281.112 274.686C259.457 238.994 222.677 249.87 206.993 259.769C191.945 277.422 175.839 309.858 231.803 298.384ZM152.105 332.343C165.604 324.229 202.543 314.192 242.311 338.956C259.386 328.533 310.793 308.042 332.941 316.832C355.363 331.227 366.549 377.049 248.793 384.47C166.819 389.635 136.115 359.305 152.105 332.343Z" stroke="#3B3166" stroke-width="2.06936"/>
</g>
<defs>
<clipPath id="clip0_71_754">
<rect width="487" height="562" fill="white"/>
</clipPath>
</defs>
</svg>
