<svg width="201" height="201" viewBox="0 0 201 201" fill="none" xmlns="http://www.w3.org/2000/svg">
<rect x="1.38672" y="1.00098" width="198.312" height="198.312" rx="26.5539" fill="#DF85AB" stroke="#3B3166" stroke-width="2"/>
<mask id="mask0_67_421" style="mask-type:alpha" maskUnits="userSpaceOnUse" x="0" y="0" width="201" height="201">
<rect x="0.386841" width="200.312" height="200.312" rx="27.5539" fill="white"/>
</mask>
<g mask="url(#mask0_67_421)">
<path d="M19.3858 228.544C1.04666 228.544 -14.8943 225.582 -28.437 219.657C-41.6976 213.45 -51.8547 205.409 -58.9082 195.534C-65.9617 185.377 -69.4885 174.515 -69.4885 162.947H-58.9082C-58.9082 172.257 -55.9457 181.145 -50.0208 189.609C-44.0958 198.073 -35.9137 204.986 -25.4745 210.346C-14.7532 215.425 -2.62117 217.964 10.9216 217.964C43.3677 217.964 59.5908 201.036 59.5908 167.179C59.5908 150.815 55.923 138.259 48.5873 129.513C41.2517 120.767 31.5178 116.394 19.3858 116.394H-8.12291V105.813H10.9216C23.0536 105.813 32.7875 101.722 40.1231 93.5402C47.4588 85.3582 51.1266 73.9315 51.1266 59.2602C51.1266 44.5889 47.4588 33.1622 40.1231 24.9801C32.7875 16.798 23.0536 12.707 10.9216 12.707C3.86806 12.707 -2.19796 13.4123 -7.27649 14.823L-14.4711 16.9391V80.4207L-19.9728 81.6903C-24.4871 82.2546 -28.296 82.5368 -31.3995 82.5368C-40.9923 82.5368 -48.7511 79.7153 -54.6761 74.0725C-60.3189 68.1476 -63.1403 60.3887 -63.1403 50.7959C-63.1403 37.8175 -56.3689 26.814 -42.8262 17.7855C-29.0013 8.75702 -8.26398 4.24276 19.3858 4.24276C42.8034 4.24276 62.1301 6.78203 77.3656 11.8606C92.6012 16.9391 103.605 23.7105 110.376 32.1747C117.43 40.3568 120.956 49.3852 120.956 59.2602C120.956 71.1101 117.289 80.4207 109.953 87.1921C102.899 93.9634 93.4477 99.4652 81.5978 103.697C70.03 107.647 57.0515 109.763 42.6624 110.045V112.162C57.6158 112.444 72.005 114.701 85.8299 118.933C98.5262 122.883 108.965 128.808 117.147 136.708C125.33 144.326 129.421 154.483 129.421 167.179C129.421 185.8 120.815 200.754 103.605 212.039C86.3941 223.043 58.3212 228.544 19.3858 228.544Z" fill="#FAF4FF"/>
<path d="M-28.437 219.657L-28.861 220.563L-28.8495 220.568L-28.8378 220.573L-28.437 219.657ZM-58.9082 195.534L-59.7296 196.104L-59.7219 196.115L-58.9082 195.534ZM-69.4885 162.947V161.947H-70.4885V162.947H-69.4885ZM-58.9082 162.947H-57.9082V161.947H-58.9082V162.947ZM-50.0208 189.609L-49.2015 189.036L-49.2015 189.036L-50.0208 189.609ZM-25.4745 210.346L-25.9314 211.236L-25.9171 211.243L-25.9026 211.25L-25.4745 210.346ZM48.5873 129.513L49.3535 128.871L49.3535 128.871L48.5873 129.513ZM-8.12291 116.394H-9.12291V117.394H-8.12291V116.394ZM-8.12291 105.813V104.813H-9.12291V105.813H-8.12291ZM40.1231 93.5402L39.3785 92.8727L39.3785 92.8727L40.1231 93.5402ZM40.1231 24.9801L39.3785 25.6476L39.3785 25.6476L40.1231 24.9801ZM-7.27649 14.823L-7.54414 13.8595L-7.55141 13.8615L-7.55866 13.8637L-7.27649 14.823ZM-14.4711 16.9391L-14.7532 15.9797L-15.4711 16.1909V16.9391H-14.4711ZM-14.4711 80.4207L-14.2462 81.3951L-13.4711 81.2162V80.4207H-14.4711ZM-19.9728 81.6903L-19.8488 82.6826L-19.7979 82.6763L-19.748 82.6647L-19.9728 81.6903ZM-54.6761 74.0725L-55.4002 74.7622L-55.3834 74.7799L-55.3657 74.7967L-54.6761 74.0725ZM-42.8262 17.7855L-43.373 16.9482L-43.3809 16.9535L-42.8262 17.7855ZM77.3656 11.8606L77.0494 12.8093L77.0494 12.8093L77.3656 11.8606ZM110.376 32.1747L109.595 32.7994L109.607 32.8137L109.619 32.8276L110.376 32.1747ZM109.953 87.1921L109.275 86.4573L109.267 86.4639L109.26 86.4707L109.953 87.1921ZM81.5978 103.697L81.9209 104.644L81.9341 104.639L81.5978 103.697ZM42.6624 110.045L42.6428 109.046L41.6624 109.065V110.045H42.6624ZM42.6624 112.162H41.6624V113.143L42.6435 113.161L42.6624 112.162ZM85.8299 118.933L86.1269 117.978L86.1226 117.977L85.8299 118.933ZM117.147 136.708L116.453 137.427L116.459 137.433L116.466 137.44L117.147 136.708ZM103.605 212.039L104.143 212.882L104.153 212.875L103.605 212.039ZM19.3858 227.544C1.15238 227.544 -14.6464 224.599 -28.0362 218.741L-28.8378 220.573C-15.1422 226.565 0.940934 229.544 19.3858 229.544V227.544ZM-28.0131 218.751C-41.1501 212.602 -51.1596 204.662 -58.0945 194.953L-59.7219 196.115C-52.5498 206.156 -42.2452 214.298 -28.861 220.563L-28.0131 218.751ZM-58.0868 194.964C-65.0325 184.962 -68.4885 174.296 -68.4885 162.947H-70.4885C-70.4885 174.733 -66.8909 185.792 -59.7296 196.104L-58.0868 194.964ZM-69.4885 163.947H-58.9082V161.947H-69.4885V163.947ZM-59.9082 162.947C-59.9082 172.485 -56.8691 181.569 -50.84 190.183L-49.2015 189.036C-55.0223 180.72 -57.9082 172.03 -57.9082 162.947H-59.9082ZM-50.84 190.183C-44.8097 198.797 -36.4954 205.811 -25.9314 211.236L-25.0177 209.457C-35.3321 204.16 -43.3819 197.349 -49.2015 189.036L-50.84 190.183ZM-25.9026 211.25C-15.0297 216.4 -2.74825 218.964 10.9216 218.964V216.964C-2.49409 216.964 -14.4767 214.449 -25.0465 209.443L-25.9026 211.25ZM10.9216 218.964C27.3099 218.964 39.7821 214.687 48.1455 205.96C56.5012 197.241 60.5908 184.251 60.5908 167.179H58.5908C58.5908 183.964 54.5688 196.367 46.7015 204.576C38.8418 212.777 26.9794 216.964 10.9216 216.964V218.964ZM60.5908 167.179C60.5908 150.68 56.8939 137.861 49.3535 128.871L47.8211 130.156C54.952 138.658 58.5908 150.95 58.5908 167.179H60.5908ZM49.3535 128.871C41.8146 119.882 31.7923 115.394 19.3858 115.394V117.394C31.2434 117.394 40.6887 121.652 47.8211 130.156L49.3535 128.871ZM19.3858 115.394H-8.12291V117.394H19.3858V115.394ZM-7.12291 116.394V105.813H-9.12291V116.394H-7.12291ZM-8.12291 106.813H10.9216V104.813H-8.12291V106.813ZM10.9216 106.813C23.3047 106.813 33.3214 102.625 40.8677 94.2078L39.3785 92.8727C32.2536 100.82 22.8025 104.813 10.9216 104.813V106.813ZM40.8677 94.2078C48.4163 85.7882 52.1266 74.094 52.1266 59.2602H50.1266C50.1266 73.769 46.5012 84.9282 39.3785 92.8727L40.8677 94.2078ZM52.1266 59.2602C52.1266 44.4264 48.4163 32.7322 40.8677 24.3126L39.3785 25.6476C46.5012 33.5922 50.1266 44.7514 50.1266 59.2602H52.1266ZM40.8677 24.3126C33.3214 15.8955 23.3047 11.707 10.9216 11.707V13.707C22.8025 13.707 32.2536 17.7005 39.3785 25.6476L40.8677 24.3126ZM10.9216 11.707C3.80605 11.707 -2.35474 12.418 -7.54414 13.8595L-7.00885 15.7866C-2.04118 14.4066 3.93007 13.707 10.9216 13.707V11.707ZM-7.55866 13.8637L-14.7532 15.9797L-14.1889 17.8985L-6.99432 15.7824L-7.55866 13.8637ZM-15.4711 16.9391V80.4207H-13.4711V16.9391H-15.4711ZM-14.6959 79.4463L-20.1977 80.7159L-19.748 82.6647L-14.2462 81.3951L-14.6959 79.4463ZM-20.0968 80.6981C-24.587 81.2593 -28.3516 81.5368 -31.3995 81.5368V83.5368C-28.2403 83.5368 -24.3871 83.2499 -19.8488 82.6826L-20.0968 80.6981ZM-31.3995 81.5368C-40.7829 81.5368 -48.2791 78.7839 -53.9864 73.3484L-55.3657 74.7967C-49.2232 80.6468 -41.2017 83.5368 -31.3995 83.5368V81.5368ZM-53.9519 73.3829C-59.3875 67.6756 -62.1403 60.1793 -62.1403 50.7959H-64.1403C-64.1403 60.5981 -61.2503 68.6196 -55.4002 74.7622L-53.9519 73.3829ZM-62.1403 50.7959C-62.1403 38.2378 -55.6161 27.514 -42.2715 18.6176L-43.3809 16.9535C-57.1218 26.1141 -64.1403 37.3972 -64.1403 50.7959H-62.1403ZM-42.2794 18.6228C-28.6933 9.75024 -8.18702 5.24276 19.3858 5.24276V3.24276C-8.34094 3.24276 -29.3093 7.7638 -43.373 16.9482L-42.2794 18.6228ZM19.3858 5.24276C42.7406 5.24276 61.9509 7.77641 77.0494 12.8093L77.6819 10.9119C62.3092 5.78765 42.8663 3.24276 19.3858 3.24276V5.24276ZM77.0494 12.8093C92.1849 17.8544 102.989 24.5418 109.595 32.7994L111.157 31.55C104.22 22.8792 93.0176 16.0238 77.6819 10.9119L77.0494 12.8093ZM109.619 32.8276C116.532 40.8465 119.956 49.6481 119.956 59.2602H121.956C121.956 49.1224 118.328 39.867 111.133 31.5217L109.619 32.8276ZM119.956 59.2602C119.956 70.8877 116.367 79.9106 109.275 86.4573L110.631 87.9269C118.21 80.9308 121.956 71.3324 121.956 59.2602H119.956ZM109.26 86.4707C102.333 93.1205 93.015 98.5578 81.2614 102.756L81.9341 104.639C93.8803 100.373 103.465 94.8064 110.645 87.9135L109.26 86.4707ZM81.2746 102.751C69.8202 106.662 56.9464 108.765 42.6428 109.046L42.682 111.045C57.1566 110.761 70.2398 108.632 81.9209 104.644L81.2746 102.751ZM41.6624 110.045V112.162H43.6624V110.045H41.6624ZM42.6435 113.161C57.5073 113.442 71.8041 115.685 85.5372 119.889L86.1226 117.977C72.2059 113.716 57.7243 111.446 42.6812 111.162L42.6435 113.161ZM85.5328 119.888C98.1052 123.799 108.401 129.653 116.453 137.427L117.842 135.988C109.53 127.963 98.9472 121.967 86.1269 117.978L85.5328 119.888ZM116.466 137.44C124.416 144.842 128.421 154.719 128.421 167.179H130.421C130.421 154.246 126.243 143.809 117.829 135.976L116.466 137.44ZM128.421 167.179C128.421 185.423 120.02 200.079 103.056 211.203L104.153 212.875C121.61 201.428 130.421 186.177 130.421 167.179H128.421ZM103.066 211.197C86.106 222.04 58.276 227.544 19.3858 227.544V229.544C58.3664 229.544 86.6823 224.045 104.143 212.882L103.066 211.197Z" fill="#3B3166"/>
</g>
<rect x="1.38672" y="1.00098" width="198.312" height="198.312" rx="26.5539" stroke="#3B3166" stroke-width="2"/>
</svg>
