<svg width="47" height="103" viewBox="0 0 47 103" fill="none" xmlns="http://www.w3.org/2000/svg">
<path fill-rule="evenodd" clip-rule="evenodd" d="M9.71916 83.6287C19.9652 85.9428 26.4164 85.9428 37.4214 83.6287C43.3725 54.4321 45.2947 24.0674 45.6937 8.03336H1.52479C1.97107 22.6116 3.68189 58.1347 9.71916 83.6287ZM10.8673 53.5479L9.71916 28.0923H37.4214L35.9132 53.5479H10.8673Z" fill="#DF85AB"/>
<path d="M9.71916 28.0923L10.8673 53.5479H35.9132L37.4214 28.0923H9.71916Z" fill="#CEB4E2"/>
<path d="M37.4214 83.6287C26.4164 85.9428 19.9652 85.9428 9.71916 83.6287C9.33646 86.201 8.80068 92.6569 9.71916 97.9023C13.6373 99.9593 24.4133 103.484 37.1717 98.5471C37.4214 97.9023 38.0209 93.5 37.4214 83.6287Z" fill="#CEB4E2"/>
<path d="M45.6937 8.03336C45.7532 5.63981 45.7788 3.5656 45.7788 1.8623H23.5562H1.3335C1.33345 2.33351 1.41068 4.30597 1.52479 8.03336H45.6937Z" fill="#CEB4E2"/>
<path d="M9.71916 83.6287C19.9652 85.9428 26.4164 85.9428 37.4214 83.6287M9.71916 83.6287C3.68189 58.1347 1.97107 22.6116 1.52479 8.03336M9.71916 83.6287C9.33646 86.201 8.80068 92.6569 9.71916 97.9023C13.6373 99.9593 24.4133 103.484 37.1717 98.5471C37.4214 97.9023 38.0209 93.5 37.4214 83.6287M37.4214 83.6287C43.3725 54.4321 45.2947 24.0674 45.6937 8.03336M45.6937 8.03336C45.7532 5.63981 45.7788 3.5656 45.7788 1.8623H23.5562H1.3335C1.33345 2.33351 1.41068 4.30597 1.52479 8.03336M45.6937 8.03336H1.52479M9.71916 28.0923L10.8673 53.5479H35.9132L37.4214 28.0923H9.71916Z" stroke="#3B3166" stroke-width="2" stroke-linecap="square" stroke-linejoin="round"/>
</svg>
