<svg width="48" height="102" viewBox="0 0 48 102" fill="none" xmlns="http://www.w3.org/2000/svg">
<path fill-rule="evenodd" clip-rule="evenodd" d="M9.52284 82.7664C19.9365 85.0805 26.4932 85.0805 37.6783 82.7664C43.7267 53.5698 45.6803 23.2051 46.0858 7.17105H1.19442C1.648 21.7493 3.3868 57.2724 9.52284 82.7664ZM10.6897 52.6856L9.52284 27.23H37.6783L36.1453 52.6856H10.6897Z" fill="#DF85AB"/>
<path d="M9.52284 27.23L10.6897 52.6856H36.1453L37.6783 27.23H9.52284Z" fill="#CEB4E2"/>
<path d="M37.6783 82.7664C26.4932 85.0805 19.9365 85.0805 9.52284 82.7664C9.13387 85.3387 8.58932 91.7946 9.52284 97.04C13.505 99.097 24.4573 102.622 37.4244 97.6848C37.6782 97.04 38.2875 92.6377 37.6783 82.7664Z" fill="#CEB4E2"/>
<path d="M46.0858 7.17105C46.1463 4.7775 46.1723 2.7033 46.1723 1H23.5862H1C0.999951 1.4712 1.07845 3.44367 1.19442 7.17105H46.0858Z" fill="#CEB4E2"/>
<path d="M9.52284 82.7664C19.9365 85.0805 26.4932 85.0805 37.6783 82.7664M9.52284 82.7664C3.3868 57.2724 1.648 21.7493 1.19442 7.17105M9.52284 82.7664C9.13387 85.3387 8.58932 91.7946 9.52284 97.04C13.505 99.097 24.4573 102.622 37.4244 97.6848C37.6782 97.04 38.2875 92.6377 37.6783 82.7664M37.6783 82.7664C43.7267 53.5698 45.6803 23.2051 46.0858 7.17105M46.0858 7.17105C46.1463 4.7775 46.1723 2.7033 46.1723 1H23.5862H1C0.999951 1.4712 1.07845 3.44367 1.19442 7.17105M46.0858 7.17105H1.19442M9.52284 27.23L10.6897 52.6856H36.1453L37.6783 27.23H9.52284Z" stroke="#3B3166" stroke-width="2" stroke-linecap="square" stroke-linejoin="round"/>
</svg>
