<svg width="231" height="550" viewBox="0 0 231 550" fill="none" xmlns="http://www.w3.org/2000/svg">
<path d="M229.199 301.249L175.05 286.528C160.296 289.27 113.338 292.676 59.0168 286.095L1 301.249V531.584C42.1131 543.996 145.311 561.372 229.199 531.584V301.249Z" fill="#8EBCDD"/>
<path d="M117.249 275.134C90.6056 275.343 70.0616 273.331 59.0168 271.485V286.095C113.338 292.676 160.296 289.27 175.05 286.528V271.556C163.907 273.382 143.55 275.34 117.249 275.134Z" fill="#FAF4FF"/>
<path d="M168.174 14.1961C153.992 4.23801 112.048 -9.70331 66.3226 14.1961L56.0085 270.942C57.0148 271.071 58.0176 271.198 59.0168 271.32C80.3553 273.942 100.07 275 117.249 275.134C134.312 275 153.877 273.956 175.05 271.373C176.192 271.234 177.338 271.09 178.488 270.942L168.174 14.1961Z" fill="#FAF4FF"/>
<path d="M175.05 286.528L229.199 301.249V531.584C145.311 561.372 42.1131 543.996 1 531.584V301.249L59.0168 286.095M175.05 286.528V271.556M175.05 286.528C160.296 289.27 113.338 292.676 59.0168 286.095M56.0085 270.942L66.3226 14.1961C112.048 -9.70331 153.992 4.23801 168.174 14.1961L178.488 270.942M56.0085 270.942C56.9152 271.12 57.9191 271.301 59.0168 271.485M56.0085 270.942C57.0148 271.071 58.0176 271.198 59.0168 271.32M178.488 270.942C177.338 271.09 176.192 271.234 175.05 271.373M178.488 270.942C177.465 271.143 176.317 271.348 175.05 271.556M59.0168 271.485C70.0616 273.331 90.6056 275.343 117.249 275.134M59.0168 271.485V286.095M59.0168 271.485V271.32M117.249 275.134C134.312 275 153.877 273.956 175.05 271.373M117.249 275.134C143.55 275.34 163.907 273.382 175.05 271.556M117.249 275.134C100.07 275 80.3553 273.942 59.0168 271.32M175.05 271.373V271.556" stroke="black" stroke-width="2"/>
</svg>
