<svg width="201" height="201" viewBox="0 0 201 201" fill="none" xmlns="http://www.w3.org/2000/svg">
<rect x="1.36523" y="1.00098" width="198.312" height="198.312" rx="26.5539" fill="#B06E6E" stroke="#3B3166" stroke-width="2"/>
<mask id="mask0_67_422" style="mask-type:alpha" maskUnits="userSpaceOnUse" x="0" y="0" width="201" height="201">
<rect x="1.36507" y="1" width="198.312" height="198.312" rx="26.5539" fill="#A57E77" stroke="#3B3166" stroke-width="2"/>
</mask>
<g mask="url(#mask0_67_422)">
<path d="M124.965 320.632C93.4138 320.632 69.1298 313.896 52.1132 300.425C35.0967 286.953 26.5884 269.759 26.5884 248.843C26.5884 235.017 29.6018 221.369 35.6285 207.897C38.11 201.516 41.3006 195.667 45.2003 190.349C59.7352 186.804 75.511 183.613 92.5275 180.777C130.815 174.396 164.671 170.496 194.095 169.078V153.125C194.095 113.774 189.309 86.6543 179.737 71.7648C170.166 56.8753 155.453 49.4306 135.601 49.4306C128.156 49.4306 121.775 50.3169 116.457 52.0895L109.012 54.7483V134.513L102.099 136.109C96.4272 136.818 91.6413 137.172 87.7416 137.172C75.6883 137.172 65.9392 133.627 58.4945 126.537C51.4042 119.092 47.8591 109.343 47.8591 97.2896C47.8591 80.9821 56.0129 67.1562 72.3204 55.8118C88.9824 44.4674 113.621 38.7953 146.236 38.7953C173.888 38.7953 197.64 43.7584 217.493 53.6848C237.7 63.2566 252.944 76.728 263.225 94.099C273.86 111.116 279.178 130.791 279.178 153.125V296.702L311.084 304.679V312.655H263.225C241.954 312.655 225.469 306.097 213.77 292.98C208.807 287.662 204.908 280.927 202.072 272.773C197.108 281.636 191.259 289.612 184.523 296.702C168.57 312.655 148.718 320.632 124.965 320.632ZM146.236 302.02C159.353 302.02 171.229 294.93 181.864 280.749C185.764 275.432 189.841 268.341 194.095 259.479V182.372C177.788 182.372 162.189 183.259 147.3 185.031C136.31 186.449 128.865 187.336 124.965 187.69C123.193 191.59 121.42 196.907 119.648 203.643C116.103 217.114 114.33 230.409 114.33 243.526C114.33 263.378 117.343 278.09 123.37 287.662C129.397 297.234 137.019 302.02 146.236 302.02Z" fill="#FAF4FF"/>
<path d="M52.1132 300.425L51.4925 301.209L51.4925 301.209L52.1132 300.425ZM35.6285 207.897L36.5413 208.306L36.5515 208.283L36.5605 208.26L35.6285 207.897ZM45.2003 190.349L44.9633 189.377L44.6093 189.464L44.3939 189.758L45.2003 190.349ZM92.5275 180.777L92.3631 179.791L92.3631 179.791L92.5275 180.777ZM194.095 169.078L194.143 170.077L195.095 170.031V169.078H194.095ZM179.737 71.7648L180.579 71.2241L180.579 71.2241L179.737 71.7648ZM116.457 52.0895L116.141 51.1408L116.131 51.1441L116.121 51.1477L116.457 52.0895ZM109.012 54.7483L108.676 53.8065L108.012 54.0436V54.7483H109.012ZM109.012 134.513L109.237 135.488L110.012 135.309V134.513H109.012ZM102.099 136.109L102.223 137.101L102.274 137.095L102.324 137.083L102.099 136.109ZM58.4945 126.537L57.7703 127.226L57.7871 127.244L57.8048 127.261L58.4945 126.537ZM72.3204 55.8118L71.7576 54.9852L71.7493 54.9909L72.3204 55.8118ZM217.493 53.6848L217.046 54.5792L217.055 54.5839L217.065 54.5885L217.493 53.6848ZM263.225 94.099L262.364 94.6084L262.37 94.6188L262.377 94.629L263.225 94.099ZM279.178 296.702H278.178V297.483L278.935 297.672L279.178 296.702ZM311.084 304.679H312.084V303.898L311.326 303.709L311.084 304.679ZM311.084 312.655V313.655H312.084V312.655H311.084ZM213.77 292.98L214.517 292.314L214.509 292.306L214.501 292.298L213.77 292.98ZM202.072 272.773L203.016 272.444L202.286 270.344L201.199 272.284L202.072 272.773ZM184.523 296.702L185.23 297.409L185.239 297.4L185.248 297.391L184.523 296.702ZM181.864 280.749L182.664 281.349L182.671 281.341L181.864 280.749ZM194.095 259.479L194.997 259.911L195.095 259.706V259.479H194.095ZM194.095 182.372H195.095V181.372H194.095V182.372ZM147.3 185.031L147.181 184.038L147.172 184.039L147.3 185.031ZM124.965 187.69L124.875 186.694L124.296 186.747L124.055 187.276L124.965 187.69ZM119.648 203.643L120.615 203.898L120.615 203.898L119.648 203.643ZM123.37 287.662L124.216 287.129L124.216 287.129L123.37 287.662ZM124.965 319.632C93.5401 319.632 69.5093 312.921 52.7339 299.641L51.4925 301.209C68.7503 314.871 93.2875 321.632 124.965 321.632V319.632ZM52.7339 299.641C35.9465 286.351 27.5884 269.441 27.5884 248.843H25.5884C25.5884 270.078 34.2469 287.556 51.4925 301.209L52.7339 299.641ZM27.5884 248.843C27.5884 235.167 30.5681 221.657 36.5413 208.306L34.7156 207.489C28.6354 221.08 25.5884 234.867 25.5884 248.843H27.5884ZM36.5605 208.26C39.0116 201.957 42.1607 196.185 46.0067 190.94L44.3939 189.758C40.4406 195.148 37.2085 201.075 34.6965 207.535L36.5605 208.26ZM45.4372 191.32C59.9449 187.782 75.6962 184.596 92.6919 181.763L92.3631 179.791C75.3258 182.63 59.5256 185.826 44.9633 189.377L45.4372 191.32ZM92.6919 181.763C130.952 175.387 164.768 171.493 194.143 170.077L194.047 168.079C164.574 169.5 130.678 173.405 92.3631 179.791L92.6919 181.763ZM195.095 169.078V153.125H193.095V169.078H195.095ZM195.095 153.125C195.095 133.414 193.897 116.734 191.49 103.098C189.086 89.4724 185.465 78.8249 180.579 71.2241L178.896 72.3056C183.582 79.5942 187.139 89.9516 189.521 103.446C191.9 116.93 193.095 133.486 193.095 153.125H195.095ZM180.579 71.2241C170.798 56.0096 155.745 48.4306 135.601 48.4306V50.4306C155.162 50.4306 169.533 57.7411 178.896 72.3056L180.579 71.2241ZM135.601 48.4306C128.082 48.4306 121.588 49.3251 116.141 51.1408L116.773 53.0381C121.962 51.3086 128.23 50.4306 135.601 50.4306V48.4306ZM116.121 51.1477L108.676 53.8065L109.349 55.69L116.793 53.0312L116.121 51.1477ZM108.012 54.7483V134.513H110.012V54.7483H108.012ZM108.787 133.539L101.874 135.134L102.324 137.083L109.237 135.488L108.787 133.539ZM101.975 135.116C96.3272 135.822 91.5856 136.172 87.7416 136.172V138.172C91.697 138.172 96.5271 137.813 102.223 137.101L101.975 135.116ZM87.7416 136.172C75.8977 136.172 66.4112 132.696 59.1841 125.813L57.8048 127.261C65.4672 134.558 75.4788 138.172 87.7416 138.172V136.172ZM59.2186 125.847C52.3356 118.62 48.8591 109.134 48.8591 97.2896H46.8591C46.8591 109.552 50.4728 119.564 57.7703 127.226L59.2186 125.847ZM48.8591 97.2896C48.8591 81.3829 56.7862 67.8364 72.8915 56.6327L71.7493 54.9909C55.2396 66.4759 46.8591 80.5813 46.8591 97.2896H48.8591ZM72.8832 56.6384C89.3055 45.4573 113.709 39.7953 146.236 39.7953V37.7953C113.533 37.7953 88.6594 43.4776 71.7576 54.9852L72.8832 56.6384ZM146.236 39.7953C173.77 39.7953 197.362 44.7372 217.046 54.5792L217.94 52.7903C197.919 42.7796 174.006 37.7953 146.236 37.7953V39.7953ZM217.065 54.5885C237.112 64.0845 252.196 77.4273 262.364 94.6084L264.085 93.5897C253.692 76.0287 238.288 62.4286 217.921 52.781L217.065 54.5885ZM262.377 94.629C272.902 111.469 278.178 130.957 278.178 153.125H280.178C280.178 130.625 274.818 110.762 264.073 93.569L262.377 94.629ZM278.178 153.125V296.702H280.178V153.125H278.178ZM278.935 297.672L310.841 305.649L311.326 303.709L279.42 295.732L278.935 297.672ZM310.084 304.679V312.655H312.084V304.679H310.084ZM311.084 311.655H263.225V313.655H311.084V311.655ZM263.225 311.655C242.174 311.655 225.986 305.174 214.517 292.314L213.024 293.646C224.952 307.019 241.734 313.655 263.225 313.655V311.655ZM214.501 292.298C209.649 287.099 205.815 280.491 203.016 272.444L201.127 273.101C204 281.362 207.965 288.226 213.039 293.662L214.501 292.298ZM201.199 272.284C196.275 281.077 190.474 288.986 183.798 296.014L185.248 297.391C192.043 290.238 197.942 282.194 202.944 273.261L201.199 272.284ZM183.816 295.995C168.061 311.75 148.468 319.632 124.965 319.632V321.632C148.967 321.632 169.079 313.561 185.23 297.409L183.816 295.995ZM146.236 303.02C159.77 303.02 171.912 295.686 182.664 281.349L181.064 280.149C170.546 294.173 158.935 301.02 146.236 301.02V303.02ZM182.671 281.341C186.62 275.955 190.727 268.806 194.997 259.911L193.194 259.046C188.954 267.877 184.908 274.908 181.058 280.158L182.671 281.341ZM195.095 259.479V182.372H193.095V259.479H195.095ZM194.095 181.372C177.751 181.372 162.113 182.261 147.181 184.038L147.418 186.024C162.265 184.257 177.824 183.372 194.095 183.372V181.372ZM147.172 184.039C136.179 185.458 128.753 186.342 124.875 186.694L125.056 188.686C128.977 188.329 136.44 187.441 147.428 186.023L147.172 184.039ZM124.055 187.276C122.249 191.249 120.46 196.628 118.681 203.389L120.615 203.898C122.381 197.187 124.136 191.93 125.876 188.104L124.055 187.276ZM118.681 203.389C115.115 216.938 113.33 230.318 113.33 243.526H115.33C115.33 230.5 117.09 217.291 120.615 203.898L118.681 203.389ZM113.33 243.526C113.33 263.442 116.346 278.384 122.524 288.195L124.216 287.129C118.34 277.797 115.33 263.314 115.33 243.526H113.33ZM122.524 288.195C128.686 297.981 136.594 303.02 146.236 303.02V301.02C137.444 301.02 130.108 296.487 124.216 287.129L122.524 288.195Z" fill="#3B3166"/>
</g>
<rect x="1.36523" y="1.00098" width="198.312" height="198.312" rx="26.5539" stroke="#3B3166" stroke-width="2"/>
</svg>
