<svg width="366" height="438" viewBox="0 0 366 438" fill="none" xmlns="http://www.w3.org/2000/svg">
<g clip-path="url(#clip0_71_752)">
<path d="M292.036 370.36C312.861 356.079 345.082 350.394 320.011 393.332C311.392 408.093 284.796 420.278 272.316 403.553C268.563 398.523 272.745 384.837 292.036 370.36Z" fill="#B06E6E"/>
<path d="M2.02261 171.561C2.54307 167.07 7.27648 157.729 22.0464 156.293C36.8163 154.857 30.9675 179.994 21.6595 186.075C12.3025 190.885 -2.2388 195.843 2.02261 171.561Z" fill="#B06E6E"/>
<path fill-rule="evenodd" clip-rule="evenodd" d="M105.877 33.2533C49.217 52.5184 38.0234 101.744 39.5091 123.949C44.4144 164.367 34.2737 189.917 28.5902 197.64C16.6169 217.18 -2.21539 260.261 18.2419 276.27C38.6993 292.279 59.2126 346.322 66.9122 371.342C113.665 468.166 202.43 425.563 240.969 392.159C324.356 345.31 352.19 276.849 343.269 253.147C381.813 263.122 362.684 202.03 335.622 232.832C324.088 218.619 327.883 136.957 331.223 97.9034C332.724 33.4269 288.965 14.1626 266.897 12.59C255.744 10.3454 227.484 7.8394 203.669 15.7727C179.853 23.706 128.551 30.7319 105.877 33.2533ZM70.3365 171.618C88.4666 146.755 131.606 113.251 159.124 178.143C144.89 195.098 107.203 217.53 70.3365 171.618ZM210.642 178.08C229.48 155.098 274.599 124.113 304.369 184.035C287.076 200.852 244.12 223.205 210.642 178.08ZM174.576 232.889C193.731 238.134 227.968 241.913 211.675 215.059C195.383 188.205 167.71 196.388 155.91 203.836C144.587 217.117 132.469 241.522 174.576 232.889ZM182.482 263.415C152.562 244.783 124.769 252.334 114.613 258.439C102.582 278.725 125.683 301.545 187.359 297.658C275.956 292.075 267.54 257.599 250.67 246.769C234.007 240.155 195.329 255.573 182.482 263.415Z" fill="#B06E6E"/>
<path d="M90.2398 173.147C103.168 165.274 121.128 154.562 139.779 171.251M234.781 180.591C247.709 172.718 266.943 165.393 285.595 182.082M166.716 221.526C163.276 224.674 162.524 225.517 156.417 222.777M191.171 222.15C193.69 226.073 194.201 227.081 200.806 225.996M182.796 39.0899C323.096 35.2481 406.782 367.114 167.957 369.386C-13.0052 347.304 33.4931 56.6338 182.799 39.0887M134.25 266.107C148.801 277.381 202.031 292.135 235.161 260.337M39.5091 123.949C38.0234 101.744 49.217 52.5184 105.877 33.2533C128.551 30.7319 179.853 23.706 203.669 15.7727C227.484 7.8394 255.744 10.3454 266.897 12.59C288.965 14.1626 332.724 33.4269 331.223 97.9034C327.883 136.957 324.088 218.619 335.622 232.832C362.684 202.03 381.813 263.122 343.269 253.147C352.19 276.849 324.356 345.31 240.969 392.159C202.43 425.563 113.665 468.166 66.9122 371.342C59.2126 346.322 38.6993 292.279 18.2419 276.27C-2.21539 260.261 16.6169 217.18 28.5902 197.64C34.2737 189.917 44.4144 164.367 39.5091 123.949ZM292.036 370.36C312.861 356.079 345.082 350.394 320.011 393.332C311.392 408.093 284.796 420.278 272.316 403.553C268.563 398.523 272.745 384.837 292.036 370.36ZM2.02261 171.561C2.54307 167.07 7.27648 157.729 22.0464 156.293C36.8163 154.857 30.9675 179.994 21.6595 186.075C12.3025 190.885 -2.2388 195.843 2.02261 171.561ZM70.3365 171.618C88.4666 146.755 131.606 113.251 159.124 178.143C144.89 195.098 107.203 217.53 70.3365 171.618ZM210.642 178.08C229.48 155.098 274.599 124.113 304.369 184.035C287.076 200.852 244.12 223.205 210.642 178.08ZM174.576 232.889C193.731 238.134 227.968 241.913 211.675 215.059C195.383 188.205 167.71 196.388 155.91 203.836C144.587 217.117 132.469 241.522 174.576 232.889ZM114.613 258.439C124.769 252.334 152.562 244.783 182.482 263.415C195.329 255.573 234.007 240.155 250.67 246.769C267.54 257.599 275.956 292.075 187.359 297.658C125.683 301.545 102.582 278.725 114.613 258.439Z" stroke="#3B3166" stroke-width="1.55695"/>
</g>
<defs>
<clipPath id="clip0_71_752">
<rect width="366" height="438" fill="white"/>
</clipPath>
</defs>
</svg>
