<svg width="495" height="36" viewBox="0 0 495 36" fill="none" xmlns="http://www.w3.org/2000/svg">
<path d="M0 0H495V36H352.424H0V0Z" fill="#D9D9D9"/>
<rect x="57.0207" y="9.05" width="21" height="18.9" rx="3.15" fill="#FAF4FF" stroke="#CDCDCD" stroke-width="2.1"/>
<rect x="80.1208" y="9.05" width="21" height="18.9" rx="3.15" fill="#FAF4FF" stroke="#CDCDCD" stroke-width="2.1"/>
<path d="M69.6213 23.75L62.2715 19.025L69.6213 13.25" stroke="#575757" stroke-width="1.71818" stroke-linecap="round" stroke-linejoin="round"/>
<path d="M87.4714 23.75L94.8212 19.025L87.4714 13.25" stroke="#575757" stroke-width="1.71818" stroke-linecap="round" stroke-linejoin="round"/>
<circle cx="12.0609" cy="17.0599" r="4.69936" fill="#FC605C" stroke="#DF4845" stroke-width="0.722979"/>
<circle cx="27.9666" cy="17.0599" r="4.69936" fill="#FDBC40" stroke="#DFA034" stroke-width="0.722979"/>
<circle cx="43.8719" cy="17.0599" r="4.69936" fill="#35CB4B" stroke="#26AA34" stroke-width="0.722979"/>
<rect x="0.685706" y="-0.685706" width="304.136" height="19.1142" rx="2.05712" transform="matrix(1 0 0 -1 108.436 27.4411)" fill="#FAF4FF"/>
<rect x="0.685706" y="-0.685706" width="304.136" height="19.1142" rx="2.05712" transform="matrix(1 0 0 -1 108.436 27.4411)" stroke="#CDCDCD" stroke-width="1.37141"/>
</svg>
