<svg width="550" height="1118" viewBox="0 0 550 1118" fill="none" xmlns="http://www.w3.org/2000/svg">
<path fill-rule="evenodd" clip-rule="evenodd" d="M71.8338 126.894C53.7744 125.813 1.01836 120.24 1.01836 196.207V1060.64C0.475721 1079.36 11.7627 1116.8 61.2516 1116.8H495.094C513.815 1117.07 550.769 1104.59 548.816 1052.5C546.882 1000.93 547.979 462.742 548.791 192.137C548.788 116.219 491.735 121.737 473.931 122.822V338.589V554.356C473.931 566.943 463.727 577.147 451.14 577.147H94.6248C82.0377 577.147 71.8338 566.943 71.8338 554.356V126.894ZM460.908 617.843H75.09C62.5029 617.843 52.299 628.047 52.299 640.634V1059.01C52.299 1071.6 62.5029 1081.8 75.09 1081.8H460.908C473.495 1081.8 483.699 1071.6 483.699 1059.01V640.634C483.699 628.047 473.495 617.843 460.908 617.843Z" fill="#CEB4E2"/>
<path d="M451.14 72.4902H94.6248C82.0377 72.4902 71.8338 82.6941 71.8338 95.2812V126.894V554.356C71.8338 566.943 82.0377 577.147 94.6248 577.147H451.14C463.727 577.147 473.931 566.943 473.931 554.356V338.589V122.822V95.2812C473.931 82.6941 463.727 72.4902 451.14 72.4902Z" fill="#FAF4FF"/>
<path d="M75.09 617.843H460.908C473.495 617.843 483.699 628.047 483.699 640.634V1059.01C483.699 1071.6 473.495 1081.8 460.908 1081.8H75.09C62.5029 1081.8 52.299 1071.6 52.299 1059.01V640.634C52.299 628.047 62.5029 617.843 75.09 617.843Z" fill="#3B3166"/>
<path d="M548.791 192.137C547.979 462.742 546.882 1000.93 548.816 1052.5C550.769 1104.59 513.815 1117.07 495.094 1116.8H61.2516C11.7627 1116.8 0.475721 1079.36 1.01836 1060.64V196.207C1.01836 120.24 53.7744 125.813 71.8338 126.894M548.791 192.137C548.799 189.396 548.808 186.683 548.816 183.998M548.791 192.137V192.143M548.791 192.137C548.788 116.219 491.735 121.737 473.931 122.822M71.8338 126.894V554.356C71.8338 566.943 82.0377 577.147 94.6248 577.147H451.14C463.727 577.147 473.931 566.943 473.931 554.356V338.589V122.822M71.8338 126.894V95.2812C71.8338 82.6941 82.0377 72.4902 94.6248 72.4902H451.14C463.727 72.4902 473.931 82.6941 473.931 95.2812V122.822M75.09 1081.8H460.908C473.495 1081.8 483.699 1071.6 483.699 1059.01V640.634C483.699 628.047 473.495 617.843 460.908 617.843H75.09C62.5029 617.843 52.299 628.047 52.299 640.634V1059.01C52.299 1071.6 62.5029 1081.8 75.09 1081.8Z" stroke="black" stroke-width="2"/>
<rect x="123.622" y="1" width="299.104" height="190.47" fill="#FAF4FF" stroke="black" stroke-width="2"/>
</svg>
