<svg width="1093" height="242" viewBox="0 0 1093 242" fill="none" xmlns="http://www.w3.org/2000/svg">
<path d="M0 219.066C0 231.732 10.2681 242 22.9345 242H1070.07C1082.73 242 1093 231.732 1093 219.066V219.066H0V219.066Z" fill="#CEB4E2"/>
<path fill-rule="evenodd" clip-rule="evenodd" d="M0 219.066V22.9345H1093V219.066H0Z" fill="#FAF4FF"/>
<path d="M1093 22.9345C1093 10.2681 1082.73 0 1070.07 0H22.9345C10.2681 0 0 10.2681 0 22.9345V22.9345H1093V22.9345Z" fill="#CEB4E2"/>
<path d="M0.5 23.4345H1092.5V218.566H0.5V23.4345ZM1092.49 22.4345H0.505462C0.771349 10.2752 10.7113 0.5 22.9345 0.5H1070.07C1082.29 0.5 1092.23 10.2752 1092.49 22.4345ZM0.505462 219.566H1092.49C1092.23 231.725 1082.29 241.5 1070.07 241.5H22.9345C10.7114 241.5 0.771349 231.725 0.505462 219.566Z" stroke="black"/>
</svg>
