<svg width="1392" height="383" viewBox="0 0 1392 383" fill="none" xmlns="http://www.w3.org/2000/svg">
<path fill-rule="evenodd" clip-rule="evenodd" d="M27.5539 -2H1363.7C1378.91 -2 1391.25 10.3363 1391.25 25.5538V354.888C1391.25 370.105 1378.91 382.442 1363.7 382.442H27.5538C12.3362 382.442 0 370.105 0 354.888V25.5539C0 10.3363 12.3363 -2 27.5539 -2ZM1330.89 30.8027H60.3563C45.1388 30.8027 32.8025 43.1391 32.8025 58.3566V322.086C32.8025 337.304 45.1388 349.64 60.3563 349.64H1330.89C1346.11 349.64 1358.45 337.304 1358.45 322.086V58.3566C1358.45 43.139 1346.11 30.8027 1330.89 30.8027Z" fill="#FAF4FF"/>
<path fill-rule="evenodd" clip-rule="evenodd" d="M60.3563 30.8027H1330.89C1346.11 30.8027 1358.45 43.139 1358.45 58.3566V322.086C1358.45 337.304 1346.11 349.64 1330.89 349.64H60.3563C45.1388 349.64 32.8025 337.304 32.8025 322.086V58.3566C32.8025 43.1391 45.1388 30.8027 60.3563 30.8027ZM1313.4 48.2969H77.8505C62.6329 48.2969 50.2966 60.6331 50.2966 75.8507V304.591C50.2966 319.809 62.6329 332.145 77.8505 332.145H1313.4C1328.62 332.145 1340.95 319.809 1340.95 304.591V75.8507C1340.95 60.6332 1328.62 48.2969 1313.4 48.2969Z" fill="#CEB4E2"/>
<path d="M77.8505 48.2969H1313.4C1328.62 48.2969 1340.95 60.6332 1340.95 75.8507V304.591C1340.95 319.809 1328.62 332.145 1313.4 332.145H77.8505C62.6329 332.145 50.2966 319.809 50.2966 304.591V75.8507C50.2966 60.6331 62.6329 48.2969 77.8505 48.2969Z" fill="#FAF4FF"/>
<path d="M60.3563 31.8027H1330.89C1345.56 31.8027 1357.45 43.6913 1357.45 58.3566V322.086C1357.45 336.751 1345.56 348.64 1330.89 348.64H60.3563C45.691 348.64 33.8025 336.752 33.8025 322.086V58.3566C33.8025 43.6914 45.6911 31.8027 60.3563 31.8027ZM1330.89 29.8027H60.3563C44.5865 29.8027 31.8025 42.5868 31.8025 58.3566V322.086C31.8025 337.856 44.5865 350.64 60.3563 350.64H1330.89C1346.66 350.64 1359.45 337.856 1359.45 322.086V58.3566C1359.45 42.5867 1346.66 29.8027 1330.89 29.8027ZM77.8505 49.2969H1313.4C1328.07 49.2969 1339.95 61.1854 1339.95 75.8507V304.591C1339.95 319.257 1328.07 331.145 1313.4 331.145H77.8505C63.1852 331.145 51.2966 319.257 51.2966 304.591V75.8507C51.2966 61.1854 63.1852 49.2969 77.8505 49.2969ZM1313.4 47.2969H77.8505C62.0806 47.2969 49.2966 60.0809 49.2966 75.8507V304.591C49.2966 320.361 62.0806 333.145 77.8505 333.145H1313.4C1329.17 333.145 1341.95 320.361 1341.95 304.591V75.8507C1341.95 60.0809 1329.17 47.2969 1313.4 47.2969ZM27.5539 -1H1363.7C1378.36 -1 1390.25 10.8886 1390.25 25.5538V354.888C1390.25 369.553 1378.36 381.442 1363.7 381.442H27.5538C12.8885 381.442 1 369.553 1 354.888V25.5539C1 10.8886 12.8886 -1 27.5539 -1Z" stroke="#3B3166" stroke-width="2"/>
</svg>
