<svg width="797" height="1139" viewBox="0 0 797 1139" fill="none" xmlns="http://www.w3.org/2000/svg">
<path d="M500.406 632.5C461.206 686.5 324.406 675.496 300.906 632.5C150.406 676 -39.0939 911.3 300.906 1126.5C329.906 1135 410.406 1146.9 500.406 1126.5C840.406 911.3 650.906 676 500.406 632.5Z" fill="#FAF4FF"/>
<path fill-rule="evenodd" clip-rule="evenodd" d="M500.406 405.992C500.404 405.989 500.402 405.986 500.4 405.983C497.373 410.152 493.763 413.933 489.67 417.342C445.785 453.886 346.203 447.647 310.5 417.342C306.402 413.864 303.145 410.068 300.911 405.983C300.909 405.986 300.908 405.989 300.906 405.992V632.5C324.406 675.496 461.206 686.5 500.406 632.5V405.992ZM500.4 405.983C500.402 405.986 500.404 405.989 500.406 405.992V405.975C500.404 405.978 500.402 405.98 500.4 405.983Z" fill="#FAF4FF"/>
<path fill-rule="evenodd" clip-rule="evenodd" d="M489.67 417.342C493.763 413.933 497.373 410.152 500.4 405.983C461.194 351.996 324.423 362.997 300.911 405.983C303.145 410.068 306.402 413.864 310.5 417.342C329.447 402.79 412 363 489.67 417.342Z" fill="#FAF4FF"/>
<path d="M489.67 417.342C445.785 453.886 346.203 447.647 310.5 417.342C329.447 402.79 412 363 489.67 417.342Z" fill="#8EBCDD"/>
<path d="M500.406 405.975V632.5M500.406 405.975V405.992M500.406 405.975C500.404 405.978 500.402 405.98 500.4 405.983M500.406 405.992C500.404 405.989 500.402 405.986 500.4 405.983M500.406 405.992V632.5M500.406 632.5C461.206 686.5 324.406 675.496 300.906 632.5M500.406 632.5C650.906 676 840.406 911.3 500.406 1126.5C410.406 1146.9 329.906 1135 300.906 1126.5C-39.0939 911.3 150.406 676 300.906 632.5M300.906 632.5V405.975C300.908 405.978 300.909 405.98 300.911 405.983M300.906 632.5V405.992C300.908 405.989 300.909 405.986 300.911 405.983M500.4 405.983C461.194 351.996 324.423 362.997 300.911 405.983M500.4 405.983C460.894 352.001 324.423 362.993 300.911 405.983M500.4 405.983C497.373 410.152 493.763 413.933 489.67 417.342M300.911 405.983C303.145 410.068 306.402 413.864 310.5 417.342M310.5 417.342C346.203 447.647 445.785 453.886 489.67 417.342M310.5 417.342C329.447 402.79 412 363 489.67 417.342" stroke="#3B3166" stroke-width="2" stroke-linejoin="round"/>
<path d="M40.4061 201.5C37.0728 193.333 31.4061 173.2 35.4061 158C46.1928 165 69.4301 178.8 76.0861 178C69.4106 166.069 63.7294 154.12 59.4134 144C54.911 143.333 45.9061 142.4 45.9061 144C45.9061 145.6 42.2394 150.667 40.4061 153C38.7394 151.5 34.3061 149.4 29.9061 153C25.5061 156.6 21.0728 175.703 19.4061 184.805C26.3311 192.253 36.9587 202.534 40.4061 201.5Z" fill="#DF85AB"/>
<path fill-rule="evenodd" clip-rule="evenodd" d="M157.156 263L165.156 256.5C191.989 219.333 198.406 140.3 54.4061 131.5C55.7695 135.172 57.4502 139.397 59.4134 144C63.7294 154.12 69.4106 166.069 76.0861 178C69.4301 178.8 46.1928 165 35.4061 158C31.4061 173.2 37.0728 193.333 40.4061 201.5C36.9587 202.534 26.3311 192.253 19.4061 184.805C18.296 183.611 17.2811 182.49 16.4061 181.5C14.1347 183.09 13.9055 188.195 14.4368 193.5C14.8411 197.537 15.6859 201.691 16.4061 204.5C58.4061 284.9 131.489 277.833 157.156 263Z" fill="#DF85AB"/>
<path d="M358.156 444L165.156 256.5L157.156 263L335.656 439L358.156 444Z" fill="#7DBAB2"/>
<path d="M165.156 256.5L358.156 444L335.656 439L157.156 263M165.156 256.5C191.989 219.333 198.406 140.3 54.4061 131.5C55.7695 135.172 57.4502 139.397 59.4134 144M165.156 256.5L157.156 263M157.156 263C131.489 277.833 58.4061 284.9 16.4061 204.5C15.6859 201.691 14.8411 197.537 14.4368 193.5C13.9055 188.195 14.1347 183.09 16.4061 181.5C17.2811 182.49 18.296 183.611 19.4061 184.805M40.4061 201.5C44.4061 200.3 93.0728 234.333 116.906 251.5M40.4061 201.5C37.0728 193.333 31.4061 173.2 35.4061 158C46.1928 165 69.4301 178.8 76.0861 178M40.4061 201.5C36.9587 202.534 26.3311 192.253 19.4061 184.805M124.906 234.5C106.641 225.483 89.3891 201.777 76.0861 178M76.0861 178C69.4106 166.069 63.7294 154.12 59.4134 144M19.4061 184.805C21.0728 175.703 25.5061 156.6 29.9061 153C34.3061 149.4 38.7394 151.5 40.4061 153C42.2394 150.667 45.9061 145.6 45.9061 144C45.9061 142.4 54.911 143.333 59.4134 144" stroke="#3B3166" stroke-width="2" stroke-linejoin="round"/>
<path d="M23.4061 299C20.8449 299 10.7395 302.833 5.40612 303.5C5.78739 305.203 6.31519 307.236 6.98988 309.5C-1.74311 314.3 0.961959 335.833 3.40612 346C7.80612 351.2 42.2395 353.773 58.9061 354.41C66.9696 349.33 75.021 345.363 82.9061 342.315C74.5423 331.384 60.6134 313.766 47.9148 299H23.4061Z" fill="#DF85AB"/>
<path d="M45.4061 364C49.892 360.433 54.4009 357.248 58.9061 354.41C42.2395 353.773 7.80612 351.2 3.40612 346C-2.09388 339.5 27.4061 423.432 131.406 400.966C102.773 401.891 67.6221 381.626 45.4061 364Z" fill="#DF85AB"/>
<path d="M78.7681 252.5C58.8141 252.833 16.2061 258.7 5.40612 279.5C12.0728 285.167 25.4061 299 23.4061 299H47.9148C37.9062 287.362 31.1287 282.921 26.0087 279.567L25.9061 279.5C14.3061 271.9 63.2395 263.108 90.4061 262.412C87.018 259.284 82.9646 255.869 78.7681 252.5Z" fill="#DF85AB"/>
<path fill-rule="evenodd" clip-rule="evenodd" d="M177.906 343.5V333.5C160.706 271.1 113.906 237.5 58.9061 237.5C64.2862 241.324 71.7285 246.848 78.7681 252.5C82.9646 255.869 87.018 259.284 90.4061 262.412C63.2395 263.108 14.3061 271.9 25.9061 279.5L26.0087 279.567C31.1287 282.921 37.9062 287.362 47.9148 299C60.6134 313.766 74.5423 331.384 82.9061 342.315C75.021 345.363 66.9696 349.33 58.9061 354.41C54.4009 357.248 49.892 360.433 45.4061 364C67.6221 381.626 102.773 401.891 131.406 400.966C154.757 400.212 173.774 385.365 177.906 343.5Z" fill="#DF85AB"/>
<path d="M365.406 437C354.906 369 233.739 339 177.906 333.5V343.5C224.906 347.333 326.106 371.4 354.906 437H365.406Z" fill="#7DBAB2"/>
<path d="M177.906 333.5C233.739 339 354.906 369 365.406 437H354.906C326.106 371.4 224.906 347.333 177.906 343.5M177.906 333.5C160.706 271.1 113.906 237.5 58.9061 237.5C64.2862 241.324 71.7285 246.848 78.7681 252.5M177.906 333.5V343.5M177.906 343.5C173.774 385.365 154.757 400.212 131.406 400.966M165.406 318C159.406 302.5 98.4061 281 99.4061 274C99.7095 271.876 95.9478 267.528 90.4061 262.412M78.7681 252.5C58.8141 252.833 16.2061 258.7 5.40612 279.5C12.0728 285.167 25.4061 299 23.4061 299M78.7681 252.5C82.9646 255.869 87.018 259.284 90.4061 262.412M23.4061 299C20.8449 299 10.7395 302.833 5.40612 303.5C5.78739 305.203 6.31519 307.236 6.98988 309.5M23.4061 299H47.9148M31.9061 352C19.0243 341.83 10.7391 322.084 6.98988 309.5M165.406 339.5C150.783 333.552 118.542 328.543 82.9061 342.315M58.9061 354.41C54.4009 357.248 49.892 360.433 45.4061 364C67.6221 381.626 102.773 401.891 131.406 400.966M58.9061 354.41C42.2395 353.773 7.80612 351.2 3.40612 346M58.9061 354.41C66.9696 349.33 75.021 345.363 82.9061 342.315M3.40612 346C-2.09388 339.5 27.4061 423.432 131.406 400.966M3.40612 346C0.961959 335.833 -1.74311 314.3 6.98988 309.5M82.9061 342.315C74.5423 331.384 60.6134 313.766 47.9148 299M25.9061 279.5C14.3061 271.9 63.2395 263.108 90.4061 262.412M25.9061 279.5L26.0087 279.567M25.9061 279.5C25.9402 279.522 25.9744 279.545 26.0087 279.567M47.9148 299C37.9062 287.362 31.1287 282.921 26.0087 279.567" stroke="#3B3166" stroke-width="2" stroke-linejoin="round"/>
<path fill-rule="evenodd" clip-rule="evenodd" d="M121.993 211.5C160.906 342 219.298 308.333 247.406 292L254.406 287C268.739 254.167 266.206 187.1 141.406 181.5V192C131.496 192.413 116.539 197.054 121.993 211.5Z" fill="#DF85AB"/>
<path d="M247.406 292C318.606 361.6 360.906 413.5 360.906 439.5L368.906 442.5C368.906 416.5 325.606 356.6 254.406 287L247.406 292Z" fill="#7DBAB2"/>
<path d="M247.406 292C318.606 361.6 360.906 413.5 360.906 439.5L368.906 442.5C368.906 416.5 325.606 356.6 254.406 287M247.406 292C219.298 308.333 160.906 342 121.993 211.5M247.406 292L254.406 287M254.406 287C268.739 254.167 266.206 187.1 141.406 181.5V192M141.406 192C167.573 194 225.406 213.2 247.406 274M141.406 192C131.496 192.413 116.539 197.054 121.993 211.5M230.906 292C182.906 303 151.406 250.5 128.406 222C125.202 218.029 123.143 214.547 121.993 211.5" stroke="#3B3166" stroke-width="2" stroke-linejoin="round"/>
<path d="M368.656 55.7503L389.406 78.5003C393.805 73.5632 398.658 64.9227 402.45 55.7503C402.283 44.8336 395.806 24.4003 385.406 30.0003C375.006 35.6003 369.906 49.5003 368.656 55.7503Z" fill="#DF85AB"/>
<path fill-rule="evenodd" clip-rule="evenodd" d="M378.406 209H391.906C416.306 197.001 424.906 188.5 434.906 174C458.01 140.5 455.239 83.5001 443.906 55.7503C443.739 48.167 442.206 34.0002 437.406 38C432.606 41.9998 427.073 54.6666 424.906 60.5C424.506 46.0998 414.073 36.1668 408.906 33.0003C407.306 47.4005 397.573 69.3337 389.406 78.5003L368.656 55.7503L351.906 33.0003C345.411 37.5787 333.099 49.787 331.548 64.4046C329.871 58.4788 320.378 54.142 314.906 52.5003C295.706 178.1 349.239 209.167 378.406 209ZM331.406 68.5003C331.354 67.1174 331.405 65.7508 331.548 64.4046C331.914 65.698 331.908 67.067 331.406 68.5003Z" fill="#DF85AB"/>
<path d="M378.406 209C369.739 278.334 352.906 433.2 354.906 446L366.406 451C372.006 335 385.739 237 391.906 209H378.406Z" fill="#7DBAB2"/>
<path d="M378.406 209C369.739 278.334 352.906 433.2 354.906 446L366.406 451C372.006 335 385.739 237 391.906 209M378.406 209C349.239 209.167 295.706 178.1 314.906 52.5003C320.378 54.142 329.871 58.4788 331.548 64.4046M378.406 209H391.906M391.906 209C416.306 197.001 424.906 188.5 434.906 174C458.01 140.5 455.239 83.5001 443.906 55.7503C443.739 48.167 442.206 34.0002 437.406 38C432.606 41.9998 427.073 54.6666 424.906 60.5C424.506 46.0998 414.073 36.1668 408.906 33.0003C407.306 47.4005 397.573 69.3337 389.406 78.5003M331.406 68.5003C328.606 76.5003 334.573 102.5 337.906 114.5M331.406 68.5003C331.908 67.067 331.914 65.698 331.548 64.4046M331.406 68.5003C331.354 67.1174 331.405 65.7508 331.548 64.4046M389.406 78.5003L368.656 55.7503M389.406 78.5003C370.206 114.9 379.739 168.333 385.406 190.5M389.406 78.5003C393.805 73.5632 398.658 64.9227 402.45 55.7503C402.283 44.8336 395.806 24.4003 385.406 30.0003C375.006 35.6003 369.906 49.5003 368.656 55.7503M368.656 55.7503L351.906 33.0003C345.411 37.5787 333.099 49.787 331.548 64.4046M401.906 188.5C416.239 177.333 442.906 142.5 434.906 92.5" stroke="#3B3166" stroke-width="2" stroke-linejoin="round"/>
<path d="M692.906 296C673.406 294.5 632.206 300.099 623.406 334.5C635.006 318.899 674.573 302.333 692.906 296Z" fill="#DF85AB"/>
<path d="M767.406 339.707C742.53 348.038 699.035 352.951 627.906 344.5C649.69 358.311 701.98 376.841 757.406 357.758C766.86 354.503 776.405 350.153 785.906 344.5C784.239 341.663 778.206 336.734 767.406 339.707Z" fill="#DF85AB"/>
<path d="M771.906 277.5L739.406 274.679C728.34 283.2 713.861 292.748 702.841 295.671C719.376 295.557 742.781 297.331 763.406 303.657L776.906 296C789.706 284 778.906 278.666 771.906 277.5Z" fill="#DF85AB"/>
<path fill-rule="evenodd" clip-rule="evenodd" d="M591.5 347.993C591.321 350.831 591.769 357.806 595 363C608.667 389.164 678.106 414.5 776.906 360.5C770.406 360.838 757.406 360.764 757.406 357.758C701.98 376.841 649.69 358.311 627.906 344.5C699.035 352.951 742.53 348.038 767.406 339.707C784.918 333.842 793.203 326.283 795.406 320.5C787.121 312.87 775.763 307.447 763.406 303.657C742.781 297.331 719.376 295.557 702.841 295.671C713.861 292.748 728.34 283.2 739.406 274.679C743.246 271.722 746.675 268.889 749.406 266.5C646.206 254.9 595.333 320.493 591.5 347.993ZM692.906 296C674.573 302.333 635.006 318.899 623.406 334.5C632.206 300.099 673.406 294.5 692.906 296Z" fill="#DF85AB"/>
<path d="M591.5 347.993C534.7 347.193 462.761 412.66 437.594 443.993L474 430.5C523.6 367.3 575.333 359.167 595 363C591.769 357.806 591.321 350.831 591.5 347.993Z" fill="#7DBAB2"/>
<path d="M591.5 347.993C534.7 347.193 462.761 412.66 437.594 443.993L474 430.5C523.6 367.3 575.333 359.167 595 363M591.5 347.993C595.333 320.493 646.206 254.9 749.406 266.5C746.675 268.889 743.246 271.722 739.406 274.679M591.5 347.993C591.321 350.831 591.769 357.806 595 363M595 363C608.667 389.164 678.106 414.5 776.906 360.5C770.406 360.838 757.406 360.764 757.406 357.758M692.906 296C673.406 294.5 632.206 300.099 623.406 334.5C635.006 318.899 674.573 302.333 692.906 296ZM692.906 296C695.804 295.816 699.152 295.696 702.841 295.671M739.406 274.679L771.906 277.5C778.906 278.666 789.706 284 776.906 296L763.406 303.657M739.406 274.679C728.34 283.2 713.861 292.748 702.841 295.671M763.406 303.657C775.763 307.447 787.121 312.87 795.406 320.5C793.203 326.283 784.918 333.842 767.406 339.707M763.406 303.657C742.781 297.331 719.376 295.557 702.841 295.671M767.406 339.707C742.53 348.038 699.035 352.951 627.906 344.5C649.69 358.311 701.98 376.841 757.406 357.758M767.406 339.707C778.206 336.734 784.239 341.663 785.906 344.5C776.405 350.153 766.86 354.503 757.406 357.758" stroke="#3B3166" stroke-width="2" stroke-linejoin="round"/>
<path d="M761.406 146.5C770.206 129.7 738.259 128.167 721.185 129.5C723.236 146.93 722.802 165.226 718.557 172.5C730.736 167.797 751.717 162.779 740.974 179.093C743.582 175.292 746.219 171.373 748.75 167.5C753.709 159.911 758.263 152.5 761.406 146.5Z" fill="#DF85AB"/>
<path d="M740.006 180.5C735.655 186.811 731.429 192.735 727.958 197.5C736.913 193.473 743.707 189.94 748.75 186.85C770.756 173.363 759.397 168.314 748.75 167.5C746.219 171.373 743.582 175.292 740.974 179.093C740.676 179.546 740.354 180.014 740.006 180.5Z" fill="#DF85AB"/>
<path fill-rule="evenodd" clip-rule="evenodd" d="M571.906 265.5H588.906C643.302 277.567 723.906 283 748.75 186.85C743.707 189.94 736.913 193.473 727.958 197.5C726.447 199.574 725.079 201.428 723.906 203L740.006 180.5C740.328 180.033 740.651 179.564 740.974 179.093C751.717 162.779 730.736 167.797 718.557 172.5C722.802 165.226 723.236 146.93 721.185 129.5C718.957 110.568 713.798 92.6574 707.406 91.0002C696.606 88.2002 686.906 98.1669 683.406 103.5C492.206 148.7 529.406 230.334 571.906 265.5Z" fill="#DF85AB"/>
<path d="M571.906 265.5C517.906 335.5 457.573 405.5 439.906 440.5L454.906 437C484.906 382.6 556.739 300 588.906 265.5H571.906Z" fill="#7DBAB2"/>
<path d="M571.906 265.5C517.906 335.5 457.573 405.5 439.906 440.5L454.906 437C484.906 382.6 556.739 300 588.906 265.5M571.906 265.5C529.406 230.334 492.206 148.7 683.406 103.5C686.906 98.1669 696.606 88.2002 707.406 91.0002C713.798 92.6574 718.957 110.568 721.185 129.5M571.906 265.5H588.906M588.906 265.5C643.302 277.567 723.906 283 748.75 186.85M696.406 180.5C698.239 180.5 704.606 179.5 715.406 175.5C716.629 175.047 717.676 174.012 718.557 172.5M721.185 129.5C738.259 128.167 770.206 129.7 761.406 146.5C758.263 152.5 753.709 159.911 748.75 167.5M721.185 129.5C723.236 146.93 722.802 165.226 718.557 172.5M723.906 203L740.006 180.5M723.906 203C725.079 201.428 726.447 199.574 727.958 197.5M723.906 203C687.906 211 691.006 264.1 639.406 260.5M740.006 180.5C735.655 186.811 731.429 192.735 727.958 197.5M740.006 180.5C740.328 180.033 740.651 179.564 740.974 179.093M740.006 180.5C740.354 180.014 740.676 179.546 740.974 179.093M718.557 172.5C730.736 167.797 751.717 162.779 740.974 179.093M748.75 167.5C759.397 168.314 770.756 173.363 748.75 186.85M748.75 167.5C746.219 171.373 743.582 175.292 740.974 179.093M727.958 197.5C736.913 193.473 743.707 189.94 748.75 186.85" stroke="#3B3166" stroke-width="2" stroke-linejoin="round"/>
<path d="M659.777 83C659.359 88.1305 653.99 95.6876 637.13 105.5C638.504 112.746 639.568 120.878 640.077 129.5C639.907 125.9 666.226 112 679.406 105.5C682.906 97.3333 688.606 80.3 683.406 77.5C678.206 74.7 665.487 80 659.777 83Z" fill="#DF85AB"/>
<path d="M633.406 96.0306C633.911 95.8483 634.411 95.6714 634.906 95.5C635.703 98.5877 636.454 101.937 637.13 105.5C653.99 95.6876 659.359 88.1305 659.777 83C660.058 79.5557 646.108 78.705 643.906 77.5C636.739 81.6871 634.206 90.0551 633.406 96.0306Z" fill="#DF85AB"/>
<path d="M683.068 123.5C685.414 139.385 686.048 158.644 679.406 167.5C685.838 162.637 698.145 152.577 698.904 149.076C698.768 148.233 698.754 147.969 698.906 148.5C698.953 148.665 698.951 148.858 698.904 149.076C699.482 152.684 702.285 166.896 703.906 175C707.406 156.667 712.706 119.5 705.906 117.5C699.106 115.5 687.847 120.667 683.068 123.5Z" fill="#DF85AB"/>
<path d="M593.406 90.0646C596.334 97.3223 600.116 107.752 600.406 112.68C600.411 112.676 600.417 112.673 600.422 112.669C607.192 108.246 613.985 104.512 620.406 101.47C622.806 88.6704 621.406 76.8333 620.406 73.5C606.406 75.1 596.573 85.2097 593.406 90.0646Z" fill="#DF85AB"/>
<path d="M659.777 232.5C682.968 201.228 695.763 179.333 703.906 175C702.285 166.896 699.482 152.684 698.904 149.076C698.145 152.577 685.838 162.637 679.406 167.5C639.629 219.21 603.808 246.527 590.626 253.878C612.523 258.334 637.103 263.075 659.777 232.5Z" fill="#DF85AB"/>
<path fill-rule="evenodd" clip-rule="evenodd" d="M550.406 247L561.906 251.5C570.423 249.765 579.984 251.712 590.131 253.777L590.626 253.878C603.808 246.527 639.629 219.21 679.406 167.5C686.048 158.644 685.414 139.385 683.068 123.5C682.023 116.425 680.639 110.019 679.406 105.5C666.226 112 639.907 125.9 640.077 129.5C639.568 120.878 638.504 112.746 637.13 105.5C636.454 101.937 635.703 98.5877 634.906 95.5C634.411 95.6714 633.911 95.8483 633.406 96.0306C629.515 97.4349 625.318 99.1643 620.942 101.218C620.764 101.301 620.585 101.386 620.406 101.47C613.985 104.512 607.192 108.246 600.422 112.669L600.406 112.68C600.116 107.752 596.334 97.3223 593.406 90.0646C592.294 87.3064 591.232 84.8359 590.406 83C492.406 150.2 522.906 220.333 550.406 247Z" fill="#DF85AB"/>
<path d="M477.906 342C443.551 366.397 404.406 415.333 392.406 443L403.906 444.5C415.906 416.833 455.051 370.897 489.406 346.5C523.906 322 554.239 277.167 561.906 251.5L550.406 247C542.739 272.667 512.406 317.5 477.906 342Z" fill="#7DBAB2"/>
<path d="M550.406 247C542.739 272.667 512.406 317.5 477.906 342C443.551 366.397 404.406 415.333 392.406 443L403.906 444.5C415.906 416.833 455.051 370.897 489.406 346.5C523.906 322 554.239 277.167 561.906 251.5M550.406 247C522.906 220.333 492.406 150.2 590.406 83C591.232 84.8359 592.294 87.3064 593.406 90.0646M550.406 247L561.906 251.5M561.906 251.5C570.423 249.765 579.984 251.712 590.131 253.777M600.406 112.68C600.116 107.752 596.334 97.3223 593.406 90.0646M600.406 112.68C600.411 112.676 600.417 112.673 600.422 112.669M600.406 112.68L600.422 112.669M593.406 90.0646C596.573 85.2097 606.406 75.1 620.406 73.5C621.406 76.8333 622.806 88.6704 620.406 101.47M620.406 101.47C620.585 101.386 620.764 101.301 620.942 101.218M620.406 101.47C613.985 104.512 607.192 108.246 600.422 112.669M550.406 231C533.035 174.47 566.43 134.88 600.422 112.669M572.406 247C630.874 229.985 642.668 173.395 640.077 129.5M633.406 96.0306C633.911 95.8483 634.411 95.6714 634.906 95.5C635.703 98.5877 636.454 101.937 637.13 105.5M633.406 96.0306C634.206 90.0551 636.739 81.6871 643.906 77.5C646.108 78.705 660.058 79.5557 659.777 83M633.406 96.0306C629.515 97.4349 625.318 99.1643 620.942 101.218M637.13 105.5C653.99 95.6876 659.359 88.1305 659.777 83M637.13 105.5C638.504 112.746 639.568 120.878 640.077 129.5M659.777 83C665.487 80 678.206 74.7 683.406 77.5C688.606 80.3 682.906 97.3333 679.406 105.5M679.406 105.5C666.226 112 639.907 125.9 640.077 129.5M679.406 105.5C680.639 110.019 682.023 116.425 683.068 123.5M679.406 167.5C686.048 158.644 685.414 139.385 683.068 123.5M679.406 167.5C685.838 162.637 698.145 152.577 698.904 149.076M679.406 167.5C639.629 219.21 603.808 246.527 590.626 253.878M683.068 123.5C687.847 120.667 699.106 115.5 705.906 117.5C712.706 119.5 707.406 156.667 703.906 175M703.906 175C695.763 179.333 682.968 201.228 659.777 232.5C637.103 263.075 612.523 258.334 590.626 253.878M703.906 175C702.285 166.896 699.482 152.684 698.904 149.076M590.406 254C590.479 253.96 590.552 253.919 590.626 253.878M698.904 149.076C698.768 148.233 698.754 147.969 698.906 148.5C698.953 148.665 698.951 148.858 698.904 149.076ZM620.942 101.218C614.364 104.304 607.381 108.123 600.422 112.669M590.626 253.878L590.131 253.777M590.626 253.878C590.461 253.845 590.296 253.811 590.131 253.777" stroke="#3B3166" stroke-width="2" stroke-linejoin="round"/>
<path d="M233.406 101L256.533 105.504C259.87 105.544 263.678 101.18 255.452 84C243.889 84 235.937 95.3333 233.406 101Z" fill="#DF85AB"/>
<path d="M233.406 121C231.941 119.628 230.61 118.337 229.406 117.123C226.073 118.374 218.806 120.502 216.406 119C214.006 117.498 221.406 129.374 225.406 135.5H240.916C238.16 130.225 235.62 125.317 233.406 121Z" fill="#DF85AB"/>
<path fill-rule="evenodd" clip-rule="evenodd" d="M336.906 240.5L347.906 235.5C373.906 216.333 396.706 153.1 279.906 53.5C281.901 62.3029 284.401 72.7427 287.27 84C289.632 93.2651 292.243 103.084 295.028 113L256.533 105.504L233.406 101C223.517 98.0175 209.902 97.4596 229.406 117.123C230.61 118.337 231.941 119.628 233.406 121C235.62 125.317 238.16 130.225 240.916 135.5H225.406C215.739 134.333 198.406 134.5 206.406 144.5C208.13 146.654 210.328 151.779 213.271 158.637C227.402 191.574 258.692 264.502 336.906 240.5Z" fill="#DF85AB"/>
<path d="M336.906 240.5C366.906 262.1 406.739 383.833 422.906 442H433.406C405.006 322 364.573 254.333 347.906 235.5L336.906 240.5Z" fill="#7DBAB2"/>
<path d="M287.27 84L260.906 67.5C253.406 62.3333 241.306 57.4 252.906 79C253.86 80.7764 254.706 82.441 255.452 84C263.678 101.18 259.87 105.544 256.533 105.504L295.028 113C292.243 103.084 289.632 93.2651 287.27 84Z" fill="#DF85AB"/>
<path d="M336.906 240.5C366.906 262.1 406.739 383.833 422.906 442H433.406C405.006 322 364.573 254.333 347.906 235.5M336.906 240.5L347.906 235.5M336.906 240.5C258.692 264.502 227.402 191.574 213.271 158.637C210.328 151.779 208.13 146.654 206.406 144.5C198.406 134.5 215.739 134.333 225.406 135.5M347.906 235.5C373.906 216.333 396.706 153.1 279.906 53.5C281.901 62.3029 284.401 72.7427 287.27 84M336.906 211.5C324.227 206.031 307.804 158.494 295.028 113M287.27 84L260.906 67.5C253.406 62.3333 241.306 57.4 252.906 79C253.86 80.7764 254.706 82.441 255.452 84M287.27 84C289.632 93.2651 292.243 103.084 295.028 113M256.406 105.5C256.448 105.502 256.491 105.503 256.533 105.504M295.028 113L256.533 105.504M233.406 101C223.517 98.0175 209.902 97.4596 229.406 117.123M233.406 101L256.533 105.504M233.406 101C235.937 95.3333 243.889 84 255.452 84M318.406 235.5C312.739 233.167 299.606 227.5 292.406 223.5C286.162 220.031 258.913 169.939 240.916 135.5M229.406 117.123C230.61 118.337 231.941 119.628 233.406 121C235.62 125.317 238.16 130.225 240.916 135.5M229.406 117.123C226.073 118.374 218.806 120.502 216.406 119C214.006 117.498 221.406 129.374 225.406 135.5M225.406 135.5H240.916M256.533 105.504C259.87 105.544 263.678 101.18 255.452 84" stroke="#3B3166" stroke-width="2" stroke-linejoin="round"/>
<path d="M536.317 55.5C535.081 88.7036 527.323 127.669 504.906 147.551C524.628 139.673 555.555 119.592 570.949 88C579.362 70.7343 583.136 50.0301 577.906 26C564.373 33.1105 539.457 47.41 536.381 53.5913C536.362 54.2253 536.341 54.8616 536.317 55.5Z" fill="#DF85AB"/>
<path d="M508.906 12C510.106 5.6 504.739 2 501.906 1C474.077 22.8226 455.23 42.8874 443.081 61C464.523 47.3333 507.706 18.4 508.906 12Z" fill="#DF85AB"/>
<path d="M560.01 36C553.61 38.4 552.739 24 553.406 16.5C547.024 18.1296 541.031 20.0065 535.406 22.101C536.286 31.092 536.73 41.9529 536.381 53.5913C538.326 49.6832 549.001 42.5298 560.01 36Z" fill="#DF85AB"/>
<path fill-rule="evenodd" clip-rule="evenodd" d="M452.906 166L462.406 170.5C506.739 179.833 594.606 168.7 591.406 49.5C586.935 63 576.584 89.6 570.949 88C555.555 119.592 524.628 139.673 504.906 147.551C527.323 127.669 535.081 88.7036 536.317 55.5C535.953 55.0108 535.996 54.3646 536.381 53.5913C536.73 41.9529 536.286 31.092 535.406 22.101C532.116 23.3263 528.951 24.626 525.909 25.9942C528.075 21.3256 531.104 12 525.906 12H508.906C507.706 18.4 464.523 47.3333 443.081 61C406.685 115.263 430.414 152.005 452.906 166Z" fill="#DF85AB"/>
<path d="M452.906 166C424.573 213 369.206 341.7 374.406 448.5H385.406C384.206 337.3 436.239 214.167 462.406 170.5L452.906 166Z" fill="#7DBAB2"/>
<path d="M452.906 166C424.573 213 369.206 341.7 374.406 448.5H385.406C384.206 337.3 436.239 214.167 462.406 170.5M452.906 166C430.414 152.005 406.685 115.263 443.081 61M452.906 166L462.406 170.5M462.406 170.5C506.739 179.833 594.606 168.7 591.406 49.5C586.935 63 576.584 89.6 570.949 88M508.906 12C510.106 5.6 504.739 2 501.906 1C474.077 22.8226 455.23 42.8874 443.081 61M508.906 12C507.706 18.4 464.523 47.3333 443.081 61M508.906 12C512.406 12 520.706 12 525.906 12M508.906 12H525.906M525.906 12C531.104 12 528.075 21.3256 525.909 25.9942M525.906 26C525.907 25.9981 525.908 25.9961 525.909 25.9942M456.906 154C450.659 122.023 457.552 56.7323 525.909 25.9942M535.406 22.101C541.031 20.0065 547.024 18.1296 553.406 16.5C552.739 24 553.61 38.4 560.01 36C549.001 42.5298 538.326 49.6832 536.381 53.5913M535.406 22.101C536.286 31.092 536.73 41.9529 536.381 53.5913M535.406 22.101C532.116 23.3263 528.951 24.626 525.909 25.9942M473.906 160.5C486.481 159.572 496.681 154.846 504.906 147.551M504.906 147.551C527.323 127.669 535.081 88.7036 536.317 55.5M504.906 147.551C524.628 139.673 555.555 119.592 570.949 88M536.317 55.5C535.953 55.0108 535.996 54.3646 536.381 53.5913M536.317 55.5C536.341 54.8616 536.362 54.2253 536.381 53.5913M570.949 88C579.362 70.7343 583.136 50.0301 577.906 26C564.373 33.1105 539.457 47.41 536.381 53.5913" stroke="#3B3166" stroke-width="2" stroke-linejoin="round"/>
<path fill-rule="evenodd" clip-rule="evenodd" d="M500.406 405.992C500.404 405.989 500.402 405.986 500.4 405.983C497.373 410.152 493.763 413.933 489.67 417.342C445.785 453.886 346.203 447.647 310.5 417.342C306.402 413.863 303.145 410.068 300.911 405.983C300.909 405.986 300.908 405.989 300.906 405.992V632.5C324.406 675.496 461.206 686.5 500.406 632.5V405.992ZM500.4 405.983C500.402 405.986 500.404 405.989 500.406 405.992V405.975C500.404 405.977 500.402 405.98 500.4 405.983Z" fill="#FAF4FF"/>
<path d="M500.406 405.992C500.404 405.989 500.402 405.986 500.4 405.983M500.406 405.992V632.5C461.206 686.5 324.406 675.496 300.906 632.5V405.992C300.908 405.989 300.909 405.986 300.911 405.983C303.145 410.068 306.402 413.863 310.5 417.342C346.203 447.647 445.785 453.886 489.67 417.342C493.763 413.933 497.373 410.152 500.4 405.983M500.406 405.992V405.975C500.404 405.977 500.402 405.98 500.4 405.983" stroke="#3B3166" stroke-width="2" stroke-linejoin="round"/>
</svg>
