<svg width="1392" height="385" viewBox="0 0 1392 385" fill="none" xmlns="http://www.w3.org/2000/svg">
<mask id="path-1-inside-1_68_491" fill="white">
<path fill-rule="evenodd" clip-rule="evenodd" d="M27.5539 0H1363.7C1378.91 0 1391.25 12.3363 1391.25 27.5538V356.888C1391.25 372.105 1378.91 384.442 1363.7 384.442H27.5538C12.3362 384.442 0 372.105 0 356.888V27.5539C0 12.3363 12.3363 0 27.5539 0ZM1330.89 32.8027H60.3563C45.1388 32.8027 32.8025 45.1391 32.8025 60.3566V324.086C32.8025 339.304 45.1388 351.64 60.3563 351.64H1330.89C1346.11 351.64 1358.45 339.304 1358.45 324.086V60.3566C1358.45 45.139 1346.11 32.8027 1330.89 32.8027Z"/>
<path fill-rule="evenodd" clip-rule="evenodd" d="M60.3563 32.8027H1330.89C1346.11 32.8027 1358.45 45.139 1358.45 60.3566V324.086C1358.45 339.304 1346.11 351.64 1330.89 351.64H60.3563C45.1388 351.64 32.8025 339.304 32.8025 324.086V60.3566C32.8025 45.1391 45.1388 32.8027 60.3563 32.8027ZM1313.4 50.2969H77.8505C62.6329 50.2969 50.2966 62.6331 50.2966 77.8507V306.591C50.2966 321.809 62.6329 334.145 77.8505 334.145H1313.4C1328.62 334.145 1340.95 321.809 1340.95 306.591V77.8507C1340.95 62.6332 1328.62 50.2969 1313.4 50.2969Z"/>
<path d="M77.8505 50.2969H1313.4C1328.62 50.2969 1340.95 62.6332 1340.95 77.8507V306.591C1340.95 321.809 1328.62 334.145 1313.4 334.145H77.8505C62.6329 334.145 50.2966 321.809 50.2966 306.591V77.8507C50.2966 62.6331 62.6329 50.2969 77.8505 50.2969Z"/>
</mask>
<path fill-rule="evenodd" clip-rule="evenodd" d="M27.5539 0H1363.7C1378.91 0 1391.25 12.3363 1391.25 27.5538V356.888C1391.25 372.105 1378.91 384.442 1363.7 384.442H27.5538C12.3362 384.442 0 372.105 0 356.888V27.5539C0 12.3363 12.3363 0 27.5539 0ZM1330.89 32.8027H60.3563C45.1388 32.8027 32.8025 45.1391 32.8025 60.3566V324.086C32.8025 339.304 45.1388 351.64 60.3563 351.64H1330.89C1346.11 351.64 1358.45 339.304 1358.45 324.086V60.3566C1358.45 45.139 1346.11 32.8027 1330.89 32.8027Z" fill="#FAF4FF"/>
<path fill-rule="evenodd" clip-rule="evenodd" d="M60.3563 32.8027H1330.89C1346.11 32.8027 1358.45 45.139 1358.45 60.3566V324.086C1358.45 339.304 1346.11 351.64 1330.89 351.64H60.3563C45.1388 351.64 32.8025 339.304 32.8025 324.086V60.3566C32.8025 45.1391 45.1388 32.8027 60.3563 32.8027ZM1313.4 50.2969H77.8505C62.6329 50.2969 50.2966 62.6331 50.2966 77.8507V306.591C50.2966 321.809 62.6329 334.145 77.8505 334.145H1313.4C1328.62 334.145 1340.95 321.809 1340.95 306.591V77.8507C1340.95 62.6332 1328.62 50.2969 1313.4 50.2969Z" fill="#CEB4E2"/>
<path d="M77.8505 50.2969H1313.4C1328.62 50.2969 1340.95 62.6332 1340.95 77.8507V306.591C1340.95 321.809 1328.62 334.145 1313.4 334.145H77.8505C62.6329 334.145 50.2966 321.809 50.2966 306.591V77.8507C50.2966 62.6331 62.6329 50.2969 77.8505 50.2969Z" fill="#FAF4FF"/>
<path fill-rule="evenodd" clip-rule="evenodd" d="M27.5539 0H1363.7C1378.91 0 1391.25 12.3363 1391.25 27.5538V356.888C1391.25 372.105 1378.91 384.442 1363.7 384.442H27.5538C12.3362 384.442 0 372.105 0 356.888V27.5539C0 12.3363 12.3363 0 27.5539 0ZM1330.89 32.8027H60.3563C45.1388 32.8027 32.8025 45.1391 32.8025 60.3566V324.086C32.8025 339.304 45.1388 351.64 60.3563 351.64H1330.89C1346.11 351.64 1358.45 339.304 1358.45 324.086V60.3566C1358.45 45.139 1346.11 32.8027 1330.89 32.8027Z" stroke="#3B3166" stroke-width="2" mask="url(#path-1-inside-1_68_491)"/>
<path fill-rule="evenodd" clip-rule="evenodd" d="M60.3563 32.8027H1330.89C1346.11 32.8027 1358.45 45.139 1358.45 60.3566V324.086C1358.45 339.304 1346.11 351.64 1330.89 351.64H60.3563C45.1388 351.64 32.8025 339.304 32.8025 324.086V60.3566C32.8025 45.1391 45.1388 32.8027 60.3563 32.8027ZM1313.4 50.2969H77.8505C62.6329 50.2969 50.2966 62.6331 50.2966 77.8507V306.591C50.2966 321.809 62.6329 334.145 77.8505 334.145H1313.4C1328.62 334.145 1340.95 321.809 1340.95 306.591V77.8507C1340.95 62.6332 1328.62 50.2969 1313.4 50.2969Z" stroke="#3B3166" stroke-width="2" mask="url(#path-1-inside-1_68_491)"/>
<path d="M77.8505 50.2969H1313.4C1328.62 50.2969 1340.95 62.6332 1340.95 77.8507V306.591C1340.95 321.809 1328.62 334.145 1313.4 334.145H77.8505C62.6329 334.145 50.2966 321.809 50.2966 306.591V77.8507C50.2966 62.6331 62.6329 50.2969 77.8505 50.2969Z" stroke="#3B3166" stroke-width="2" mask="url(#path-1-inside-1_68_491)"/>
</svg>
