<svg width="201" height="201" viewBox="0 0 201 201" fill="none" xmlns="http://www.w3.org/2000/svg">
<rect x="1.58887" y="1.00098" width="198.312" height="198.312" rx="26.5539" fill="#EAC009" stroke="#3B3166" stroke-width="2"/>
<mask id="mask0_67_420" style="mask-type:alpha" maskUnits="userSpaceOnUse" x="0" y="0" width="201" height="201">
<rect x="0.588867" width="200.312" height="200.312" rx="27.5539" fill="#94635C"/>
</mask>
<g mask="url(#mask0_67_420)">
<path d="M41.4643 230.416C28.1182 230.416 17.7379 226.857 10.3234 219.739C2.90894 212.621 -0.798306 202.834 -0.798306 190.378C-0.798306 180.591 2.46407 172.287 8.98883 165.465C15.8102 158.347 23.6695 154.788 32.5669 154.788C34.9396 154.788 37.3122 155.085 39.6848 155.678C42.0575 155.975 43.6887 156.123 44.5784 156.123L50.3617 157.013V217.07C57.4796 213.808 63.7078 207.283 69.0462 197.496C74.3847 187.709 77.7953 171.249 79.2782 148.115L88.1756 16.8788L57.0347 7.98139V1.30835H263.899V7.98139L237.207 14.6544V210.397L263.899 217.07V223.743H139.336V217.07L166.028 210.397V12.4301H101.522L92.6243 148.115C90.8448 176.29 85.2098 197.051 75.7193 210.397C66.2287 223.743 54.8104 230.416 41.4643 230.416Z" fill="#FAF4FF"/>
<path d="M10.3234 219.739L11.016 219.018L11.016 219.018L10.3234 219.739ZM8.98883 165.465L8.26684 164.773L8.26618 164.774L8.98883 165.465ZM39.6848 155.678L39.4423 156.648L39.5009 156.663L39.5608 156.67L39.6848 155.678ZM44.5784 156.123L44.7305 155.135L44.6549 155.123H44.5784V156.123ZM50.3617 157.013H51.3617V156.155L50.5138 156.024L50.3617 157.013ZM50.3617 217.07H49.3617V218.628L50.7784 217.979L50.3617 217.07ZM69.0462 197.496L68.1683 197.017L68.1683 197.017L69.0462 197.496ZM79.2782 148.115L78.2805 148.048L78.2803 148.051L79.2782 148.115ZM88.1756 16.8788L89.1733 16.9464L89.228 16.1394L88.4503 15.9172L88.1756 16.8788ZM57.0347 7.98139H56.0347V8.73569L56.76 8.94291L57.0347 7.98139ZM57.0347 1.30835V0.30835H56.0347V1.30835H57.0347ZM263.899 1.30835H264.899V0.30835H263.899V1.30835ZM263.899 7.98139L264.142 8.95153L264.899 8.76216V7.98139H263.899ZM237.207 14.6544L236.964 13.6843L236.207 13.8736V14.6544H237.207ZM237.207 210.397H236.207V211.178L236.964 211.367L237.207 210.397ZM263.899 217.07H264.899V216.289L264.142 216.1L263.899 217.07ZM263.899 223.743V224.743H264.899V223.743H263.899ZM139.336 223.743H138.336V224.743H139.336V223.743ZM139.336 217.07L139.093 216.1L138.336 216.289V217.07H139.336ZM166.028 210.397L166.27 211.367L167.028 211.178V210.397H166.028ZM166.028 12.4301H167.028V11.4301H166.028V12.4301ZM101.522 12.4301V11.4301H100.585L100.524 12.3646L101.522 12.4301ZM92.6243 148.115L91.6265 148.05L91.6263 148.052L92.6243 148.115ZM75.7193 210.397L74.9043 209.818L74.9043 209.818L75.7193 210.397ZM41.4643 229.416C28.2965 229.416 18.1936 225.909 11.016 219.018L9.6309 220.461C17.2822 227.806 27.9399 231.416 41.4643 231.416V229.416ZM11.016 219.018C3.83852 212.128 0.201694 202.624 0.201694 190.378H-1.79831C-1.79831 203.045 1.97936 213.115 9.6309 220.461L11.016 219.018ZM0.201694 190.378C0.201694 180.838 3.37186 172.784 9.71147 166.156L8.26618 164.774C1.55628 171.789 -1.79831 180.344 -1.79831 190.378H0.201694ZM9.71081 166.157C16.366 159.213 23.973 155.788 32.5669 155.788V153.788C23.366 153.788 15.2543 157.482 8.26684 164.773L9.71081 166.157ZM32.5669 155.788C34.8553 155.788 37.1465 156.074 39.4423 156.648L39.9274 154.708C37.4779 154.096 35.0238 153.788 32.5669 153.788V155.788ZM39.5608 156.67C41.9282 156.966 43.6179 157.123 44.5784 157.123V155.123C43.7595 155.123 42.1867 154.983 39.8089 154.686L39.5608 156.67ZM44.4263 157.111L50.2096 158.001L50.5138 156.024L44.7305 155.135L44.4263 157.111ZM49.3617 157.013V217.07H51.3617V157.013H49.3617ZM50.7784 217.979C58.16 214.596 64.5248 207.873 69.9241 197.975L68.1683 197.017C62.8908 206.693 56.7992 213.02 49.945 216.161L50.7784 217.979ZM69.9241 197.975C75.374 187.983 78.7919 171.334 80.2762 148.179L78.2803 148.051C76.7988 171.163 73.3953 187.434 68.1683 197.017L69.9241 197.975ZM80.2759 148.183L89.1733 16.9464L87.1779 16.8111L78.2805 148.048L80.2759 148.183ZM88.4503 15.9172L57.3095 7.01986L56.76 8.94291L87.9009 17.8403L88.4503 15.9172ZM58.0347 7.98139V1.30835H56.0347V7.98139H58.0347ZM57.0347 2.30835H263.899V0.30835H57.0347V2.30835ZM262.899 1.30835V7.98139H264.899V1.30835H262.899ZM263.657 7.01125L236.964 13.6843L237.449 15.6246L264.142 8.95153L263.657 7.01125ZM236.207 14.6544V210.397H238.207V14.6544H236.207ZM236.964 211.367L263.657 218.04L264.142 216.1L237.449 209.427L236.964 211.367ZM262.899 217.07V223.743H264.899V217.07H262.899ZM263.899 222.743H139.336V224.743H263.899V222.743ZM140.336 223.743V217.07H138.336V223.743H140.336ZM139.578 218.04L166.27 211.367L165.785 209.427L139.093 216.1L139.578 218.04ZM167.028 210.397V12.4301H165.028V210.397H167.028ZM166.028 11.4301H101.522V13.4301H166.028V11.4301ZM100.524 12.3646L91.6265 148.05L93.6222 148.181L102.52 12.4955L100.524 12.3646ZM91.6263 148.052C89.8511 176.16 84.2343 196.697 74.9043 209.818L76.5342 210.977C86.1853 197.405 91.8386 176.421 93.6223 148.178L91.6263 148.052ZM74.9043 209.818C65.5534 222.967 54.4119 229.416 41.4643 229.416V231.416C55.2089 231.416 66.9041 224.519 76.5342 210.977L74.9043 209.818Z" fill="#3B3166"/>
</g>
<rect x="1.58887" y="1.00098" width="198.312" height="198.312" rx="26.5539" stroke="#3B3166" stroke-width="2"/>
</svg>
