<svg width="355" height="414" viewBox="0 0 355 414" fill="none" xmlns="http://www.w3.org/2000/svg">
<g clip-path="url(#clip0_71_775)">
<path d="M283.595 353.449C303.912 339.516 335.347 333.97 310.888 375.861C302.48 390.261 276.533 402.15 264.357 385.833C260.695 380.925 264.775 367.573 283.595 353.449Z" fill="#EAC009"/>
<path d="M0.656139 159.499C1.1639 155.117 5.78185 146.004 20.1915 144.603C34.6012 143.202 28.8951 167.726 19.814 173.658C10.6852 178.352 -3.50133 183.189 0.656139 159.499Z" fill="#EAC009"/>
<path fill-rule="evenodd" clip-rule="evenodd" d="M101.977 24.5641C46.6993 43.3593 35.7788 91.3847 37.2283 113.048C42.0139 152.48 32.1206 177.407 26.5757 184.942C14.8945 204.005 -3.47848 246.035 16.4799 261.654C36.4382 277.272 56.4512 329.997 63.963 354.407C109.575 448.869 196.175 407.306 233.774 374.716C315.127 329.009 342.283 262.218 333.579 239.095C371.183 248.826 352.52 189.224 326.119 219.275C314.865 205.409 318.568 125.739 321.826 87.6375C323.292 24.7335 280.599 5.93905 259.07 4.40482C248.189 2.21493 220.618 -0.229924 197.384 7.50986C174.149 15.2497 124.098 22.1042 101.977 24.5641ZM67.3037 159.555C84.9916 135.297 127.079 102.61 153.926 165.92C140.038 182.461 103.271 204.346 67.3037 159.555ZM204.187 165.859C222.566 143.437 266.584 113.208 295.628 171.668C278.757 188.075 236.849 209.883 204.187 165.859ZM169.001 219.33C187.689 224.448 221.09 228.134 205.195 201.935C189.3 175.737 162.302 183.72 150.79 190.986C139.743 203.944 127.921 227.753 169.001 219.33ZM176.714 249.112C147.523 230.934 120.408 238.302 110.5 244.258C98.7631 264.049 121.301 286.312 181.472 282.52C267.908 277.073 259.697 243.438 243.239 232.872C226.982 226.42 189.247 241.461 176.714 249.112Z" fill="#EAC009"/>
<path d="M86.7215 161.045C99.3347 153.365 116.856 142.914 135.052 159.196M227.737 168.309C240.35 160.628 259.115 153.481 277.311 169.762M161.332 208.245C157.976 211.316 157.242 212.139 151.285 209.465M185.191 208.853C187.648 212.681 188.147 213.665 194.59 212.606M177.02 30.2584C313.898 26.5103 395.543 350.282 162.543 352.498C-14.0051 330.955 31.3589 47.3744 177.023 30.2572M129.658 251.738C143.855 262.737 195.786 277.132 228.108 246.11M37.2283 113.048C35.7788 91.3847 46.6993 43.3593 101.977 24.5641C124.098 22.1042 174.149 15.2497 197.384 7.50986C220.618 -0.229924 248.189 2.21493 259.07 4.40482C280.599 5.93905 323.292 24.7335 321.826 87.6375C318.568 125.739 314.865 205.409 326.119 219.275C352.52 189.224 371.183 248.826 333.579 239.095C342.283 262.218 315.127 329.009 233.774 374.716C196.175 407.306 109.575 448.869 63.963 354.407C56.4512 329.997 36.4382 277.272 16.4799 261.654C-3.47848 246.035 14.8945 204.005 26.5757 184.942C32.1206 177.407 42.0139 152.48 37.2283 113.048ZM283.595 353.449C303.912 339.516 335.347 333.97 310.888 375.861C302.48 390.261 276.533 402.15 264.357 385.833C260.695 380.925 264.775 367.573 283.595 353.449ZM0.656139 159.499C1.1639 155.117 5.78185 146.004 20.1915 144.603C34.6012 143.202 28.8951 167.726 19.814 173.658C10.6852 178.352 -3.50133 183.189 0.656139 159.499ZM67.3037 159.555C84.9916 135.297 127.079 102.61 153.926 165.92C140.038 182.461 103.271 204.346 67.3037 159.555ZM204.187 165.859C222.566 143.437 266.584 113.208 295.628 171.668C278.757 188.075 236.849 209.883 204.187 165.859ZM169.001 219.33C187.689 224.448 221.09 228.134 205.195 201.935C189.3 175.737 162.302 183.72 150.79 190.986C139.743 203.944 127.921 227.753 169.001 219.33ZM110.5 244.258C120.408 238.302 147.523 230.934 176.714 249.112C189.247 241.461 226.982 226.42 243.239 232.872C259.697 243.438 267.908 277.073 181.472 282.52C121.301 286.312 98.7631 264.049 110.5 244.258Z" stroke="#3B3166" stroke-width="1.51897"/>
</g>
<defs>
<clipPath id="clip0_71_775">
<rect width="355" height="414" fill="white"/>
</clipPath>
</defs>
</svg>
